{
.appVersion = "3133";
DisplayStrings = (
"nn/eng.ss03 nn/eng.ss04 nnn\012/Eng.006.titl/eng.006.titl"
);
classes = (
{
automatic = 1;

glyphs = (
{
color = 3;
glyphname = .notdef;
lastChange = "2022-04-08 20:31:11 +0000";
layers = (
{
background = {
paths = (
{
closed = 1;
nodes = (
"469 0 LINE",
"478 8 LINE",
"478 621 LINE",
"469 630 LINE",
"48 630 LINE",
"40 620 LINE",
"40 9 LINE",
"48 0 LINE"
);
},
{
closed = 1;
nodes = (
"144 150 LINE",
"234 316 LINE",
"144 479 LINE",
"163 514 LINE",
"253 350 LINE",
"344 514 LINE",
"363 479 LINE",
"273 314 LINE",
"363 150 LINE",
"344 116 LINE",
"253 279 LINE",
"163 116 LINE"
);
},
{
closed = 1;
nodes = (
"57 613 LINE",
"461 613 LINE",
"461 16 LINE",
"57 16 LINE"
);
},
{
closed = 1;
nodes = (
"427 49 LINE",
"427 577 LINE",
"92 577 LINE",
"92 49 LINE"
);
}
);
};
layerId = "C623C401-2266-4A98-B253-3D45160C29C7";
paths = (
{
closed = 1;
nodes = (
"469 0 LINE",
"478 8 LINE",
"478 621 LINE",
"469 630 LINE",
"48 630 LINE",
"40 620 LINE",
"40 9 LINE",
"48 0 LINE"
);
},
{
closed = 1;
nodes = (
"144 150 LINE",
"234 316 LINE",
"144 479 LINE",
"163 514 LINE",
"253 350 LINE",
"344 514 LINE",
"363 479 LINE",
"273 314 LINE",
"363 150 LINE",
"344 116 LINE",
"253 279 LINE",
"163 116 LINE"
);
},
{
closed = 1;
nodes = (
"57 613 LINE",
"461 613 LINE",
"461 16 LINE",
"57 16 LINE"
);
},
{
closed = 1;
nodes = (
"427 49 LINE",
"427 577 LINE",
"92 577 LINE",
"92 49 LINE"
);
}
);
width = 518;
}
);
note = ".notdef";
},
{
color = 3;
glyphname = space;
lastChange = "2022-06-15 19:51:45 +0000";
layers = (
{
background = {
paths = (
{
closed = 1;
nodes = (
"0 -230 LINE",
"200 -230 LINE",
"200 611 LINE",
"0 611 LINE"
);
}
);
};
layerId = "C623C401-2266-4A98-B253-3D45160C29C7";
width = 200;
}
);
note = space;
unicode = 0020;
},
{
glyphname = A;
lastChange = "2022-06-03 20:36:45 +0000";
layers = (
{
anchors = (
{
name = bottom;
position = "{256, 0}";
},
{
name = ogonek;
position = "{460, 10}";
},
{
name = top;
position = "{499, 600}";
}
);
background = {
anchors = (
{
name = bottom;
position = "{256, 0}";
},
{
name = ogonek;
position = "{460, 10}";
},
{
name = top;
position = "{256, 633}";
}
);
paths = (
{
closed = 1;
nodes = (
"448 -12 OFFCURVE",
"473 -7 OFFCURVE",
"473 8 CURVE",
"469 11 OFFCURVE",
"457 18 OFFCURVE",
"457 38 CURVE SMOOTH",
"457 123 OFFCURVE",
"499 273 OFFCURVE",
"580 380 CURVE SMOOTH",
"583 385 OFFCURVE",
"584 389 OFFCURVE",
"584 394 CURVE SMOOTH",
"584 428 OFFCURVE",
"497 439 OFFCURVE",
"464 445 CURVE",
"370 250 OFFCURVE",
"291 45 OFFCURVE",
"207 43 CURVE SMOOTH",
"181 43 OFFCURVE",
"171 64 OFFCURVE",
"171 97 CURVE SMOOTH",
"171 146 OFFCURVE",
"194 219 OFFCURVE",
"223 281 CURVE SMOOTH",
"268 369 OFFCURVE",
"375 546 OFFCURVE",
"488 546 CURVE SMOOTH",
"519 546 OFFCURVE",
"565 537 OFFCURVE",
"569 509 CURVE SMOOTH",
"570 505 OFFCURVE",
"572 503 OFFCURVE",
"576 503 CURVE SMOOTH",
"585 503 OFFCURVE",
"598 513 OFFCURVE",
"598 533 CURVE SMOOTH",
"598 539 OFFCURVE",
"597 546 OFFCURVE",
"594 553 CURVE SMOOTH",
"580 588 OFFCURVE",
"547 607 OFFCURVE",
"489 607 CURVE SMOOTH",
"247 607 OFFCURVE",
"109 369 OFFCURVE",
"58 190 CURVE SMOOTH",
"49 160 OFFCURVE",
"45 132 OFFCURVE",
"45 107 CURVE SMOOTH",
"45 39 OFFCURVE",
"79 -5 OFFCURVE",
"157 -5 CURVE SMOOTH",
"239 -5 OFFCURVE",
"317 61 OFFCURVE",
"368 174 CURVE",
"363 154 OFFCURVE",
"353 114 OFFCURVE",
"353 77 CURVE SMOOTH",
"353 37 OFFCURVE",
"364 0 OFFCURVE",
"402 -9 CURVE SMOOTH",
"408 -11 OFFCURVE",
"417 -12 OFFCURVE",
"427 -12 CURVE SMOOTH"
);
}
);
};
layerId = "C623C401-2266-4A98-B253-3D45160C29C7";
paths = (
{
closed = 1;
nodes = (
"374 188 LINE",
"369 167 OFFCURVE",
"353 111 OFFCURVE",
"353 77 CURVE SMOOTH",
"353 16 OFFCURVE",
"377 -11 OFFCURVE",
"427 -11 CURVE SMOOTH",
"449 -11 OFFCURVE",
"467 -6 OFFCURVE",
"473 9 CURVE",
"457 21 OFFCURVE",
"454 39 OFFCURVE",
"454 62 CURVE SMOOTH",
"454 107 OFFCURVE",
"478 177 OFFCURVE",
"490 207 CURVE SMOOTH",
"537 332 OFFCURVE",
"600 404 OFFCURVE",
"600 427 CURVE SMOOTH",
"600 450 OFFCURVE",
"569 463 OFFCURVE",
"480 478 CURVE",
"386 283 OFFCURVE",
"291 45 OFFCURVE",
"207 43 CURVE SMOOTH",
"185 43 OFFCURVE",
"171 60 OFFCURVE",
"171 93 CURVE SMOOTH",
"171 176 OFFCURVE",
"218 292 OFFCURVE",
"299 407 CURVE SMOOTH",
"360 492 OFFCURVE",
"424 546 OFFCURVE",
"493 546 CURVE SMOOTH",
"526 546 OFFCURVE",
"549 536 OFFCURVE",
"564 522 CURVE SMOOTH",
"574 512 OFFCURVE",
"577 507 OFFCURVE",
"584 507 CURVE SMOOTH",
"592 507 OFFCURVE",
"597 519 OFFCURVE",
"597 534 CURVE SMOOTH",
"597 572 OFFCURVE",
"553 607 OFFCURVE",
"482 607 CURVE SMOOTH",
"395 607 OFFCURVE",
"320 574 OFFCURVE",
"252 516 CURVE SMOOTH",
"126 408 OFFCURVE",
"45 211 OFFCURVE",
"45 107 CURVE SMOOTH",
"45 32 OFFCURVE",
"85 -12 OFFCURVE",
"161 -12 CURVE SMOOTH",
"234 -12 OFFCURVE",
"317 55 OFFCURVE",
"373 188 CURVE"
);
}
);
width = 540;
}
);
note = A;
unicode = 0041;
},
{
glyphname = AE;
lastChange = "2022-06-15 18:43:09 +0000";
layers = (
{
anchors = (
{
name = top;
position = "{632, 600}";
}
);
background = {
components = (
{
name = E.ss02;
transform = "{1, 0, 0, 1, 279, 14}";
}
);
paths = (
{
closed = 1;
nodes = (
"195 231 OFFCURVE",
"338 231 CURVE SMOOTH",
"388 231 OFFCURVE",
"441 228 OFFCURVE",
"480 226 CURVE SMOOTH",
"501 225 OFFCURVE",
"511 222 OFFCURVE",
"515 220 CURVE SMOOTH",
"517 219 OFFCURVE",
"518 218 OFFCURVE",
"520 218 CURVE SMOOTH",
"523 218 OFFCURVE",
"526 224 OFFCURVE",
"526 238 CURVE SMOOTH",
"526 249 OFFCURVE",
"511 256 OFFCURVE",
"482 263 CURVE SMOOTH",
"409 279 OFFCURVE",
"309 285 OFFCURVE",
"192 285 CURVE SMOOTH",
"119 285 OFFCURVE",
"73 274 OFFCURVE",
"51 243 CURVE SMOOTH",
"42 230 OFFCURVE",
"41 224 OFFCURVE",
"41 217 CURVE SMOOTH",
"41 212 OFFCURVE",
"44 208 OFFCURVE",
"48 208 CURVE SMOOTH",
"64 208 OFFCURVE"
);
},
{
closed = 1;
nodes = (
"570 525 OFFCURVE",
"632 587 CURVE SMOOTH",
"635 590 OFFCURVE",
"636 592 OFFCURVE",
"636 594 CURVE SMOOTH",
"636 602 OFFCURVE",
"618 606 OFFCURVE",
"596 606 CURVE SMOOTH",
"540 606 OFFCURVE",
"515 586 OFFCURVE",
"487 556 CURVE SMOOTH",
"381 443 LINE SMOOTH",
"340 399 OFFCURVE",
"258 321 OFFCURVE",
"181 234 CURVE SMOOTH",
"135 182 OFFCURVE",
"68 116 OFFCURVE",
"21 74 CURVE SMOOTH",
"-5 52 OFFCURVE",
"-21 40 OFFCURVE",
"-34 32 CURVE SMOOTH",
"-39 29 OFFCURVE",
"-40 27 OFFCURVE",
"-40 24 CURVE SMOOTH",
"-40 10 OFFCURVE",
"11 -5 OFFCURVE",
"53 -5 CURVE SMOOTH",
"107 -5 OFFCURVE",
"137 29 OFFCURVE",
"175 80 CURVE SMOOTH",
"228 152 OFFCURVE",
"404 417 OFFCURVE",
"447 476 CURVE",
"448 476 LINE",
"407 372 OFFCURVE",
"351 200 OFFCURVE",
"351 93 CURVE SMOOTH",
"351 38 OFFCURVE",
"361 5 OFFCURVE",
"399 -6 CURVE SMOOTH",
"420 -12 OFFCURVE",
"432 -13 OFFCURVE",
"444 -13 CURVE SMOOTH",
"450 -13 OFFCURVE",
"453 -12 OFFCURVE",
"453 -10 CURVE SMOOTH",
"453 -8 OFFCURVE",
"451 -7 OFFCURVE",
"449 -4 CURVE SMOOTH",
"444 3 OFFCURVE",
"442 14 OFFCURVE",
"442 27 CURVE SMOOTH",
"442 136 OFFCURVE"
);
}
);
};
layerId = "C623C401-2266-4A98-B253-3D45160C29C7";
paths = (
{
closed = 1;
nodes = (
"607 529 LINE",
"632 533 OFFCURVE",
"664 535 OFFCURVE",
"702 535 CURVE SMOOTH",
"732 535 OFFCURVE",
"757 531 OFFCURVE",
"770 522 CURVE SMOOTH",
"777 517 OFFCURVE",
"778 515 OFFCURVE",
"781 515 CURVE SMOOTH",
"785 515 OFFCURVE",
"788 526 OFFCURVE",
"788 540 CURVE SMOOTH",
"788 593 OFFCURVE",
"754 619 OFFCURVE",
"637 621 CURVE SMOOTH",
"534 623 OFFCURVE",
"520 611 OFFCURVE",
"499 564 CURVE",
"325 385 OFFCURVE",
"81 127 OFFCURVE",
"21 74 CURVE SMOOTH",
"-5 52 OFFCURVE",
"-21 40 OFFCURVE",
"-34 32 CURVE SMOOTH",
"-39 29 OFFCURVE",
"-40 27 OFFCURVE",
"-40 24 CURVE SMOOTH",
"-40 10 OFFCURVE",
"11 -5 OFFCURVE",
"53 -5 CURVE SMOOTH",
"107 -5 OFFCURVE",
"136 30 OFFCURVE",
"175 80 CURVE SMOOTH",
"208 121 OFFCURVE",
"266 211 OFFCURVE",
"319 285 CURVE SMOOTH",
"390 385 OFFCURVE",
"443 452 OFFCURVE",
"488 505 CURVE",
"489 505 LINE",
"478 480 OFFCURVE",
"429 372 OFFCURVE",
"381 263 CURVE SMOOTH",
"345 182 OFFCURVE",
"315 104 OFFCURVE",
"315 71 CURVE SMOOTH",
"315 34 OFFCURVE",
"345 -5 OFFCURVE",
"394 -5 CURVE SMOOTH",
"416 -5 OFFCURVE",
"460 6 OFFCURVE",
"510 12 CURVE SMOOTH",
"550 17 OFFCURVE",
"589 23 OFFCURVE",
"623 22 CURVE SMOOTH",
"642 22 OFFCURVE",
"658 20 OFFCURVE",
"667 15 CURVE SMOOTH",
"674 11 OFFCURVE",
"674 8 OFFCURVE",
"677 8 CURVE SMOOTH",
"682 8 OFFCURVE",
"685 28 OFFCURVE",
"685 49 CURVE SMOOTH",
"685 61 OFFCURVE",
"679 72 OFFCURVE",
"669 79 CURVE SMOOTH",
"649 93 OFFCURVE",
"609 99 OFFCURVE",
"551 99 CURVE SMOOTH",
"493 99 OFFCURVE",
"435 92 OFFCURVE",
"377 82 CURVE",
"407 48 LINE",
"418 83 OFFCURVE",
"451 167 OFFCURVE",
"491 259 CURVE SMOOTH",
"541 373 OFFCURVE",
"601 499 OFFCURVE",
"642 560 CURVE"
);
},
{
closed = 1;
nodes = (
"89 212 OFFCURVE",
"176 223 OFFCURVE",
"264 229 CURVE SMOOTH",
"363 234 OFFCURVE",
"465 234 OFFCURVE",
"490 234 CURVE SMOOTH",
"565 234 OFFCURVE",
"649 230 OFFCURVE",
"686 220 CURVE SMOOTH",
"692 218 OFFCURVE",
"694 215 OFFCURVE",
"696 215 CURVE SMOOTH",
"697 215 OFFCURVE",
"698 216 OFFCURVE",
"699 218 CURVE SMOOTH",
"701 223 OFFCURVE",
"702 231 OFFCURVE",
"702 239 CURVE SMOOTH",
"702 253 OFFCURVE",
"684 266 OFFCURVE",
"637 274 CURVE SMOOTH",
"586 283 OFFCURVE",
"480 289 OFFCURVE",
"374 289 CURVE SMOOTH",
"283 289 OFFCURVE",
"203 286 OFFCURVE",
"146 283 CURVE SMOOTH",
"100 280 OFFCURVE",
"64 264 OFFCURVE",
"49 241 CURVE SMOOTH",
"45 234 OFFCURVE",
"42 227 OFFCURVE",
"42 220 CURVE SMOOTH",
"42 214 OFFCURVE",
"45 209 OFFCURVE",
"58 210 CURVE SMOOTH"
);
}
);
width = 703;
}
);
unicode = 00C6;
},
{
glyphname = B;
lastChange = "2022-06-02 01:38:06 +0000";
layers = (
{
background = {
paths = (
{
closed = 1;
nodes = (
"357 -20 OFFCURVE",
"398 -13 OFFCURVE",
"433 0 CURVE SMOOTH",
"504 27 OFFCURVE",
"536 82 OFFCURVE",
"544 147 CURVE SMOOTH",
"551 212 OFFCURVE",
"504 277 OFFCURVE",
"428 294 CURVE",
"540 299 OFFCURVE",
"624 391 OFFCURVE",
"627 475 CURVE SMOOTH",
"629 537 OFFCURVE",
"588 595 OFFCURVE",
"482 612 CURVE SMOOTH",
"466 615 OFFCURVE",
"446 616 OFFCURVE",
"423 616 CURVE SMOOTH",
"291 616 OFFCURVE",
"79 566 OFFCURVE",
"85 449 CURVE SMOOTH",
"88 414 OFFCURVE",
"136 409 OFFCURVE",
"146 406 CURVE",
"156 458 OFFCURVE",
"212 518 OFFCURVE",
"288 553 CURVE SMOOTH",
"322 569 OFFCURVE",
"374 584 OFFCURVE",
"418 584 CURVE SMOOTH",
"470 584 OFFCURVE",
"513 563 OFFCURVE",
"511 499 CURVE SMOOTH",
"508 407 OFFCURVE",
"423 292 OFFCURVE",
"359 292 CURVE SMOOTH",
"352 292 OFFCURVE",
"348 287 OFFCURVE",
"347 281 CURVE SMOOTH",
"347 276 OFFCURVE",
"350 271 OFFCURVE",
"357 267 CURVE SMOOTH",
"398 242 OFFCURVE",
"416 171 OFFCURVE",
"414 123 CURVE",
"409 103 OFFCURVE",
"408 94 OFFCURVE",
"406 87 CURVE SMOOTH",
"393 39 OFFCURVE",
"344 13 OFFCURVE",
"293 13 CURVE SMOOTH",
"284 13 OFFCURVE",
"275 13 OFFCURVE",
"266 15 CURVE SMOOTH",
"242 19 OFFCURVE",
"235 31 OFFCURVE",
"235 46 CURVE SMOOTH",
"235 50 OFFCURVE",
"237 55 OFFCURVE",
"238 59 CURVE SMOOTH",
"252 113 OFFCURVE",
"296 220 OFFCURVE",
"344 313 CURVE SMOOTH",
"374 372 OFFCURVE",
"427 477 OFFCURVE",
"472 526 CURVE SMOOTH",
"478 533 OFFCURVE",
"461 538 OFFCURVE",
"415 538 CURVE SMOOTH",
"373 538 OFFCURVE",
"334 525 OFFCURVE",
"308 486 CURVE SMOOTH",
"250 398 OFFCURVE",
"146 184 OFFCURVE",
"142 81 CURVE SMOOTH",
"141 52 OFFCURVE",
"145 30 OFFCURVE",
"159 20 CURVE SMOOTH",
"201 -7 OFFCURVE",
"259 -20 OFFCURVE",
"316 -20 CURVE SMOOTH"
);
}
);
};
layerId = "C623C401-2266-4A98-B253-3D45160C29C7";
paths = (
{
closed = 1;
nodes = (
"421 294 LINE",
"535 296 OFFCURVE",
"627 388 OFFCURVE",
"627 481 CURVE SMOOTH",
"627 559 OFFCURVE",
"555 616 OFFCURVE",
"429 616 CURVE SMOOTH",
"239 616 OFFCURVE",
"85 545 OFFCURVE",
"85 455 CURVE SMOOTH",
"85 422 OFFCURVE",
"112 412 OFFCURVE",
"147 407 CURVE",
"168 503 OFFCURVE",
"303 584 OFFCURVE",
"422 584 CURVE SMOOTH",
"479 584 OFFCURVE",
"511 555 OFFCURVE",
"511 502 CURVE SMOOTH",
"511 408 OFFCURVE",
"430 304 OFFCURVE",
"358 292 CURVE SMOOTH",
"350 291 OFFCURVE",
"347 287 OFFCURVE",
"347 281 CURVE SMOOTH",
"347 276 OFFCURVE",
"349 273 OFFCURVE",
"356 268 CURVE SMOOTH",
"399 240 OFFCURVE",
"414 174 OFFCURVE",
"414 136 CURVE SMOOTH",
"414 51 OFFCURVE",
"358 13 OFFCURVE",
"293 13 CURVE SMOOTH",
"254 13 OFFCURVE",
"236 21 OFFCURVE",
"236 43 CURVE SMOOTH",
"236 74 OFFCURVE",
"280 181 OFFCURVE",
"332 288 CURVE SMOOTH",
"377 382 OFFCURVE",
"430 476 OFFCURVE",
"465 520 CURVE SMOOTH",
"468 524 OFFCURVE",
"471 527 OFFCURVE",
"471 529 CURVE SMOOTH",
"471 531 OFFCURVE",
"469 533 OFFCURVE",
"458 535 CURVE SMOOTH",
"447 537 OFFCURVE",
"429 538 OFFCURVE",
"415 538 CURVE SMOOTH",
"367 538 OFFCURVE",
"327 522 OFFCURVE",
"295 466 CURVE SMOOTH",
"269 420 OFFCURVE",
"240 366 OFFCURVE",
"214 311 CURVE SMOOTH",
"175 226 OFFCURVE",
"144 139 OFFCURVE",
"142 75 CURVE SMOOTH",
"141 51 OFFCURVE",
"145 30 OFFCURVE",
"161 19 CURVE SMOOTH",
"200 -7 OFFCURVE",
"259 -20 OFFCURVE",
"316 -20 CURVE SMOOTH",
"440 -20 OFFCURVE",
"545 40 OFFCURVE",
"545 157 CURVE SMOOTH",
"545 230 OFFCURVE",
"495 273 OFFCURVE",
"421 293 CURVE"
);
}
);
width = 572;
}
);
note = B;
unicode = 0042;
},
{
glyphname = C;
lastChange = "2022-06-03 20:37:07 +0000";
layers = (
{
anchors = (
{
name = bottom;
position = "{167, -8}";
},
{
name = top;
position = "{418, 601}";
}
);
background = {
anchors = (
{
name = bottom;
position = "{231, 0}";
},
{
name = top;
position = "{231, 633}";
}
);
paths = (
{
closed = 1;
nodes = (
"196 -6 OFFCURVE",
"222 -3 OFFCURVE",
"252 5 CURVE SMOOTH",
"325 23 OFFCURVE",
"404 83 OFFCURVE",
"447 154 CURVE SMOOTH",
"467 188 OFFCURVE",
"474 208 OFFCURVE",
"474 221 CURVE SMOOTH",
"474 245 OFFCURVE",
"449 241 OFFCURVE",
"440 242 CURVE",
"400 165 OFFCURVE",
"316 40 OFFCURVE",
"241 40 CURVE SMOOTH",
"205 40 OFFCURVE",
"192 67 OFFCURVE",
"192 107 CURVE SMOOTH",
"192 159 OFFCURVE",
"215 232 OFFCURVE",
"241 292 CURVE SMOOTH",
"258 329 OFFCURVE",
"301 411 OFFCURVE",
"349 475 CURVE SMOOTH",
"392 534 OFFCURVE",
"423 556 OFFCURVE",
"442 556 CURVE SMOOTH",
"454 556 OFFCURVE",
"461 546 OFFCURVE",
"461 528 CURVE SMOOTH",
"461 511 OFFCURVE",
"455 488 OFFCURVE",
"443 463 CURVE SMOOTH",
"418 408 OFFCURVE",
"366 343 OFFCURVE",
"350 328 CURVE SMOOTH",
"344 322 OFFCURVE",
"338 316 OFFCURVE",
"338 312 CURVE SMOOTH",
"338 310 OFFCURVE",
"340 308 OFFCURVE",
"345 308 CURVE SMOOTH",
"348 308 OFFCURVE",
"351 308 OFFCURVE",
"355 309 CURVE SMOOTH",
"442 326 OFFCURVE",
"517 431 OFFCURVE",
"517 510 CURVE SMOOTH",
"517 560 OFFCURVE",
"487 600 OFFCURVE",
"410 600 CURVE SMOOTH",
"367 600 OFFCURVE",
"317 582 OFFCURVE",
"277 547 CURVE SMOOTH",
"189 472 OFFCURVE",
"100 297 OFFCURVE",
"71 194 CURVE SMOOTH",
"62 163 OFFCURVE",
"58 134 OFFCURVE",
"58 109 CURVE SMOOTH",
"58 39 OFFCURVE",
"93 -6 OFFCURVE",
"173 -6 CURVE SMOOTH"
);
}
);
};
guideLines = (
{
position = "{137, 602}";
},
{
position = "{137, -20}";
}
);
layerId = "C623C401-2266-4A98-B253-3D45160C29C7";
paths = (
{
closed = 1;
nodes = (
"244 -20 OFFCURVE",
"300 6 OFFCURVE",
"346 40 CURVE SMOOTH",
"425 100 OFFCURVE",
"476 185 OFFCURVE",
"476 214 CURVE SMOOTH",
"476 228 OFFCURVE",
"463 239 OFFCURVE",
"438 239 CURVE",
"368 101 OFFCURVE",
"292 25 OFFCURVE",
"237 25 CURVE SMOOTH",
"205 25 OFFCURVE",
"185 51 OFFCURVE",
"187 95 CURVE SMOOTH",
"190 192 OFFCURVE",
"251 347 OFFCURVE",
"347 476 CURVE SMOOTH",
"383 526 OFFCURVE",
"419 557 OFFCURVE",
"440 557 CURVE SMOOTH",
"453 557 OFFCURVE",
"459 546 OFFCURVE",
"459 529 CURVE SMOOTH",
"459 470 OFFCURVE",
"386 367 OFFCURVE",
"344 325 CURVE SMOOTH",
"339 320 OFFCURVE",
"336 316 OFFCURVE",
"336 313 CURVE SMOOTH",
"336 311 OFFCURVE",
"338 309 OFFCURVE",
"343 309 CURVE SMOOTH",
"413 309 OFFCURVE",
"515 414 OFFCURVE",
"515 511 CURVE SMOOTH",
"515 568 OFFCURVE",
"477 601 OFFCURVE",
"408 601 CURVE",
"364 601 OFFCURVE",
"313 580 OFFCURVE",
"275 548 CURVE SMOOTH",
"170 457 OFFCURVE",
"60 252 OFFCURVE",
"60 108 CURVE SMOOTH",
"60 36 OFFCURVE",
"98 -20 OFFCURVE",
"183 -20 CURVE SMOOTH"
);
}
);
width = 465;
}
);
note = C;
unicode = 0043;
},
{
glyphname = D;
lastChange = "2022-06-22 23:08:20 +0000";
layers = (
{
anchors = (
{
name = bottom;
position = "{276, 0}";
},
{
name = center;
position = "{251, 321}";
},
{
name = top;
position = "{503, 630}";
}
);
background = {
anchors = (
{
name = bottom;
position = "{276, 0}";
},
{
name = center;
position = "{251, 321}";
},
{
name = top;
position = "{503, 630}";
}
);
paths = (
{
closed = 1;
nodes = (
"325 -8 OFFCURVE",
"420 65 OFFCURVE",
"489 158 CURVE SMOOTH",
"544 232 OFFCURVE",
"624 382 OFFCURVE",
"624 493 CURVE SMOOTH",
"624 570 OFFCURVE",
"582 630 OFFCURVE",
"468 631 CURVE SMOOTH",
"406 631 OFFCURVE",
"343 618 OFFCURVE",
"290 596 CURVE SMOOTH",
"177 548 OFFCURVE",
"116 485 OFFCURVE",
"108 475 CURVE SMOOTH",
"79 438 OFFCURVE",
"70 417 OFFCURVE",
"70 405 CURVE SMOOTH",
"70 384 OFFCURVE",
"95 388 OFFCURVE",
"103 387 CURVE",
"145 454 OFFCURVE",
"246 529 OFFCURVE",
"334 570 CURVE SMOOTH",
"375 589 OFFCURVE",
"408 598 OFFCURVE",
"433 598 CURVE SMOOTH",
"487 598 OFFCURVE",
"507 558 OFFCURVE",
"507 502 CURVE SMOOTH",
"507 403 OFFCURVE",
"426 224 OFFCURVE",
"386 159 CURVE SMOOTH",
"347 94 OFFCURVE",
"281 24 OFFCURVE",
"222 24 CURVE SMOOTH",
"218 24 OFFCURVE",
"214 24 OFFCURVE",
"210 25 CURVE",
"201 70 OFFCURVE",
"264 223 OFFCURVE",
"320 333 CURVE SMOOTH",
"351 393 OFFCURVE",
"401 486 OFFCURVE",
"444 535 CURVE SMOOTH",
"450 542 OFFCURVE",
"423 547 OFFCURVE",
"377 547 CURVE SMOOTH",
"335 547 OFFCURVE",
"302 533 OFFCURVE",
"276 495 CURVE SMOOTH",
"226 419 OFFCURVE",
"123 207 OFFCURVE",
"108 83 CURVE SMOOTH",
"102 33 OFFCURVE",
"124 36 OFFCURVE",
"157 20 CURVE",
"169 16 LINE",
"191 0 OFFCURVE",
"216 -8 OFFCURVE",
"243 -8 CURVE SMOOTH"
);
}
);
};
layerId = "C623C401-2266-4A98-B253-3D45160C29C7";
paths = (
{
closed = 1;
nodes = (
"214 136 OFFCURVE",
"386 447 OFFCURVE",
"449 527 CURVE SMOOTH",
"452 531 OFFCURVE",
"453 533 OFFCURVE",
"453 535 CURVE SMOOTH",
"453 537 OFFCURVE",
"451 539 OFFCURVE",
"440 541 CURVE SMOOTH",
"429 543 OFFCURVE",
"411 544 OFFCURVE",
"397 544 CURVE SMOOTH",
"334 544 OFFCURVE",
"302 527 OFFCURVE",
"271 473 CURVE SMOOTH",
"200 349 OFFCURVE",
"108 148 OFFCURVE",
"108 50 CURVE SMOOTH",
"108 28 OFFCURVE",
"113 19 OFFCURVE",
"156 4 CURVE SMOOTH",
"172 -3 OFFCURVE",
"190 -10 OFFCURVE",
"199 -15 CURVE SMOOTH",
"216 -24 OFFCURVE",
"227 -27 OFFCURVE",
"242 -27 CURVE SMOOTH",
"335 -27 OFFCURVE",
"431 48 OFFCURVE",
"502 144 CURVE SMOOTH",
"558 220 OFFCURVE",
"641 374 OFFCURVE",
"641 489 CURVE SMOOTH",
"641 568 OFFCURVE",
"598 630 OFFCURVE",
"480 631 CURVE SMOOTH",
"416 631 OFFCURVE",
"358 622 OFFCURVE",
"267 582 CURVE SMOOTH",
"156 532 OFFCURVE",
"70 447 OFFCURVE",
"70 404 CURVE SMOOTH",
"70 392 OFFCURVE",
"84 384 OFFCURVE",
"103 384 CURVE",
"164 462 OFFCURVE",
"253 526 OFFCURVE",
"342 568 CURVE SMOOTH",
"384 588 OFFCURVE",
"418 597 OFFCURVE",
"444 597 CURVE SMOOTH",
"500 597 OFFCURVE",
"520 556 OFFCURVE",
"520 498 CURVE SMOOTH",
"520 396 OFFCURVE",
"437 212 OFFCURVE",
"396 145 CURVE SMOOTH",
"355 78 OFFCURVE",
"287 6 OFFCURVE",
"227 6 CURVE SMOOTH",
"222 6 OFFCURVE",
"217 7 OFFCURVE",
"213 8 CURVE"
);
}
);
width = 591;
}
);
note = D;
unicode = 0044;
},
{
glyphname = Eth;
lastChange = "2022-06-22 23:08:20 +0000";
layers = (
{
anchors = (
{
name = _center;
position = "{251, 321}";
}
);
background = {
paths = (
{
closed = 1;
nodes = (
"168 222 OFFCURVE",
"268 222 OFFCURVE",
"346 222 CURVE SMOOTH",
"350 222 OFFCURVE",
"353 223 OFFCURVE",
"355 226 CURVE SMOOTH",
"363 233 OFFCURVE",
"383 263 OFFCURVE",
"383 275 CURVE SMOOTH",
"383 280 OFFCURVE",
"380 282 OFFCURVE",
"374 282 CURVE SMOOTH",
"301 282 OFFCURVE",
"208 282 OFFCURVE",
"135 282 CURVE SMOOTH",
"120 282 OFFCURVE",
"118 281 OFFCURVE",
"109 272 CURVE SMOOTH",
"98 260 OFFCURVE",
"84 236 OFFCURVE",
"84 226 CURVE SMOOTH",
"84 223 OFFCURVE",
"87 222 OFFCURVE",
"89 222 CURVE SMOOTH"
);
}
);
};
components = (
{
name = D;
}
);
layerId = "C623C401-2266-4A98-B253-3D45160C29C7";
paths = (
{
closed = 1;
nodes = (
"304 282 OFFCURVE",
"208 282 OFFCURVE",
"135 282 CURVE SMOOTH",
"120 282 OFFCURVE",
"118 281 OFFCURVE",
"109 272 CURVE SMOOTH",
"98 260 OFFCURVE",
"89 244 OFFCURVE",
"89 236 CURVE SMOOTH",
"89 233 OFFCURVE",
"92 232 OFFCURVE",
"94 232 CURVE SMOOTH",
"173 232 OFFCURVE",
"258 232 OFFCURVE",
"336 232 CURVE SMOOTH",
"351 232 OFFCURVE",
"353 233 OFFCURVE",
"362 242 CURVE SMOOTH",
"373 254 OFFCURVE",
"382 270 OFFCURVE",
"382 278 CURVE SMOOTH",
"382 281 OFFCURVE",
"379 282 OFFCURVE",
"377 282 CURVE SMOOTH"
);
}
);
width = 591;
}
);
note = Eth;
unicode = 00D0;
},
{
glyphname = Dzcaron;
lastChange = "2022-06-22 23:08:20 +0000";
layers = (
{
anchors = (
{
name = bottom;
position = "{729, 0}";
},
{
name = center;
position = "{784, 213}";
},
{
name = top;
position = "{853, 414}";
}
);
background = {
components = (
{
alignment = -1;
name = z;
transform = "{1, 0, 0, 1, 552, 0}";
}
);
};
components = (
{
name = D;
},
{
alignment = -1;
name = caroncomb;
transform = "{1, 0, 0, 1, 770, -11}";
}
);
layerId = "C623C401-2266-4A98-B253-3D45160C29C7";
paths = (
{
closed = 1;
nodes = (
"853 303 LINE",
"751 227 OFFCURVE",
"635 115 OFFCURVE",
"580 33 CURVE SMOOTH",
"572 20 OFFCURVE",
"567 8 OFFCURVE",
"567 2 CURVE SMOOTH",
"567 -6 OFFCURVE",
"575 -14 OFFCURVE",
"583 -14 CURVE SMOOTH",
"588 -14 OFFCURVE",
"591 -11 OFFCURVE",
"595 -2 CURVE SMOOTH",
"605 18 OFFCURVE",
"615 35 OFFCURVE",
"634 35 CURVE SMOOTH",
"658 35 OFFCURVE",
"680 24 OFFCURVE",
"708 15 CURVE SMOOTH",
"736 5 OFFCURVE",
"768 -4 OFFCURVE",
"801 -4 CURVE SMOOTH",
"837 -4 OFFCURVE",
"863 5 OFFCURVE",
"886 28 CURVE SMOOTH",
"921 63 OFFCURVE",
"969 154 OFFCURVE",
"991 201 CURVE SMOOTH",
"993 205 OFFCURVE",
"994 208 OFFCURVE",
"994 211 CURVE SMOOTH",
"994 217 OFFCURVE",
"987 227 OFFCURVE",
"980 227 CURVE SMOOTH",
"976 227 OFFCURVE",
"973 224 OFFCURVE",
"971 220 CURVE SMOOTH",
"961 201 OFFCURVE",
"942 162 OFFCURVE",
"920 133 CURVE SMOOTH",
"897 104 OFFCURVE",
"879 92 OFFCURVE",
"854 92 CURVE SMOOTH",
"812 92 OFFCURVE",
"753 108 OFFCURVE",
"725 130 CURVE",
"876 239 OFFCURVE",
"974 328 OFFCURVE",
"974 434 CURVE SMOOTH",
"974 440 OFFCURVE",
"970 444 OFFCURVE",
"961 444 CURVE SMOOTH",
"953 444 OFFCURVE",
"949 441 OFFCURVE",
"948 434 CURVE SMOOTH",
"943 404 OFFCURVE",
"919 396 OFFCURVE",
"888 396 CURVE SMOOTH",
"840 397 OFFCURVE",
"807 422 OFFCURVE",
"773 422 CURVE SMOOTH",
"746 422 OFFCURVE",
"722 409 OFFCURVE",
"694 366 CURVE SMOOTH",
"678 341 OFFCURVE",
"666 322 OFFCURVE",
"666 304 CURVE SMOOTH",
"666 296 OFFCURVE",
"669 291 OFFCURVE",
"673 291 CURVE SMOOTH",
"676 291 OFFCURVE",
"679 293 OFFCURVE",
"682 298 CURVE SMOOTH",
"690 312 OFFCURVE",
"700 319 OFFCURVE",
"717 319 CURVE SMOOTH",
"745 319 OFFCURVE",
"785 302 OFFCURVE",
"824 302 CURVE SMOOTH",
"834 302 OFFCURVE",
"844 303 OFFCURVE",
"852 305 CURVE"
);
}
);
width = 904;
}
);
unicode = 01C5;
},
{
glyphname = E;
lastChange = "2022-06-22 23:08:20 +0000";
layers = (
{
anchors = (
{
name = bottom;
position = "{146, 5}";
},
{
name = ogonek;
position = "{349, 71}";
},
{
name = top;
position = "{370, 600}";
},
{
name = topleft;
position = "{31, 600}";
}
);
background = {
anchors = (
{
name = bottom;
position = "{226, 0}";
},
{
name = ogonek;
position = "{398, 10}";
},
{
name = top;
position = "{226, 633}";
},
{
name = topleft;
position = "{31, 633}";
}
);
paths = (
{
closed = 1;
nodes = (
"235 -1 OFFCURVE",
"374 68 OFFCURVE",
"433 160 CURVE SMOOTH",
"456 196 OFFCURVE",
"464 218 OFFCURVE",
"464 231 CURVE SMOOTH",
"464 257 OFFCURVE",
"435 252 OFFCURVE",
"425 254 CURVE",
"380 172 OFFCURVE",
"263 40 OFFCURVE",
"188 40 CURVE SMOOTH",
"155 40 OFFCURVE",
"140 59 OFFCURVE",
"140 87 CURVE SMOOTH",
"140 151 OFFCURVE",
"218 262 OFFCURVE",
"341 307 CURVE SMOOTH",
"351 311 OFFCURVE",
"355 319 OFFCURVE",
"355 328 CURVE SMOOTH",
"355 350 OFFCURVE",
"328 382 OFFCURVE",
"304 383 CURVE",
"268 396 OFFCURVE",
"256 415 OFFCURVE",
"256 434 CURVE SMOOTH",
"256 468 OFFCURVE",
"294 505 OFFCURVE",
"318 517 CURVE SMOOTH",
"347 532 OFFCURVE",
"374 537 OFFCURVE",
"398 537 CURVE SMOOTH",
"405 537 OFFCURVE",
"411 537 OFFCURVE",
"417 536 CURVE",
"406 503 OFFCURVE",
"400 462 OFFCURVE",
"400 429 CURVE SMOOTH",
"400 394 OFFCURVE",
"408 368 OFFCURVE",
"428 375 CURVE",
"433 431 OFFCURVE",
"464 485 OFFCURVE",
"494 525 CURVE SMOOTH",
"509 544 OFFCURVE",
"528 564 OFFCURVE",
"556 586 CURVE SMOOTH",
"563 591 OFFCURVE",
"566 597 OFFCURVE",
"566 602 CURVE SMOOTH",
"566 617 OFFCURVE",
"546 629 OFFCURVE",
"520 629 CURVE SMOOTH",
"492 629 OFFCURVE",
"457 615 OFFCURVE",
"433 574 CURVE",
"415 590 OFFCURVE",
"385 606 OFFCURVE",
"340 606 CURVE SMOOTH",
"267 605 OFFCURVE",
"184 578 OFFCURVE",
"156 525 CURVE SMOOTH",
"147 509 OFFCURVE",
"143 494 OFFCURVE",
"143 480 CURVE SMOOTH",
"143 421 OFFCURVE",
"210 381 OFFCURVE",
"270 376 CURVE",
"107 326 OFFCURVE",
"30 208 OFFCURVE",
"30 115 CURVE SMOOTH",
"30 50 OFFCURVE",
"71 -1 OFFCURVE",
"148 -1 CURVE SMOOTH"
);
}
);
};
layerId = "C623C401-2266-4A98-B253-3D45160C29C7";
paths = (
{
closed = 1;
nodes = (
"272 375 LINE",
"111 325 OFFCURVE",
"30 207 OFFCURVE",
"30 115 CURVE SMOOTH",
"30 34 OFFCURVE",
"79 -15 OFFCURVE",
"151 -15 CURVE SMOOTH",
"197 -15 OFFCURVE",
"255 2 OFFCURVE",
"309 36 CURVE SMOOTH",
"385 84 OFFCURVE",
"464 172 OFFCURVE",
"464 226 CURVE SMOOTH",
"464 240 OFFCURVE",
"449 249 OFFCURVE",
"425 249 CURVE",
"380 167 OFFCURVE",
"259 25 OFFCURVE",
"184 25 CURVE SMOOTH",
"155 25 OFFCURVE",
"140 48 OFFCURVE",
"140 87 CURVE SMOOTH",
"140 151 OFFCURVE",
"219 266 OFFCURVE",
"336 305 CURVE SMOOTH",
"351 310 OFFCURVE",
"355 319 OFFCURVE",
"355 328 CURVE SMOOTH",
"355 350 OFFCURVE",
"331 378 OFFCURVE",
"308 383 CURVE SMOOTH",
"271 392 OFFCURVE",
"256 415 OFFCURVE",
"256 434 CURVE SMOOTH",
"256 481 OFFCURVE",
"322 537 OFFCURVE",
"398 537 CURVE SMOOTH",
"405 537 OFFCURVE",
"413 536 OFFCURVE",
"418 535 CURVE",
"407 510 OFFCURVE",
"400 462 OFFCURVE",
"400 429 CURVE SMOOTH",
"400 395 OFFCURVE",
"408 374 OFFCURVE",
"421 374 CURVE SMOOTH",
"423 374 OFFCURVE",
"425 374 OFFCURVE",
"428 375 CURVE",
"435 451 OFFCURVE",
"493 537 OFFCURVE",
"548 579 CURVE SMOOTH",
"561 590 OFFCURVE",
"566 596 OFFCURVE",
"566 602 CURVE SMOOTH",
"566 617 OFFCURVE",
"546 629 OFFCURVE",
"520 629 CURVE SMOOTH",
"492 629 OFFCURVE",
"457 615 OFFCURVE",
"433 574 CURVE",
"415 590 OFFCURVE",
"384 606 OFFCURVE",
"338 606 CURVE SMOOTH",
"240 605 OFFCURVE",
"143 556 OFFCURVE",
"143 480 CURVE SMOOTH",
"143 425 OFFCURVE",
"203 382 OFFCURVE",
"272 376 CURVE"
);
}
);
width = 451;
}
);
note = E;
unicode = 0045;
},
{
glyphname = Schwa;
lastChange = "2022-06-23 02:53:56 +0000";
layers = (
{
background = {
components = (
{
name = O.ss02;
transform = "{1, 0, 0, 1, -20, 0}";
}
);
paths = (
{
closed = 1;
nodes = (
"813 -6 OFFCURVE",
"934 174 OFFCURVE",
"984 322 CURVE SMOOTH",
"1000 367 OFFCURVE",
"1008 409 OFFCURVE",
"1008 447 CURVE SMOOTH",
"1008 547 OFFCURVE",
"949 613 OFFCURVE",
"810 613 CURVE SMOOTH",
"728 613 OFFCURVE",
"664 580 OFFCURVE",
"603 509 CURVE SMOOTH",
"547 448 OFFCURVE",
"503 357 OFFCURVE",
"477 308 CURVE SMOOTH",
"475 304 OFFCURVE",
"473 299 OFFCURVE",
"473 295 CURVE SMOOTH",
"473 287 OFFCURVE",
"479 280 OFFCURVE",
"485 280 CURVE SMOOTH",
"489 280 OFFCURVE",
"494 283 OFFCURVE",
"497 290 CURVE SMOOTH",
"584 459 OFFCURVE",
"679 559 OFFCURVE",
"796 559 CURVE SMOOTH",
"867 559 OFFCURVE",
"895 526 OFFCURVE",
"895 473 CURVE SMOOTH",
"895 440 OFFCURVE",
"884 399 OFFCURVE",
"867 354 CURVE",
"728 354 OFFCURVE",
"578 267 OFFCURVE",
"533 176 CURVE SMOOTH",
"516 141 OFFCURVE",
"508 111 OFFCURVE",
"508 87 CURVE SMOOTH",
"508 23 OFFCURVE",
"562 -6 OFFCURVE",
"630 -6 CURVE SMOOTH"
);
},
{
closed = 1;
nodes = (
"622 43 OFFCURVE",
"605 58 OFFCURVE",
"605 85 CURVE SMOOTH",
"605 91 OFFCURVE",
"606 97 OFFCURVE",
"607 103 CURVE SMOOTH",
"630 202 OFFCURVE",
"771 298 OFFCURVE",
"856 329 CURVE",
"841 288 LINE SMOOTH",
"824 242 OFFCURVE",
"796 174 OFFCURVE",
"752 114 CURVE SMOOTH",
"716 65 OFFCURVE",
"675 43 OFFCURVE",
"646 43 CURVE SMOOTH"
);
}
);
};
layerId = "C623C401-2266-4A98-B253-3D45160C29C7";
paths = (
{
closed = 1;
nodes = (
"412 370 LINE",
"237 374 OFFCURVE",
"50 237 OFFCURVE",
"50 93 CURVE SMOOTH",
"50 28 OFFCURVE",
"98 -19 OFFCURVE",
"177 -19 CURVE SMOOTH",
"360 -19 OFFCURVE",
"472 160 OFFCURVE",
"522 308 CURVE SMOOTH",
"538 353 OFFCURVE",
"543 395 OFFCURVE",
"543 433 CURVE SMOOTH",
"543 544 OFFCURVE",
"478 602 OFFCURVE",
"378 602 CURVE SMOOTH",
"212 602 OFFCURVE",
"113 418 OFFCURVE",
"85 354 CURVE SMOOTH",
"80 341 OFFCURVE",
"78 334 OFFCURVE",
"78 329 CURVE SMOOTH",
"78 322 OFFCURVE",
"82 316 OFFCURVE",
"88 316 CURVE SMOOTH",
"93 316 OFFCURVE",
"98 321 OFFCURVE",
"104 332 CURVE SMOOTH",
"192 483 OFFCURVE",
"282 553 OFFCURVE",
"362 553 CURVE SMOOTH",
"403 553 OFFCURVE",
"418 525 OFFCURVE",
"417 464 CURVE SMOOTH",
"416 375 OFFCURVE",
"333 175 OFFCURVE",
"275 97 CURVE SMOOTH",
"237 45 OFFCURVE",
"205 16 OFFCURVE",
"181 17 CURVE SMOOTH",
"162 17 OFFCURVE",
"142 32 OFFCURVE",
"142 72 CURVE SMOOTH",
"142 185 OFFCURVE",
"274 305 OFFCURVE",
"399 347 CURVE"
);
}
);
width = 503;
}
);
rightMetricsKey = O;
unicode = 018F;
},
{
glyphname = F;
lastChange = "2022-06-23 02:53:56 +0000";
layers = (
{
background = {
paths = (
{
closed = 1;
nodes = (
"331 -7 OFFCURVE",
"334 -6 OFFCURVE",
"334 -4 CURVE SMOOTH",
"334 -3 OFFCURVE",
"333 -2 OFFCURVE",
"332 0 CURVE",
"325 8 OFFCURVE",
"321 21 OFFCURVE",
"321 38 CURVE SMOOTH",
"321 83 OFFCURVE",
"346 154 OFFCURVE",
"389 236 CURVE",
"435 246 OFFCURVE",
"467 269 OFFCURVE",
"486 308 CURVE",
"484 306 OFFCURVE",
"476 301 OFFCURVE",
"442 300 CURVE",
"439 299 OFFCURVE",
"432 300 OFFCURVE",
"424 301 CURVE",
"463 367 OFFCURVE",
"511 438 OFFCURVE",
"566 510 CURVE SMOOTH",
"577 524 OFFCURVE",
"581 537 OFFCURVE",
"581 549 CURVE SMOOTH",
"581 556 OFFCURVE",
"580 562 OFFCURVE",
"578 568 CURVE SMOOTH",
"572 588 OFFCURVE",
"553 622 OFFCURVE",
"530 627 CURVE SMOOTH",
"457 641 OFFCURVE",
"265 499 OFFCURVE",
"194 499 CURVE SMOOTH",
"187 499 OFFCURVE",
"181 501 OFFCURVE",
"176 504 CURVE",
"174 506 OFFCURVE",
"170 505 OFFCURVE",
"170 509 CURVE SMOOTH",
"170 512 OFFCURVE",
"171 516 OFFCURVE",
"175 523 CURVE SMOOTH",
"177 527 OFFCURVE",
"172 529 OFFCURVE",
"165 529 CURVE SMOOTH",
"158 529 OFFCURVE",
"150 527 OFFCURVE",
"147 523 CURVE SMOOTH",
"120 484 OFFCURVE",
"100 438 OFFCURVE",
"100 408 CURVE SMOOTH",
"100 393 OFFCURVE",
"105 382 OFFCURVE",
"117 378 CURVE SMOOTH",
"127 374 OFFCURVE",
"137 373 OFFCURVE",
"147 373 CURVE SMOOTH",
"244 373 OFFCURVE",
"356 532 OFFCURVE",
"413 553 CURVE SMOOTH",
"422 556 OFFCURVE",
"426 553 OFFCURVE",
"426 547 CURVE SMOOTH",
"426 526 OFFCURVE",
"390 470 OFFCURVE",
"383 460 CURVE SMOOTH",
"355 416 OFFCURVE",
"330 367 OFFCURVE",
"308 319 CURVE",
"301 320 OFFCURVE",
"296 322 OFFCURVE",
"291 323 CURVE SMOOTH",
"279 326 OFFCURVE",
"269 327 OFFCURVE",
"260 327 CURVE SMOOTH",
"226 327 OFFCURVE",
"206 306 OFFCURVE",
"186 248 CURVE SMOOTH",
"183 239 OFFCURVE",
"232 236 OFFCURVE",
"273 234 CURVE",
"249 173 OFFCURVE",
"234 120 OFFCURVE",
"230 90 CURVE SMOOTH",
"229 82 OFFCURVE",
"228 74 OFFCURVE",
"228 66 CURVE SMOOTH",
"228 15 OFFCURVE",
"259 -7 OFFCURVE",
"324 -7 CURVE SMOOTH"
);
}
);
};
layerId = "C623C401-2266-4A98-B253-3D45160C29C7";
paths = (
{
closed = 1;
nodes = (
"331 -17 OFFCURVE",
"334 -16 OFFCURVE",
"334 -14 CURVE SMOOTH",
"334 -12 OFFCURVE",
"331 -9 OFFCURVE",
"327 -2 CURVE SMOOTH",
"324 3 OFFCURVE",
"321 15 OFFCURVE",
"321 26 CURVE SMOOTH",
"321 86 OFFCURVE",
"356 175 OFFCURVE",
"407 269 CURVE SMOOTH",
"462 371 OFFCURVE",
"524 453 OFFCURVE",
"548 486 CURVE SMOOTH",
"568 513 OFFCURVE",
"581 531 OFFCURVE",
"581 544 CURVE SMOOTH",
"581 577 OFFCURVE",
"555 628 OFFCURVE",
"520 628 CURVE SMOOTH",
"473 628 OFFCURVE",
"398 588 OFFCURVE",
"329 553 CURVE SMOOTH",
"274 524 OFFCURVE",
"223 499 OFFCURVE",
"195 499 CURVE SMOOTH",
"180 499 OFFCURVE",
"171 504 OFFCURVE",
"171 513 CURVE SMOOTH",
"171 520 OFFCURVE",
"177 528 OFFCURVE",
"177 533 CURVE SMOOTH",
"177 537 OFFCURVE",
"174 539 OFFCURVE",
"169 539 CURVE SMOOTH",
"162 539 OFFCURVE",
"153 533 OFFCURVE",
"136 507 CURVE SMOOTH",
"119 481 OFFCURVE",
"100 435 OFFCURVE",
"100 408 CURVE SMOOTH",
"100 382 OFFCURVE",
"112 373 OFFCURVE",
"146 373 CURVE SMOOTH",
"185 373 OFFCURVE",
"237 399 OFFCURVE",
"316 475 CURVE SMOOTH",
"361 518 OFFCURVE",
"402 554 OFFCURVE",
"419 554 CURVE SMOOTH",
"424 554 OFFCURVE",
"426 551 OFFCURVE",
"426 546 CURVE SMOOTH",
"426 523 OFFCURVE",
"398 471 OFFCURVE",
"368 418 CURVE SMOOTH",
"325 340 OFFCURVE",
"228 138 OFFCURVE",
"228 56 CURVE SMOOTH",
"228 5 OFFCURVE",
"259 -17 OFFCURVE",
"324 -17 CURVE SMOOTH"
);
},
{
closed = 1;
nodes = (
"440 233 OFFCURVE",
"485 262 OFFCURVE",
"506 306 CURVE",
"505 307 LINE",
"493 302 OFFCURVE",
"478 300 OFFCURVE",
"463 300 CURVE SMOOTH",
"403 300 OFFCURVE",
"297 327 OFFCURVE",
"260 327 CURVE SMOOTH",
"229 327 OFFCURVE",
"213 313 OFFCURVE",
"195 272 CURVE SMOOTH",
"192 265 OFFCURVE",
"187 252 OFFCURVE",
"187 248 CURVE SMOOTH",
"187 244 OFFCURVE",
"191 242 OFFCURVE",
"202 240 CURVE SMOOTH",
"234 234 OFFCURVE",
"309 234 OFFCURVE",
"375 233 CURVE SMOOTH"
);
}
);
width = 466;
}
);
note = F;
unicode = 0046;
},
{
glyphname = G;
lastChange = "2022-06-23 02:53:56 +0000";
layers = (
{
anchors = (
{
name = bottom;
position = "{166, 10}";
},
{
name = top;
position = "{418, 600}";
}
);
background = {
anchors = (
{
name = bottom;
position = "{245, 0}";
},
{
name = top;
position = "{245, 633}";
}
);
paths = (
{
closed = 1;
nodes = (
"264 -129 OFFCURVE",
"310 -99 OFFCURVE",
"350 -45 CURVE SMOOTH",
"372 -15 OFFCURVE",
"415 55 OFFCURVE",
"442 129 CURVE SMOOTH",
"485 243 OFFCURVE",
"525 301 OFFCURVE",
"538 307 CURVE",
"544 311 OFFCURVE",
"547 315 OFFCURVE",
"547 318 CURVE SMOOTH",
"547 321 OFFCURVE",
"544 323 OFFCURVE",
"539 323 CURVE SMOOTH",
"430 323 LINE SMOOTH",
"399 323 OFFCURVE",
"387 299 OFFCURVE",
"373 263 CURVE SMOOTH",
"341 189 LINE SMOOTH",
"306 111 OFFCURVE",
"260 42 OFFCURVE",
"213 42 CURVE SMOOTH",
"179 42 OFFCURVE",
"167 68 OFFCURVE",
"167 106 CURVE SMOOTH",
"167 156 OFFCURVE",
"189 226 OFFCURVE",
"214 284 CURVE SMOOTH",
"229 320 OFFCURVE",
"277 416 OFFCURVE",
"324 480 CURVE SMOOTH",
"369 540 OFFCURVE",
"408 564 OFFCURVE",
"433 564 CURVE SMOOTH",
"453 564 OFFCURVE",
"465 549 OFFCURVE",
"465 526 CURVE SMOOTH",
"465 483 OFFCURVE",
"420 405 OFFCURVE",
"396 373 CURVE SMOOTH",
"393 369 OFFCURVE",
"391 366 OFFCURVE",
"391 364 CURVE SMOOTH",
"391 361 OFFCURVE",
"394 359 OFFCURVE",
"400 359 CURVE SMOOTH",
"405 359 LINE SMOOTH",
"454 365 OFFCURVE",
"527 440 OFFCURVE",
"527 497 CURVE SMOOTH",
"527 552 OFFCURVE",
"484 605 OFFCURVE",
"386 605 CURVE SMOOTH",
"342 605 OFFCURVE",
"293 586 OFFCURVE",
"252 552 CURVE SMOOTH",
"213 518 OFFCURVE",
"149 436 OFFCURVE",
"104 332 CURVE SMOOTH",
"76 265 OFFCURVE",
"55 192 OFFCURVE",
"55 132 CURVE SMOOTH",
"55 56 OFFCURVE",
"87 0 OFFCURVE",
"175 0 CURVE SMOOTH",
"230 0 OFFCURVE",
"275 42 OFFCURVE",
"312 95 CURVE",
"301 62 OFFCURVE",
"291 36 OFFCURVE",
"286 24 CURVE SMOOTH",
"261 -35 OFFCURVE",
"247 -93 OFFCURVE",
"197 -93 CURVE SMOOTH",
"186 -93 OFFCURVE",
"173 -90 OFFCURVE",
"157 -83 CURVE SMOOTH",
"154 -82 OFFCURVE",
"151 -81 OFFCURVE",
"148 -81 CURVE SMOOTH",
"140 -81 OFFCURVE",
"136 -86 OFFCURVE",
"136 -92 CURVE SMOOTH",
"136 -96 OFFCURVE",
"138 -101 OFFCURVE",
"143 -105 CURVE SMOOTH",
"166 -124 OFFCURVE",
"192 -129 OFFCURVE",
"216 -129 CURVE SMOOTH"
);
}
);
};
layerId = "C623C401-2266-4A98-B253-3D45160C29C7";
paths = (
{
closed = 1;
nodes = (
"299 47 OFFCURVE",
"282 -2 OFFCURVE",
"260 -49 CURVE SMOOTH",
"241 -90 OFFCURVE",
"221 -103 OFFCURVE",
"198 -103 CURVE SMOOTH",
"173 -103 OFFCURVE",
"158 -91 OFFCURVE",
"147 -91 CURVE SMOOTH",
"141 -91 OFFCURVE",
"136 -95 OFFCURVE",
"136 -102 CURVE SMOOTH",
"136 -120 OFFCURVE",
"176 -139 OFFCURVE",
"213 -139 CURVE SMOOTH",
"262 -139 OFFCURVE",
"303 -117 OFFCURVE",
"350 -55 CURVE SMOOTH",
"382 -12 OFFCURVE",
"411 44 OFFCURVE",
"433 98 CURVE SMOOTH",
"489 236 OFFCURVE",
"508 266 OFFCURVE",
"532 292 CURVE SMOOTH",
"541 301 OFFCURVE",
"547 304 OFFCURVE",
"547 308 CURVE SMOOTH",
"547 311 OFFCURVE",
"545 313 OFFCURVE",
"538 313 CURVE SMOOTH",
"438 313 LINE SMOOTH",
"403 313 OFFCURVE",
"395 305 OFFCURVE",
"373 253 CURVE SMOOTH",
"302 89 OFFCURVE",
"250 32 OFFCURVE",
"211 32 CURVE SMOOTH",
"185 32 OFFCURVE",
"167 51 OFFCURVE",
"167 96 CURVE SMOOTH",
"167 183 OFFCURVE",
"232 351 OFFCURVE",
"326 484 CURVE SMOOTH",
"370 546 OFFCURVE",
"412 569 OFFCURVE",
"437 569 CURVE SMOOTH",
"457 569 OFFCURVE",
"474 554 OFFCURVE",
"474 531 CURVE SMOOTH",
"474 499 OFFCURVE",
"439 421 OFFCURVE",
"406 379 CURVE SMOOTH",
"403 375 OFFCURVE",
"400 372 OFFCURVE",
"400 369 CURVE SMOOTH",
"400 366 OFFCURVE",
"403 364 OFFCURVE",
"409 364 CURVE SMOOTH",
"459 364 OFFCURVE",
"542 447 OFFCURVE",
"542 505 CURVE SMOOTH",
"542 571 OFFCURVE",
"486 610 OFFCURVE",
"399 610 CURVE SMOOTH",
"354 610 OFFCURVE",
"292 586 OFFCURVE",
"255 553 CURVE SMOOTH",
"159 470 OFFCURVE",
"55 253 OFFCURVE",
"55 122 CURVE SMOOTH",
"55 35 OFFCURVE",
"97 -10 OFFCURVE",
"175 -10 CURVE SMOOTH",
"230 -10 OFFCURVE",
"275 32 OFFCURVE",
"312 85 CURVE"
);
}
);
width = 507;
}
);
note = G;
unicode = 0047;
},
{
glyphname = Gcommaaccent;
lastChange = "2022-09-20 20:28:11 +0000";
layers = (
{
anchors = (
{
name = bottom;
position = "{166, 10}";
},
{
name = top;
position = "{418, 600}";
}
);
background = {
components = (
{
name = G;
},
{
name = commaaccentcomb;
transform = "{1, 0, 0, 1, 5, 9}";
}
);
};
components = (
{
name = commaaccentcomb;
transform = "{1, 0, 0, 1, 70, 10}";
}
);
layerId = "C623C401-2266-4A98-B253-3D45160C29C7";
paths = (
{
closed = 1;
nodes = (
"237 -98 OFFCURVE",
"214 -119 CURVE SMOOTH",
"209 -123 OFFCURVE",
"208 -125 OFFCURVE",
"208 -127 CURVE SMOOTH",
"208 -134 OFFCURVE",
"218 -139 OFFCURVE",
"231 -139 CURVE SMOOTH",
"264 -139 OFFCURVE",
"297 -117 OFFCURVE",
"326 -84 CURVE SMOOTH",
"372 -31 OFFCURVE",
"412 46 OFFCURVE",
"433 98 CURVE SMOOTH",
"489 236 OFFCURVE",
"508 266 OFFCURVE",
"532 292 CURVE SMOOTH",
"541 301 OFFCURVE",
"547 304 OFFCURVE",
"547 308 CURVE SMOOTH",
"547 311 OFFCURVE",
"545 313 OFFCURVE",
"538 313 CURVE SMOOTH",
"438 313 LINE SMOOTH",
"403 313 OFFCURVE",
"395 305 OFFCURVE",
"373 253 CURVE SMOOTH",
"302 89 OFFCURVE",
"250 32 OFFCURVE",
"211 32 CURVE SMOOTH",
"185 32 OFFCURVE",
"167 51 OFFCURVE",
"167 96 CURVE SMOOTH",
"167 183 OFFCURVE",
"232 351 OFFCURVE",
"326 484 CURVE SMOOTH",
"370 546 OFFCURVE",
"412 569 OFFCURVE",
"437 569 CURVE SMOOTH",
"457 569 OFFCURVE",
"474 554 OFFCURVE",
"474 531 CURVE SMOOTH",
"474 499 OFFCURVE",
"439 421 OFFCURVE",
"406 379 CURVE SMOOTH",
"403 375 OFFCURVE",
"400 372 OFFCURVE",
"400 369 CURVE SMOOTH",
"400 366 OFFCURVE",
"403 364 OFFCURVE",
"409 364 CURVE SMOOTH",
"459 364 OFFCURVE",
"542 447 OFFCURVE",
"542 505 CURVE SMOOTH",
"542 571 OFFCURVE",
"486 610 OFFCURVE",
"399 610 CURVE SMOOTH",
"354 610 OFFCURVE",
"292 586 OFFCURVE",
"255 553 CURVE SMOOTH",
"159 470 OFFCURVE",
"55 253 OFFCURVE",
"55 122 CURVE SMOOTH",
"55 35 OFFCURVE",
"97 -10 OFFCURVE",
"175 -10 CURVE SMOOTH",
"230 -10 OFFCURVE",
"275 32 OFFCURVE",
"312 85 CURVE",
"299 47 OFFCURVE",
"284 7 OFFCURVE",
"267 -34 CURVE SMOOTH",
"254 -66 OFFCURVE"
);
}
);
width = 507;
}
);
unicode = 0122;
},
{
glyphname = H;
lastChange = "2022-09-20 20:28:11 +0000";
layers = (
{
anchors = (
{
name = bottom;
position = "{242, 0}";
},
{
name = center;
position = "{242, 300}";
},
{
name = top;
position = "{510, 600}";
},
{
name = topleft;
position = "{12, 600}";
}
);
background = {
anchors = (
{
name = bottom;
position = "{232, 0}";
},
{
name = center;
position = "{232, 317}";
},
{
name = top;
position = "{232, 633}";
},
{
name = topleft;
position = "{2, 633}";
}
);
paths = (
{
closed = 1;
nodes = (
"160 -18 OFFCURVE",
"164 -15 OFFCURVE",
"164 -11 CURVE SMOOTH",
"164 -9 OFFCURVE",
"163 -7 OFFCURVE",
"162 -5 CURVE",
"158 -1 OFFCURVE",
"156 7 OFFCURVE",
"156 17 CURVE SMOOTH",
"156 45 OFFCURVE",
"171 94 OFFCURVE",
"194 151 CURVE",
"238 120 OFFCURVE",
"289 71 OFFCURVE",
"323 40 CURVE",
"330 28 OFFCURVE",
"340 18 OFFCURVE",
"355 13 CURVE SMOOTH",
"359 11 OFFCURVE",
"360 11 OFFCURVE",
"361 12 CURVE",
"375 8 OFFCURVE",
"393 6 OFFCURVE",
"403 1 CURVE SMOOTH",
"410 -3 OFFCURVE",
"414 0 OFFCURVE",
"414 4 CURVE SMOOTH",
"414 6 OFFCURVE",
"413 8 OFFCURVE",
"412 10 CURVE SMOOTH",
"408 15 OFFCURVE",
"406 22 OFFCURVE",
"406 32 CURVE SMOOTH",
"406 140 OFFCURVE",
"615 535 OFFCURVE",
"681 583 CURVE SMOOTH",
"685 586 OFFCURVE",
"686 588 OFFCURVE",
"686 590 CURVE SMOOTH",
"686 600 OFFCURVE",
"654 607 OFFCURVE",
"618 607 CURVE SMOOTH",
"549 607 OFFCURVE",
"519 580 OFFCURVE",
"481 517 CURVE SMOOTH",
"462 486 OFFCURVE",
"401 379 OFFCURVE",
"358 271 CURVE",
"249 273 LINE",
"317 412 OFFCURVE",
"403 555 OFFCURVE",
"442 583 CURVE SMOOTH",
"446 586 OFFCURVE",
"447 588 OFFCURVE",
"447 590 CURVE SMOOTH",
"447 601 OFFCURVE",
"415 608 OFFCURVE",
"377 608 CURVE SMOOTH",
"306 608 OFFCURVE",
"274 579 OFFCURVE",
"235 515 CURVE SMOOTH",
"216 484 OFFCURVE",
"159 382 OFFCURVE",
"116 277 CURVE",
"97 277 LINE",
"92 278 OFFCURVE",
"86 279 OFFCURVE",
"81 279 CURVE SMOOTH",
"77 279 OFFCURVE",
"74 278 OFFCURVE",
"70 278 CURVE SMOOTH",
"42 275 OFFCURVE",
"20 253 OFFCURVE",
"20 234 CURVE SMOOTH",
"20 223 OFFCURVE",
"27 214 OFFCURVE",
"45 210 CURVE SMOOTH",
"60 207 OFFCURVE",
"73 204 OFFCURVE",
"87 199 CURVE",
"72 154 OFFCURVE",
"63 111 OFFCURVE",
"63 76 CURVE SMOOTH",
"63 37 OFFCURVE",
"75 9 OFFCURVE",
"105 -2 CURVE SMOOTH",
"119 -6 OFFCURVE",
"141 -9 OFFCURVE",
"153 -14 CURVE SMOOTH"
);
},
{
closed = 1;
nodes = (
"293 116 OFFCURVE",
"258 164 OFFCURVE",
"217 205 CURVE",
"235 245 LINE",
"272 243 OFFCURVE",
"310 242 OFFCURVE",
"347 242 CURVE",
"326 184 OFFCURVE",
"311 127 OFFCURVE",
"313 85 CURVE"
);
}
);
};
guideLines = (
{
position = "{160, -26}";
}
);
layerId = "C623C401-2266-4A98-B253-3D45160C29C7";
paths = (
{
closed = 1;
nodes = (
"65 35 OFFCURVE",
"74 15 OFFCURVE",
"94 3 CURVE SMOOTH",
"113 -8 OFFCURVE",
"153 -19 OFFCURVE",
"165 -19 CURVE SMOOTH",
"169 -19 OFFCURVE",
"171 -18 OFFCURVE",
"171 -15 CURVE SMOOTH",
"171 -12 OFFCURVE",
"168 -9 OFFCURVE",
"166 -4 CURVE SMOOTH",
"163 2 OFFCURVE",
"161 10 OFFCURVE",
"161 24 CURVE SMOOTH",
"161 76 OFFCURVE",
"206 227 OFFCURVE",
"261 343 CURVE SMOOTH",
"319 465 OFFCURVE",
"379 550 OFFCURVE",
"415 587 CURVE SMOOTH",
"425 597 OFFCURVE",
"430 601 OFFCURVE",
"430 606 CURVE SMOOTH",
"430 613 OFFCURVE",
"409 618 OFFCURVE",
"376 618 CURVE SMOOTH",
"302 618 OFFCURVE",
"278 591 OFFCURVE",
"235 530 CURVE SMOOTH",
"201 481 OFFCURVE",
"167 410 OFFCURVE",
"143 355 CURVE SMOOTH",
"90 236 OFFCURVE",
"63 128 OFFCURVE",
"64 68 CURVE SMOOTH"
);
},
{
closed = 1;
nodes = (
"404 184 OFFCURVE",
"553 476 OFFCURVE",
"661 587 CURVE SMOOTH",
"671 597 OFFCURVE",
"676 601 OFFCURVE",
"676 606 CURVE SMOOTH",
"676 613 OFFCURVE",
"653 618 OFFCURVE",
"616 618 CURVE SMOOTH",
"554 618 OFFCURVE",
"524 591 OFFCURVE",
"481 530 CURVE SMOOTH",
"408 424 OFFCURVE",
"286 199 OFFCURVE",
"317 66 CURVE",
"332 67 LINE",
"216 262 OFFCURVE",
"127 281 OFFCURVE",
"76 281 CURVE SMOOTH",
"42 281 OFFCURVE",
"20 256 OFFCURVE",
"20 234 CURVE SMOOTH",
"20 222 OFFCURVE",
"29 213 OFFCURVE",
"45 210 CURVE SMOOTH",
"186 186 OFFCURVE",
"270 42 OFFCURVE",
"346 -1 CURVE SMOOTH",
"376 -18 OFFCURVE",
"399 -19 OFFCURVE",
"408 -19 CURVE SMOOTH",
"416 -19 OFFCURVE",
"420 -17 OFFCURVE",
"420 -13 CURVE SMOOTH",
"420 -10 OFFCURVE",
"418 -8 OFFCURVE",
"416 -4 CURVE SMOOTH",
"411 6 OFFCURVE",
"404 30 OFFCURVE",
"404 45 CURVE SMOOTH"
);
},
{
closed = 1;
nodes = (
"205 233 LINE",
"251 229 OFFCURVE",
"301 228 OFFCURVE",
"353 228 CURVE",
"365 262 LINE",
"316 260 OFFCURVE",
"267 261 OFFCURVE",
"216 263 CURVE"
);
}
);
width = 496;
}
);
note = H;
unicode = 0048;
},
{
glyphname = Hbar;
lastChange = "2022-09-21 03:39:33 +0000";
layers = (
{
background = {
components = (
{
name = H;
},
{
name = emdash;
transform = "{1, 0, 0, 1, -44, 188}";
}
);
};
components = (
{
name = H;
}
);
layerId = "C623C401-2266-4A98-B253-3D45160C29C7";
paths = (
{
closed = 1;
nodes = (
"154 443 OFFCURVE",
"592 443 OFFCURVE",
"634 443 CURVE SMOOTH",
"636 443 OFFCURVE",
"638 444 OFFCURVE",
"639 445 CURVE SMOOTH",
"643 448 OFFCURVE",
"653 461 OFFCURVE",
"653 466 CURVE SMOOTH",
"653 469 OFFCURVE",
"652 470 OFFCURVE",
"649 470 CURVE SMOOTH",
"609 470 OFFCURVE",
"176 470 OFFCURVE",
"137 470 CURVE SMOOTH",
"131 470 OFFCURVE",
"127 469 OFFCURVE",
"122 464 CURVE SMOOTH",
"115 457 OFFCURVE",
"110 450 OFFCURVE",
"110 446 CURVE SMOOTH",
"110 444 OFFCURVE",
"111 443 OFFCURVE",
"113 443 CURVE SMOOTH"
);
}
);
width = 496;
}
);
unicode = 0126;
},
{
glyphname = I;
lastChange = "2022-09-20 20:28:11 +0000";
layers = (
{
anchors = (
{
name = bottom;
position = "{105, -21}";
},
{
name = ogonek;
position = "{130, 2}";
},
{
name = top;
position = "{401, 610}";
},
{
name = topleft;
position = "{4, 610}";
}
);
background = {
anchors = (
{
name = bottom;
position = "{166, 0}";
},
{
name = ogonek;
position = "{312, 10}";
},
{
name = top;
position = "{166, 633}";
},
{
name = topleft;
position = "{4, 633}";
}
);
paths = (
{
closed = 1;
nodes = (
"122 -31 OFFCURVE",
"164 -16 OFFCURVE",
"188 -1 CURVE SMOOTH",
"244 37 OFFCURVE",
"299 141 OFFCURVE",
"341 238 CURVE SMOOTH",
"376 320 OFFCURVE",
"437 507 OFFCURVE",
"444 556 CURVE SMOOTH",
"448 589 OFFCURVE",
"432 604 OFFCURVE",
"401 604 CURVE SMOOTH",
"302 604 OFFCURVE",
"173 504 OFFCURVE",
"130 421 CURVE SMOOTH",
"113 388 OFFCURVE",
"107 368 OFFCURVE",
"107 355 CURVE SMOOTH",
"107 328 OFFCURVE",
"134 335 OFFCURVE",
"143 334 CURVE",
"175 406 OFFCURVE",
"239 519 OFFCURVE",
"306 544 CURVE",
"302 524 LINE SMOOTH",
"277 386 OFFCURVE",
"182 138 OFFCURVE",
"115 52 CURVE SMOOTH",
"109 44 OFFCURVE",
"85 15 OFFCURVE",
"60 12 CURVE SMOOTH",
"29 9 OFFCURVE",
"18 23 OFFCURVE",
"7 30 CURVE SMOOTH",
"0 34 OFFCURVE",
"-10 30 OFFCURVE",
"-10 20 CURVE SMOOTH",
"-10 15 OFFCURVE",
"-8 9 OFFCURVE",
"-2 1 CURVE SMOOTH",
"14 -19 OFFCURVE",
"41 -31 OFFCURVE",
"75 -31 CURVE SMOOTH"
);
}
);
};
layerId = "C623C401-2266-4A98-B253-3D45160C29C7";
paths = (
{
closed = 1;
nodes = (
"214 207 OFFCURVE",
"119 68 CURVE SMOOTH",
"96 34 OFFCURVE",
"69 21 OFFCURVE",
"52 21 CURVE SMOOTH",
"21 21 OFFCURVE",
"11 42 OFFCURVE",
"1 42 CURVE SMOOTH",
"-5 42 OFFCURVE",
"-10 37 OFFCURVE",
"-10 30 CURVE SMOOTH",
"-10 5 OFFCURVE",
"30 -21 OFFCURVE",
"83 -21 CURVE SMOOTH",
"134 -21 OFFCURVE",
"187 -4 OFFCURVE",
"232 51 CURVE SMOOTH",
"340 183 OFFCURVE",
"444 531 OFFCURVE",
"444 573 CURVE SMOOTH",
"444 600 OFFCURVE",
"432 614 OFFCURVE",
"401 614 CURVE SMOOTH",
"302 614 OFFCURVE",
"173 514 OFFCURVE",
"130 431 CURVE SMOOTH",
"113 398 OFFCURVE",
"107 378 OFFCURVE",
"107 365 CURVE SMOOTH",
"107 351 OFFCURVE",
"116 345 OFFCURVE",
"126 344 CURVE SMOOTH",
"136 343 OFFCURVE",
"144 348 OFFCURVE",
"149 358 CURVE SMOOTH",
"175 411 OFFCURVE",
"239 529 OFFCURVE",
"306 554 CURVE",
"282 435 OFFCURVE"
);
}
);
width = 354;
}
);
note = I;
unicode = 0049;
},
{
glyphname = J;
lastChange = "2022-06-03 20:39:40 +0000";
layers = (
{
anchors = (
{
name = bottom;
position = "{214, -20}";
},
{
name = top;
position = "{453, 600}";
}
);
background = {
anchors = (
{
name = bottom;
position = "{214, 0}";
},
{
name = top;
position = "{453, 620}";
}
);
paths = (
{
closed = 1;
nodes = (
"271 -7 OFFCURVE",
"344 132 OFFCURVE",
"396 255 CURVE SMOOTH",
"428 331 OFFCURVE",
"484 485 OFFCURVE",
"505 565 CURVE",
"543 565 OFFCURVE",
"573 562 OFFCURVE",
"577 554 CURVE SMOOTH",
"579 551 OFFCURVE",
"583 551 OFFCURVE",
"583 557 CURVE SMOOTH",
"582 564 OFFCURVE",
"584 574 OFFCURVE",
"584 582 CURVE SMOOTH",
"584 620 OFFCURVE",
"505 630 OFFCURVE",
"425 630 CURVE SMOOTH",
"353 630 OFFCURVE",
"281 622 OFFCURVE",
"263 618 CURVE SMOOTH",
"229 611 OFFCURVE",
"223 605 OFFCURVE",
"212 572 CURVE SMOOTH",
"209 562 OFFCURVE",
"207 552 OFFCURVE",
"207 545 CURVE SMOOTH",
"207 536 OFFCURVE",
"210 530 OFFCURVE",
"213 531 CURVE SMOOTH",
"223 534 OFFCURVE",
"244 539 OFFCURVE",
"271 544 CURVE SMOOTH",
"298 549 OFFCURVE",
"330 552 OFFCURVE",
"363 557 CURVE SMOOTH",
"370 558 LINE",
"345 438 OFFCURVE",
"266 227 OFFCURVE",
"206 116 CURVE SMOOTH",
"176 61 OFFCURVE",
"144 27 OFFCURVE",
"117 27 CURVE SMOOTH",
"98 27 OFFCURVE",
"88 45 OFFCURVE",
"88 73 CURVE SMOOTH",
"88 104 OFFCURVE",
"102 153 OFFCURVE",
"127 200 CURVE SMOOTH",
"155 253 OFFCURVE",
"197 304 OFFCURVE",
"241 326 CURVE SMOOTH",
"247 329 OFFCURVE",
"251 331 OFFCURVE",
"251 335 CURVE SMOOTH",
"251 342 OFFCURVE",
"240 346 OFFCURVE",
"222 346 CURVE SMOOTH",
"165 346 OFFCURVE",
"106 304 OFFCURVE",
"66 245 CURVE SMOOTH",
"35 200 OFFCURVE",
"15 145 OFFCURVE",
"15 92 CURVE SMOOTH",
"15 34 OFFCURVE",
"44 -7 OFFCURVE",
"112 -7 CURVE SMOOTH"
);
}
);
};
layerId = "C623C401-2266-4A98-B253-3D45160C29C7";
paths = (
{
closed = 1;
nodes = (
"211 509 OFFCURVE",
"217 512 CURVE SMOOTH",
"258 530 OFFCURVE",
"409 544 OFFCURVE",
"456 544 CURVE SMOOTH",
"471 544 OFFCURVE",
"508 547 OFFCURVE",
"539 542 CURVE SMOOTH",
"568 537 OFFCURVE",
"575 531 OFFCURVE",
"579 531 CURVE SMOOTH",
"582 531 OFFCURVE",
"584 534 OFFCURVE",
"584 555 CURVE SMOOTH",
"584 569 OFFCURVE",
"583 577 OFFCURVE",
"568 587 CURVE SMOOTH",
"540 606 OFFCURVE",
"476 610 OFFCURVE",
"420 610 CURVE SMOOTH",
"378 610 OFFCURVE",
"290 605 OFFCURVE",
"263 598 CURVE SMOOTH",
"232 591 OFFCURVE",
"226 587 OFFCURVE",
"218 568 CURVE SMOOTH",
"213 557 OFFCURVE",
"207 535 OFFCURVE",
"207 523 CURVE SMOOTH",
"207 513 OFFCURVE"
);
},
{
closed = 1;
nodes = (
"372 550 LINE",
"350 432 OFFCURVE",
"268 211 OFFCURVE",
"206 96 CURVE SMOOTH",
"176 41 OFFCURVE",
"144 7 OFFCURVE",
"117 7 CURVE SMOOTH",
"98 7 OFFCURVE",
"88 25 OFFCURVE",
"88 53 CURVE SMOOTH",
"88 84 OFFCURVE",
"102 133 OFFCURVE",
"127 180 CURVE SMOOTH",
"155 233 OFFCURVE",
"197 284 OFFCURVE",
"241 306 CURVE SMOOTH",
"247 309 OFFCURVE",
"251 311 OFFCURVE",
"251 315 CURVE SMOOTH",
"251 322 OFFCURVE",
"240 326 OFFCURVE",
"222 326 CURVE SMOOTH",
"165 326 OFFCURVE",
"106 284 OFFCURVE",
"66 225 CURVE SMOOTH",
"35 180 OFFCURVE",
"15 125 OFFCURVE",
"15 72 CURVE SMOOTH",
"15 14 OFFCURVE",
"44 -27 OFFCURVE",
"112 -27 CURVE SMOOTH",
"229 -27 OFFCURVE",
"318 54 OFFCURVE",
"387 214 CURVE SMOOTH",
"430 315 OFFCURVE",
"489 479 OFFCURVE",
"508 555 CURVE"
);
}
);
width = 434;
}
);
note = J;
unicode = 004A;
},
{
glyphname = K;
lastChange = "2022-06-03 18:14:01 +0000";
layers = (
{
anchors = (
{
name = bottom;
position = "{426, 2}";
},
{
name = top;
position = "{358, 602}";
}
);
background = {
anchors = (
{
name = bottom;
position = "{358, 0}";
},
{
name = top;
position = "{358, 633}";
}
);
paths = (
{
closed = 1;
nodes = (
"627 -15 OFFCURVE",
"679 58 OFFCURVE",
"668 56 CURVE SMOOTH",
"616 46 OFFCURVE",
"525 288 OFFCURVE",
"522 306 CURVE",
"599 346 OFFCURVE",
"770 451 OFFCURVE",
"770 554 CURVE SMOOTH",
"770 585 OFFCURVE",
"750 598 OFFCURVE",
"730 598 CURVE SMOOTH",
"719 598 OFFCURVE",
"707 595 OFFCURVE",
"698 588 CURVE SMOOTH",
"627 541 OFFCURVE",
"563 335 OFFCURVE",
"408 305 CURVE",
"458 400 OFFCURVE",
"513 491 OFFCURVE",
"539 529 CURVE SMOOTH",
"549 542 OFFCURVE",
"556 554 OFFCURVE",
"556 567 CURVE SMOOTH",
"556 572 OFFCURVE",
"555 577 OFFCURVE",
"553 582 CURVE SMOOTH",
"544 601 OFFCURVE",
"528 623 OFFCURVE",
"510 627 CURVE SMOOTH",
"437 641 OFFCURVE",
"244 499 OFFCURVE",
"173 499 CURVE SMOOTH",
"162 499 OFFCURVE",
"151 502 OFFCURVE",
"151 511 CURVE SMOOTH",
"151 514 OFFCURVE",
"153 518 OFFCURVE",
"155 523 CURVE SMOOTH",
"157 526 OFFCURVE",
"158 529 OFFCURVE",
"158 531 CURVE SMOOTH",
"158 536 OFFCURVE",
"155 538 OFFCURVE",
"150 538 CURVE SMOOTH",
"144 538 OFFCURVE",
"134 534 OFFCURVE",
"127 523 CURVE SMOOTH",
"100 484 OFFCURVE",
"80 438 OFFCURVE",
"80 408 CURVE SMOOTH",
"80 393 OFFCURVE",
"85 382 OFFCURVE",
"97 378 CURVE SMOOTH",
"107 374 OFFCURVE",
"118 372 OFFCURVE",
"128 372 CURVE SMOOTH",
"224 372 OFFCURVE",
"328 522 OFFCURVE",
"383 546 CURVE SMOOTH",
"391 550 OFFCURVE",
"394 547 OFFCURVE",
"394 542 CURVE SMOOTH",
"394 524 OFFCURVE",
"363 474 OFFCURVE",
"358 464 CURVE SMOOTH",
"322 398 OFFCURVE",
"211 196 OFFCURVE",
"211 81 CURVE SMOOTH",
"211 42 OFFCURVE",
"224 14 OFFCURVE",
"255 3 CURVE SMOOTH",
"269 -2 OFFCURVE",
"291 -4 OFFCURVE",
"303 -9 CURVE SMOOTH",
"310 -13 OFFCURVE",
"314 -10 OFFCURVE",
"314 -6 CURVE SMOOTH",
"314 -4 OFFCURVE",
"313 -2 OFFCURVE",
"312 0 CURVE",
"306 7 OFFCURVE",
"303 17 OFFCURVE",
"303 31 CURVE SMOOTH",
"303 83 OFFCURVE",
"344 179 OFFCURVE",
"393 275 CURVE",
"399 275 LINE SMOOTH",
"408 274 OFFCURVE",
"420 275 OFFCURVE",
"435 278 CURVE",
"436 275 LINE",
"443 226 OFFCURVE",
"466 -15 OFFCURVE",
"574 -15 CURVE SMOOTH"
);
}
);
};
layerId = "C623C401-2266-4A98-B253-3D45160C29C7";
paths = (
{
closed = 1;
nodes = (
"385 277 LINE",
"475 270 OFFCURVE",
"598 344 OFFCURVE",
"666 401 CURVE SMOOTH",
"725 449 OFFCURVE",
"770 505 OFFCURVE",
"770 556 CURVE SMOOTH",
"770 583 OFFCURVE",
"755 600 OFFCURVE",
"730 600 CURVE SMOOTH",
"703 600 OFFCURVE",
"679 579 OFFCURVE",
"635 517 CURVE SMOOTH",
"590 453 OFFCURVE",
"527 328 OFFCURVE",
"398 305 CURVE"
);
},
{
closed = 1;
nodes = (
"311 -5 OFFCURVE",
"314 -4 OFFCURVE",
"314 -2 CURVE SMOOTH",
"314 0 OFFCURVE",
"310 3 OFFCURVE",
"307 10 CURVE SMOOTH",
"304 16 OFFCURVE",
"303 23 OFFCURVE",
"303 34 CURVE SMOOTH",
"303 95 OFFCURVE",
"366 228 OFFCURVE",
"416 321 CURVE SMOOTH",
"471 423 OFFCURVE",
"498 469 OFFCURVE",
"537 528 CURVE SMOOTH",
"552 551 OFFCURVE",
"556 557 OFFCURVE",
"556 571 CURVE SMOOTH",
"556 589 OFFCURVE",
"530 630 OFFCURVE",
"500 630 CURVE SMOOTH",
"453 630 OFFCURVE",
"378 590 OFFCURVE",
"309 555 CURVE SMOOTH",
"254 526 OFFCURVE",
"203 501 OFFCURVE",
"175 501 CURVE SMOOTH",
"160 501 OFFCURVE",
"151 506 OFFCURVE",
"151 515 CURVE SMOOTH",
"151 522 OFFCURVE",
"157 530 OFFCURVE",
"157 535 CURVE SMOOTH",
"157 539 OFFCURVE",
"154 541 OFFCURVE",
"149 541 CURVE SMOOTH",
"142 541 OFFCURVE",
"133 535 OFFCURVE",
"116 509 CURVE SMOOTH",
"99 483 OFFCURVE",
"80 437 OFFCURVE",
"80 410 CURVE SMOOTH",
"80 384 OFFCURVE",
"94 374 OFFCURVE",
"128 374 CURVE SMOOTH",
"167 374 OFFCURVE",
"217 398 OFFCURVE",
"296 475 CURVE SMOOTH",
"341 519 OFFCURVE",
"377 550 OFFCURVE",
"389 550 CURVE SMOOTH",
"393 550 OFFCURVE",
"394 548 OFFCURVE",
"394 544 CURVE SMOOTH",
"394 526 OFFCURVE",
"366 481 OFFCURVE",
"338 429 CURVE SMOOTH",
"294 347 OFFCURVE",
"211 182 OFFCURVE",
"211 80 CURVE SMOOTH",
"211 29 OFFCURVE",
"239 -5 OFFCURVE",
"304 -5 CURVE SMOOTH"
);
},
{
closed = 1;
nodes = (
"432 299 LINE",
"444 228 OFFCURVE",
"464 -13 OFFCURVE",
"574 -13 CURVE SMOOTH",
"621 -13 OFFCURVE",
"671 45 OFFCURVE",
"671 58 CURVE SMOOTH",
"671 60 OFFCURVE",
"670 62 OFFCURVE",
"667 62 CURVE SMOOTH",
"665 62 OFFCURVE",
"663 61 OFFCURVE",
"659 61 CURVE SMOOTH",
"614 61 OFFCURVE",
"522 290 OFFCURVE",
"517 327 CURVE"
);
}
);
width = 680;
}
);
note = K;
unicode = 004B;
},
{
glyphname = L;
lastChange = "2022-09-20 20:28:11 +0000";
layers = (
{
anchors = (
{
name = bottom;
position = "{215, -10}";
},
{
name = center;
position = "{215, 290}";
},
{
name = top;
position = "{398, 590}";
},
{
name = topright;
position = "{484, 590}";
}
);
background = {
anchors = (
{
name = bottom;
position = "{215, 0}";
},
{
name = center;
position = "{215, 317}";
},
{
name = top;
position = "{215, 633}";
},
{
name = topright;
position = "{405, 633}";
}
);
paths = (
{
closed = 1;
nodes = (
"170 -3 OFFCURVE",
"195 7 OFFCURVE",
"236 12 CURVE SMOOTH",
"275 16 OFFCURVE",
"314 19 OFFCURVE",
"347 19 CURVE SMOOTH",
"391 19 OFFCURVE",
"423 14 OFFCURVE",
"423 3 CURVE SMOOTH",
"423 5 LINE SMOOTH",
"422 13 OFFCURVE",
"425 27 OFFCURVE",
"425 36 CURVE SMOOTH",
"425 83 OFFCURVE",
"351 95 OFFCURVE",
"275 95 CURVE SMOOTH",
"231 95 OFFCURVE",
"187 91 OFFCURVE",
"155 87 CURVE",
"168 126 OFFCURVE",
"190 181 OFFCURVE",
"214 233 CURVE",
"339 294 OFFCURVE",
"457 427 OFFCURVE",
"457 523 CURVE SMOOTH",
"457 555 OFFCURVE",
"424 578 OFFCURVE",
"389 589 CURVE SMOOTH",
"372 594 OFFCURVE",
"355 597 OFFCURVE",
"340 597 CURVE SMOOTH",
"275 595 OFFCURVE",
"260 586 OFFCURVE",
"223 523 CURVE SMOOTH",
"201 486 OFFCURVE",
"123 349 OFFCURVE",
"80 225 CURVE",
"70 226 OFFCURVE",
"61 228 OFFCURVE",
"51 232 CURVE SMOOTH",
"38 237 OFFCURVE",
"26 227 OFFCURVE",
"26 219 CURVE SMOOTH",
"26 215 OFFCURVE",
"29 212 OFFCURVE",
"34 210 CURVE SMOOTH",
"46 205 OFFCURVE",
"59 202 OFFCURVE",
"72 201 CURVE",
"58 158 OFFCURVE",
"49 117 OFFCURVE",
"49 84 CURVE SMOOTH",
"49 47 OFFCURVE",
"60 20 OFFCURVE",
"87 9 CURVE SMOOTH",
"108 0 OFFCURVE",
"125 -3 OFFCURVE",
"141 -3 CURVE SMOOTH"
);
},
{
closed = 1;
nodes = (
"242 294 LINE SMOOTH",
"272 359 OFFCURVE",
"361 547 OFFCURVE",
"391 547 CURVE SMOOTH",
"399 547 OFFCURVE",
"403 538 OFFCURVE",
"403 524 CURVE SMOOTH",
"403 506 OFFCURVE",
"396 480 OFFCURVE",
"381 451 CURVE SMOOTH",
"353 399 OFFCURVE",
"299 328 OFFCURVE",
"235 280 CURVE"
);
}
);
};
layerId = "C623C401-2266-4A98-B253-3D45160C29C7";
paths = (
{
closed = 1;
nodes = (
"231 85 OFFCURVE",
"187 81 OFFCURVE",
"155 77 CURVE",
"168 116 OFFCURVE",
"192 185 OFFCURVE",
"216 237 CURVE",
"341 298 OFFCURVE",
"457 437 OFFCURVE",
"457 533 CURVE SMOOTH",
"457 582 OFFCURVE",
"387 607 OFFCURVE",
"334 607 CURVE SMOOTH",
"281 607 OFFCURVE",
"256 592 OFFCURVE",
"223 533 CURVE SMOOTH",
"202 496 OFFCURVE",
"136 369 OFFCURVE",
"94 256 CURVE",
"75 257 OFFCURVE",
"62 261 OFFCURVE",
"54 261 CURVE SMOOTH",
"44 261 OFFCURVE",
"35 254 OFFCURVE",
"35 245 CURVE SMOOTH",
"35 239 OFFCURVE",
"39 233 OFFCURVE",
"48 230 CURVE SMOOTH",
"61 225 OFFCURVE",
"76 224 OFFCURVE",
"82 223 CURVE",
"67 176 OFFCURVE",
"49 117 OFFCURVE",
"49 74 CURVE SMOOTH",
"49 37 OFFCURVE",
"60 10 OFFCURVE",
"87 -1 CURVE SMOOTH",
"108 -10 OFFCURVE",
"125 -13 OFFCURVE",
"141 -13 CURVE SMOOTH",
"166 -13 OFFCURVE",
"193 -5 OFFCURVE",
"226 0 CURVE SMOOTH",
"268 6 OFFCURVE",
"302 9 OFFCURVE",
"328 9 CURVE SMOOTH",
"343 9 OFFCURVE",
"359 9 OFFCURVE",
"380 6 CURVE SMOOTH",
"409 2 OFFCURVE",
"416 -5 OFFCURVE",
"420 -5 CURVE SMOOTH",
"423 -5 OFFCURVE",
"425 -2 OFFCURVE",
"425 19 CURVE SMOOTH",
"425 39 OFFCURVE",
"421 50 OFFCURVE",
"406 60 CURVE SMOOTH",
"378 79 OFFCURVE",
"331 85 OFFCURVE",
"275 85 CURVE SMOOTH"
);
},
{
closed = 1;
nodes = (
"258 339 OFFCURVE",
"317 463 OFFCURVE",
"356 521 CURVE SMOOTH",
"370 543 OFFCURVE",
"383 557 OFFCURVE",
"391 557 CURVE SMOOTH",
"399 557 OFFCURVE",
"403 548 OFFCURVE",
"403 534 CURVE SMOOTH",
"403 504 OFFCURVE",
"386 466 OFFCURVE",
"371 437 CURVE SMOOTH",
"343 385 OFFCURVE",
"295 330 OFFCURVE",
"231 282 CURVE"
);
}
);
width = 417;
}
);
note = L;
unicode = 004C;
},
{
glyphname = LJ;
lastChange = "2022-09-20 20:28:11 +0000";
layers = (
{
anchors = (
{
name = bottom;
position = "{215, -10}";
},
{
name = center;
position = "{215, 290}";
},
{
name = top;
position = "{398, 590}";
},
{
name = topright;
position = "{484, 590}";
}
);
background = {
components = (
{
name = L;
},
{
name = J;
transform = "{1, 0, 0, 1, 421, 0}";
}
);
};
components = (
{
name = J;
transform = "{1, 0, 0, 1, 417, 0}";
}
);
layerId = "C623C401-2266-4A98-B253-3D45160C29C7";
paths = (
{
closed = 1;
nodes = (
"302 85 OFFCURVE",
"261 85 CURVE SMOOTH",
"229 85 OFFCURVE",
"184 81 OFFCURVE",
"155 77 CURVE",
"168 116 OFFCURVE",
"192 185 OFFCURVE",
"216 237 CURVE",
"341 298 OFFCURVE",
"457 437 OFFCURVE",
"457 533 CURVE SMOOTH",
"457 582 OFFCURVE",
"387 607 OFFCURVE",
"334 607 CURVE SMOOTH",
"281 607 OFFCURVE",
"256 592 OFFCURVE",
"223 533 CURVE SMOOTH",
"202 496 OFFCURVE",
"136 369 OFFCURVE",
"94 256 CURVE",
"75 257 OFFCURVE",
"62 261 OFFCURVE",
"54 261 CURVE SMOOTH",
"44 261 OFFCURVE",
"35 254 OFFCURVE",
"35 245 CURVE SMOOTH",
"35 239 OFFCURVE",
"39 233 OFFCURVE",
"48 230 CURVE SMOOTH",
"61 225 OFFCURVE",
"76 224 OFFCURVE",
"82 223 CURVE",
"67 176 OFFCURVE",
"49 117 OFFCURVE",
"49 74 CURVE SMOOTH",
"49 37 OFFCURVE",
"60 10 OFFCURVE",
"87 -1 CURVE SMOOTH",
"107 -10 OFFCURVE",
"122 -13 OFFCURVE",
"141 -13 CURVE SMOOTH",
"180 -13 OFFCURVE",
"253 9 OFFCURVE",
"311 9 CURVE SMOOTH",
"321 9 OFFCURVE",
"334 8 OFFCURVE",
"344 6 CURVE SMOOTH",
"373 2 OFFCURVE",
"380 -5 OFFCURVE",
"384 -5 CURVE SMOOTH",
"387 -5 OFFCURVE",
"389 -2 OFFCURVE",
"389 19 CURVE SMOOTH",
"389 39 OFFCURVE",
"385 50 OFFCURVE",
"370 60 CURVE SMOOTH",
"342 79 OFFCURVE"
);
},
{
closed = 1;
nodes = (
"258 339 OFFCURVE",
"317 463 OFFCURVE",
"356 521 CURVE SMOOTH",
"370 543 OFFCURVE",
"383 557 OFFCURVE",
"391 557 CURVE SMOOTH",
"399 557 OFFCURVE",
"403 548 OFFCURVE",
"403 534 CURVE SMOOTH",
"403 504 OFFCURVE",
"386 466 OFFCURVE",
"371 437 CURVE SMOOTH",
"343 385 OFFCURVE",
"295 330 OFFCURVE",
"231 282 CURVE"
);
}
);
width = 851;
}
);
leftMetricsKey = L;
rightMetricsKey = J;
unicode = 01C7;
},
{
glyphname = Lj;
lastChange = "2022-09-20 20:28:11 +0000";
layers = (
{
anchors = (
{
name = bottom;
position = "{215, -10}";
},
{
name = center;
position = "{215, 290}";
},
{
name = top;
position = "{398, 590}";
},
{
name = topright;
position = "{484, 590}";
}
);
background = {
components = (
{
name = L;
},
{
name = j;
transform = "{1, 0, 0, 1, 421, 0}";
}
);
};
layerId = "C623C401-2266-4A98-B253-3D45160C29C7";
paths = (
{
closed = 1;
nodes = (
"231 86 OFFCURVE",
"187 81 OFFCURVE",
"155 77 CURVE",
"168 116 OFFCURVE",
"192 185 OFFCURVE",
"216 237 CURVE",
"341 298 OFFCURVE",
"457 437 OFFCURVE",
"457 533 CURVE SMOOTH",
"457 582 OFFCURVE",
"387 607 OFFCURVE",
"334 607 CURVE SMOOTH",
"281 607 OFFCURVE",
"256 592 OFFCURVE",
"223 533 CURVE SMOOTH",
"202 496 OFFCURVE",
"136 369 OFFCURVE",
"94 256 CURVE",
"75 257 OFFCURVE",
"62 261 OFFCURVE",
"54 261 CURVE SMOOTH",
"44 261 OFFCURVE",
"35 254 OFFCURVE",
"35 245 CURVE SMOOTH",
"35 239 OFFCURVE",
"39 233 OFFCURVE",
"48 230 CURVE SMOOTH",
"61 225 OFFCURVE",
"76 224 OFFCURVE",
"82 223 CURVE",
"67 176 OFFCURVE",
"49 117 OFFCURVE",
"49 74 CURVE SMOOTH",
"49 37 OFFCURVE",
"60 10 OFFCURVE",
"87 -1 CURVE SMOOTH",
"108 -10 OFFCURVE",
"125 -13 OFFCURVE",
"141 -13 CURVE SMOOTH",
"166 -13 OFFCURVE",
"193 -5 OFFCURVE",
"226 0 CURVE SMOOTH",
"260 5 OFFCURVE",
"294 9 OFFCURVE",
"321 9 CURVE SMOOTH",
"336 9 OFFCURVE",
"352 8 OFFCURVE",
"369 4 CURVE SMOOTH",
"390 -1 OFFCURVE",
"396 -5 OFFCURVE",
"400 -5 CURVE SMOOTH",
"403 -5 OFFCURVE",
"406 -2 OFFCURVE",
"405 23 CURVE SMOOTH",
"404 73 OFFCURVE",
"330 86 OFFCURVE",
"275 86 CURVE SMOOTH"
);
},
{
closed = 1;
nodes = (
"258 339 OFFCURVE",
"317 463 OFFCURVE",
"356 521 CURVE SMOOTH",
"370 543 OFFCURVE",
"383 557 OFFCURVE",
"391 557 CURVE SMOOTH",
"399 557 OFFCURVE",
"403 548 OFFCURVE",
"403 534 CURVE SMOOTH",
"403 504 OFFCURVE",
"386 466 OFFCURVE",
"371 437 CURVE SMOOTH",
"343 385 OFFCURVE",
"295 330 OFFCURVE",
"231 282 CURVE"
);
},
{
closed = 1;
nodes = (
"691 456 OFFCURVE",
"733 501 OFFCURVE",
"733 545 CURVE SMOOTH",
"733 570 OFFCURVE",
"716 588 OFFCURVE",
"692 588 CURVE SMOOTH",
"653 588 OFFCURVE",
"611 544 OFFCURVE",
"611 499 CURVE SMOOTH",
"611 474 OFFCURVE",
"627 456 OFFCURVE",
"652 456 CURVE SMOOTH"
);
},
{
closed = 1;
nodes = (
"284 -158 OFFCURVE",
"277 -148 OFFCURVE",
"277 -135 CURVE SMOOTH",
"277 -95 OFFCURVE",
"359 -68 OFFCURVE",
"418 -52 CURVE",
"393 -113 OFFCURVE",
"350 -158 OFFCURVE",
"309 -158 CURVE SMOOTH"
);
},
{
closed = 1;
nodes = (
"557 327 OFFCURVE",
"472 60 OFFCURVE",
"432 -21 CURVE",
"358 -40 OFFCURVE",
"235 -73 OFFCURVE",
"235 -142 CURVE SMOOTH",
"235 -180 OFFCURVE",
"269 -199 OFFCURVE",
"331 -199 CURVE SMOOTH",
"422 -199 OFFCURVE",
"487 -136 OFFCURVE",
"543 -13 CURVE",
"578 3 OFFCURVE",
"620 36 OFFCURVE",
"651 70 CURVE SMOOTH",
"683 105 OFFCURVE",
"712 150 OFFCURVE",
"736 197 CURVE SMOOTH",
"738 201 OFFCURVE",
"741 208 OFFCURVE",
"741 211 CURVE SMOOTH",
"741 217 OFFCURVE",
"734 227 OFFCURVE",
"727 227 CURVE SMOOTH",
"723 227 OFFCURVE",
"720 224 OFFCURVE",
"718 220 CURVE SMOOTH",
"699 182 OFFCURVE",
"678 143 OFFCURVE",
"651 110 CURVE SMOOTH",
"625 77 OFFCURVE",
"594 50 OFFCURVE",
"561 27 CURVE",
"593 100 OFFCURVE",
"633 196 OFFCURVE",
"659 268 CURVE SMOOTH",
"676 316 OFFCURVE",
"689 352 OFFCURVE",
"689 368 CURVE SMOOTH",
"689 386 OFFCURVE",
"681 400 OFFCURVE",
"662 409 CURVE SMOOTH",
"634 423 OFFCURVE",
"593 428 OFFCURVE",
"558 428 CURVE SMOOTH",
"553 428 OFFCURVE",
"550 426 OFFCURVE",
"550 423 CURVE SMOOTH",
"550 419 OFFCURVE",
"557 415 OFFCURVE",
"557 399 CURVE SMOOTH"
);
}
);
width = 651;
}
);
leftMetricsKey = L;
unicode = 01C8;
},
{
glyphname = Lslash;
lastChange = "2022-09-21 03:54:01 +0000";
layers = (
{
anchors = (
{
name = bottom;
position = "{215, -10}";
},
{
name = center;
position = "{215, 290}";
},
{
name = top;
position = "{398, 590}";
},
{
name = topright;
position = "{484, 590}";
}
);
background = {
components = (
{
name = L;
},
{
name = hyphen;
transform = "{1.08329, 0.19101, -0.12546, 0.71152, -142, -90}";
}
);
};
layerId = "C623C401-2266-4A98-B253-3D45160C29C7";
paths = (
{
closed = 1;
nodes = (
"231 85 OFFCURVE",
"187 81 OFFCURVE",
"155 77 CURVE",
"172 128 OFFCURVE",
"199 204 OFFCURVE",
"229 265 CURVE",
"354 326 OFFCURVE",
"457 437 OFFCURVE",
"457 533 CURVE SMOOTH",
"457 582 OFFCURVE",
"387 607 OFFCURVE",
"334 607 CURVE SMOOTH",
"281 607 OFFCURVE",
"256 592 OFFCURVE",
"223 533 CURVE SMOOTH",
"202 496 OFFCURVE",
"154 407 OFFCURVE",
"114 296 CURVE",
"95 297 OFFCURVE",
"82 301 OFFCURVE",
"74 301 CURVE SMOOTH",
"64 301 OFFCURVE",
"55 294 OFFCURVE",
"55 285 CURVE SMOOTH",
"55 279 OFFCURVE",
"59 273 OFFCURVE",
"68 270 CURVE SMOOTH",
"81 265 OFFCURVE",
"96 264 OFFCURVE",
"102 263 CURVE",
"87 216 OFFCURVE",
"49 117 OFFCURVE",
"49 74 CURVE SMOOTH",
"49 37 OFFCURVE",
"60 10 OFFCURVE",
"87 -1 CURVE SMOOTH",
"108 -10 OFFCURVE",
"125 -13 OFFCURVE",
"141 -13 CURVE SMOOTH",
"166 -13 OFFCURVE",
"193 -5 OFFCURVE",
"226 0 CURVE SMOOTH",
"268 6 OFFCURVE",
"302 9 OFFCURVE",
"328 9 CURVE SMOOTH",
"343 9 OFFCURVE",
"359 9 OFFCURVE",
"380 6 CURVE SMOOTH",
"409 2 OFFCURVE",
"416 -5 OFFCURVE",
"420 -5 CURVE SMOOTH",
"423 -5 OFFCURVE",
"425 -2 OFFCURVE",
"425 19 CURVE SMOOTH",
"425 39 OFFCURVE",
"421 50 OFFCURVE",
"406 60 CURVE SMOOTH",
"378 79 OFFCURVE",
"331 85 OFFCURVE",
"275 85 CURVE SMOOTH"
);
},
{
closed = 1;
nodes = (
"272 371 OFFCURVE",
"317 463 OFFCURVE",
"356 521 CURVE SMOOTH",
"370 543 OFFCURVE",
"383 557 OFFCURVE",
"391 557 CURVE SMOOTH",
"399 557 OFFCURVE",
"403 548 OFFCURVE",
"403 534 CURVE SMOOTH",
"403 504 OFFCURVE",
"386 466 OFFCURVE",
"371 437 CURVE SMOOTH",
"343 385 OFFCURVE",
"308 356 OFFCURVE",
"244 308 CURVE"
);
},
{
closed = 1;
nodes = (
"96 127 OFFCURVE",
"232 148 OFFCURVE",
"282 180 CURVE SMOOTH",
"294 188 OFFCURVE",
"305 197 OFFCURVE",
"305 207 CURVE SMOOTH",
"305 213 OFFCURVE",
"303 216 OFFCURVE",
"298 216 CURVE SMOOTH",
"291 216 OFFCURVE",
"262 196 OFFCURVE",
"214 185 CURVE SMOOTH",
"171 175 OFFCURVE",
"58 161 OFFCURVE",
"42 161 CURVE SMOOTH",
"25 161 OFFCURVE",
"18 155 OFFCURVE",
"18 146 CURVE SMOOTH",
"18 132 OFFCURVE",
"29 127 OFFCURVE",
"46 127 CURVE SMOOTH"
);
}
);
width = 417;
}
);
unicode = 0141;
},
{
glyphname = M;
lastChange = "2022-06-02 01:38:06 +0000";
layers = (
{
background = {
paths = (
{
closed = 1;
nodes = (
"776 -92 OFFCURVE",
"790 -87 OFFCURVE",
"798 -79 CURVE",
"791 -69 OFFCURVE",
"789 -54 OFFCURVE",
"789 -36 CURVE SMOOTH",
"789 88 OFFCURVE",
"923 371 OFFCURVE",
"955 429 CURVE SMOOTH",
"972 461 OFFCURVE",
"996 506 OFFCURVE",
"996 546 CURVE SMOOTH",
"996 572 OFFCURVE",
"985 595 OFFCURVE",
"956 610 CURVE SMOOTH",
"933 622 OFFCURVE",
"920 629 OFFCURVE",
"909 629 CURVE SMOOTH",
"901 629 OFFCURVE",
"893 625 OFFCURVE",
"882 617 CURVE SMOOTH",
"869 607 OFFCURVE",
"708 421 OFFCURVE",
"640 336 CURVE",
"696 423 OFFCURVE",
"744 490 OFFCURVE",
"744 533 CURVE SMOOTH",
"744 549 OFFCURVE",
"738 562 OFFCURVE",
"723 571 CURVE SMOOTH",
"706 582 OFFCURVE",
"691 585 OFFCURVE",
"677 585 CURVE SMOOTH",
"652 585 OFFCURVE",
"633 573 OFFCURVE",
"626 568 CURVE SMOOTH",
"589 540 OFFCURVE",
"471 399 OFFCURVE",
"413 322 CURVE SMOOTH",
"408 315 OFFCURVE",
"406 327 OFFCURVE",
"414 340 CURVE SMOOTH",
"434 370 OFFCURVE",
"478 429 OFFCURVE",
"504 462 CURVE SMOOTH",
"520 484 OFFCURVE",
"579 551 OFFCURVE",
"573 568 CURVE SMOOTH",
"567 588 OFFCURVE",
"548 622 OFFCURVE",
"525 627 CURVE SMOOTH",
"452 641 OFFCURVE",
"259 499 OFFCURVE",
"188 499 CURVE SMOOTH",
"177 499 OFFCURVE",
"166 502 OFFCURVE",
"166 511 CURVE SMOOTH",
"166 514 OFFCURVE",
"168 518 OFFCURVE",
"170 523 CURVE SMOOTH",
"172 526 OFFCURVE",
"173 529 OFFCURVE",
"173 531 CURVE SMOOTH",
"173 536 OFFCURVE",
"170 538 OFFCURVE",
"165 538 CURVE SMOOTH",
"159 538 OFFCURVE",
"149 534 OFFCURVE",
"142 523 CURVE SMOOTH",
"115 484 OFFCURVE",
"95 438 OFFCURVE",
"95 408 CURVE SMOOTH",
"95 393 OFFCURVE",
"100 382 OFFCURVE",
"112 378 CURVE SMOOTH",
"122 374 OFFCURVE",
"132 373 OFFCURVE",
"142 373 CURVE SMOOTH",
"239 373 OFFCURVE",
"351 532 OFFCURVE",
"408 553 CURVE SMOOTH",
"416 556 OFFCURVE",
"420 554 OFFCURVE",
"420 549 CURVE SMOOTH",
"420 530 OFFCURVE",
"375 469 OFFCURVE",
"369 459 CURVE SMOOTH",
"288 326 OFFCURVE",
"231 155 OFFCURVE",
"223 89 CURVE SMOOTH",
"222 81 OFFCURVE",
"221 74 OFFCURVE",
"221 68 CURVE SMOOTH",
"221 15 OFFCURVE",
"253 -7 OFFCURVE",
"319 -7 CURVE SMOOTH",
"326 -7 OFFCURVE",
"329 -6 OFFCURVE",
"329 -4 CURVE SMOOTH",
"329 -3 OFFCURVE",
"328 -2 OFFCURVE",
"327 0 CURVE",
"320 8 OFFCURVE",
"316 20 OFFCURVE",
"316 35 CURVE SMOOTH",
"316 192 OFFCURVE",
"516 418 OFFCURVE",
"623 515 CURVE",
"609 492 OFFCURVE",
"563 413 OFFCURVE",
"535 347 CURVE SMOOTH",
"501 268 OFFCURVE",
"471 176 OFFCURVE",
"471 108 CURVE SMOOTH",
"471 51 OFFCURVE",
"493 10 OFFCURVE",
"554 10 CURVE SMOOTH",
"568 10 OFFCURVE",
"578 14 OFFCURVE",
"578 20 CURVE SMOOTH",
"578 21 OFFCURVE",
"577 22 OFFCURVE",
"577 23 CURVE",
"573 30 OFFCURVE",
"571 41 OFFCURVE",
"571 54 CURVE SMOOTH",
"571 106 OFFCURVE",
"600 194 OFFCURVE",
"611 220 CURVE SMOOTH",
"669 352 OFFCURVE",
"819 494 OFFCURVE",
"861 531 CURVE",
"811 448 OFFCURVE",
"687 188 OFFCURVE",
"687 30 CURVE SMOOTH",
"687 -30 OFFCURVE",
"705 -75 OFFCURVE",
"752 -90 CURVE SMOOTH",
"756 -91 OFFCURVE",
"760 -92 OFFCURVE",
"764 -92 CURVE SMOOTH"
);
}
);
};
layerId = "C623C401-2266-4A98-B253-3D45160C29C7";
paths = (
{
closed = 1;
nodes = (
"633 326 LINE",
"666 376 OFFCURVE",
"744 493 OFFCURVE",
"744 531 CURVE SMOOTH",
"744 549 OFFCURVE",
"738 563 OFFCURVE",
"717 575 CURVE SMOOTH",
"710 580 OFFCURVE",
"690 585 OFFCURVE",
"678 585 CURVE SMOOTH",
"663 585 OFFCURVE",
"645 580 OFFCURVE",
"631 571 CURVE SMOOTH",
"603 554 OFFCURVE",
"475 405 OFFCURVE",
"415 324 CURVE",
"413 326 LINE",
"446 388 OFFCURVE",
"518 478 OFFCURVE",
"537 504 CURVE SMOOTH",
"557 531 OFFCURVE",
"573 552 OFFCURVE",
"573 565 CURVE SMOOTH",
"573 577 OFFCURVE",
"550 628 OFFCURVE",
"515 628 CURVE SMOOTH",
"468 628 OFFCURVE",
"393 588 OFFCURVE",
"324 553 CURVE SMOOTH",
"269 524 OFFCURVE",
"218 499 OFFCURVE",
"190 499 CURVE SMOOTH",
"175 499 OFFCURVE",
"166 504 OFFCURVE",
"166 513 CURVE SMOOTH",
"166 520 OFFCURVE",
"172 528 OFFCURVE",
"172 533 CURVE SMOOTH",
"172 537 OFFCURVE",
"169 539 OFFCURVE",
"164 539 CURVE SMOOTH",
"157 539 OFFCURVE",
"148 533 OFFCURVE",
"131 507 CURVE SMOOTH",
"114 481 OFFCURVE",
"95 435 OFFCURVE",
"95 408 CURVE SMOOTH",
"95 382 OFFCURVE",
"107 373 OFFCURVE",
"141 373 CURVE SMOOTH",
"180 373 OFFCURVE",
"232 399 OFFCURVE",
"311 475 CURVE SMOOTH",
"356 518 OFFCURVE",
"397 554 OFFCURVE",
"414 554 CURVE SMOOTH",
"418 554 OFFCURVE",
"420 552 OFFCURVE",
"420 548 CURVE SMOOTH",
"420 530 OFFCURVE",
"375 471 OFFCURVE",
"345 418 CURVE SMOOTH",
"302 340 OFFCURVE",
"221 149 OFFCURVE",
"221 67 CURVE SMOOTH",
"221 16 OFFCURVE",
"254 -7 OFFCURVE",
"319 -7 CURVE SMOOTH",
"326 -7 OFFCURVE",
"329 -6 OFFCURVE",
"329 -4 CURVE SMOOTH",
"329 -2 OFFCURVE",
"326 1 OFFCURVE",
"322 8 CURVE SMOOTH",
"319 13 OFFCURVE",
"316 25 OFFCURVE",
"316 36 CURVE SMOOTH",
"316 95 OFFCURVE",
"345 164 OFFCURVE",
"387 234 CURVE SMOOTH",
"455 345 OFFCURVE",
"555 454 OFFCURVE",
"622 514 CURVE",
"567 427 OFFCURVE",
"471 234 OFFCURVE",
"471 108 CURVE SMOOTH",
"471 45 OFFCURVE",
"499 10 OFFCURVE",
"549 10 CURVE SMOOTH",
"563 10 OFFCURVE",
"577 14 OFFCURVE",
"581 21 CURVE",
"575 29 OFFCURVE",
"570 41 OFFCURVE",
"570 60 CURVE SMOOTH",
"570 85 OFFCURVE",
"581 151 OFFCURVE",
"611 220 CURVE SMOOTH",
"669 352 OFFCURVE",
"819 494 OFFCURVE",
"861 531 CURVE",
"811 448 OFFCURVE",
"687 188 OFFCURVE",
"687 30 CURVE SMOOTH",
"687 -44 OFFCURVE",
"717 -91 OFFCURVE",
"765 -91 CURVE SMOOTH",
"777 -91 OFFCURVE",
"790 -87 OFFCURVE",
"798 -79 CURVE",
"791 -69 OFFCURVE",
"789 -54 OFFCURVE",
"789 -36 CURVE SMOOTH",
"789 88 OFFCURVE",
"923 371 OFFCURVE",
"955 429 CURVE SMOOTH",
"972 461 OFFCURVE",
"996 506 OFFCURVE",
"996 546 CURVE SMOOTH",
"996 572 OFFCURVE",
"987 592 OFFCURVE",
"956 610 CURVE SMOOTH",
"935 622 OFFCURVE",
"920 629 OFFCURVE",
"911 629 CURVE SMOOTH",
"901 629 OFFCURVE",
"892 625 OFFCURVE",
"882 617 CURVE SMOOTH",
"855 594 OFFCURVE",
"708 421 OFFCURVE",
"635 324 CURVE"
);
}
);
width = 891;
}
);
note = M;
unicode = 004D;
},
{
glyphname = N;
lastChange = "2022-06-03 20:33:02 +0000";
layers = (
{
anchors = (
{
name = bottom;
position = "{420, 20}";
},
{
name = top;
position = "{636, 600}";
}
);
background = {
anchors = (
{
name = bottom;
position = "{379, 0}";
},
{
name = top;
position = "{379, 633}";
}
);
paths = (
{
closed = 1;
nodes = (
"326 -7 OFFCURVE",
"329 -6 OFFCURVE",
"329 -4 CURVE SMOOTH",
"329 -3 OFFCURVE",
"328 -2 OFFCURVE",
"327 0 CURVE",
"320 8 OFFCURVE",
"316 21 OFFCURVE",
"316 36 CURVE SMOOTH",
"316 206 OFFCURVE",
"512 418 OFFCURVE",
"620 515 CURVE",
"615 499 OFFCURVE",
"600 464 OFFCURVE",
"582 424 CURVE SMOOTH",
"549 353 OFFCURVE",
"476 208 OFFCURVE",
"476 106 CURVE SMOOTH",
"476 54 OFFCURVE",
"504 -1 OFFCURVE",
"559 -1 CURVE SMOOTH",
"574 -1 OFFCURVE",
"590 3 OFFCURVE",
"594 11 CURVE",
"587 20 OFFCURVE",
"583 40 OFFCURVE",
"583 65 CURVE SMOOTH",
"583 97 OFFCURVE",
"590 138 OFFCURVE",
"604 179 CURVE SMOOTH",
"634 264 OFFCURVE",
"687 356 OFFCURVE",
"750 480 CURVE SMOOTH",
"760 500 OFFCURVE",
"767 523 OFFCURVE",
"767 544 CURVE SMOOTH",
"767 570 OFFCURVE",
"757 594 OFFCURVE",
"729 609 CURVE SMOOTH",
"711 619 OFFCURVE",
"699 626 OFFCURVE",
"686 626 CURVE SMOOTH",
"678 626 OFFCURVE",
"669 623 OFFCURVE",
"659 615 CURVE SMOOTH",
"622 587 OFFCURVE",
"485 426 OFFCURVE",
"414 323 CURVE SMOOTH",
"409 316 OFFCURVE",
"408 330 OFFCURVE",
"416 343 CURVE SMOOTH",
"436 373 OFFCURVE",
"478 429 OFFCURVE",
"504 462 CURVE SMOOTH",
"520 484 OFFCURVE",
"579 551 OFFCURVE",
"573 568 CURVE SMOOTH",
"567 588 OFFCURVE",
"548 622 OFFCURVE",
"525 627 CURVE SMOOTH",
"452 641 OFFCURVE",
"259 499 OFFCURVE",
"188 499 CURVE SMOOTH",
"177 499 OFFCURVE",
"166 502 OFFCURVE",
"166 511 CURVE SMOOTH",
"166 514 OFFCURVE",
"168 518 OFFCURVE",
"170 523 CURVE SMOOTH",
"172 526 OFFCURVE",
"173 529 OFFCURVE",
"173 531 CURVE SMOOTH",
"173 536 OFFCURVE",
"170 538 OFFCURVE",
"165 538 CURVE SMOOTH",
"159 538 OFFCURVE",
"149 534 OFFCURVE",
"142 523 CURVE SMOOTH",
"115 484 OFFCURVE",
"95 438 OFFCURVE",
"95 408 CURVE SMOOTH",
"95 393 OFFCURVE",
"100 382 OFFCURVE",
"112 378 CURVE SMOOTH",
"122 374 OFFCURVE",
"132 373 OFFCURVE",
"142 373 CURVE SMOOTH",
"239 373 OFFCURVE",
"351 532 OFFCURVE",
"408 553 CURVE SMOOTH",
"416 556 OFFCURVE",
"420 554 OFFCURVE",
"420 549 CURVE SMOOTH",
"420 530 OFFCURVE",
"375 469 OFFCURVE",
"369 459 CURVE SMOOTH",
"288 326 OFFCURVE",
"231 155 OFFCURVE",
"223 89 CURVE SMOOTH",
"222 81 OFFCURVE",
"221 74 OFFCURVE",
"221 68 CURVE SMOOTH",
"221 15 OFFCURVE",
"253 -7 OFFCURVE",
"319 -7 CURVE SMOOTH"
);
}
);
};
layerId = "C623C401-2266-4A98-B253-3D45160C29C7";
paths = (
{
closed = 1;
nodes = (
"454 390 OFFCURVE",
"518 468 OFFCURVE",
"537 494 CURVE SMOOTH",
"557 521 OFFCURVE",
"573 542 OFFCURVE",
"573 555 CURVE SMOOTH",
"573 567 OFFCURVE",
"550 618 OFFCURVE",
"515 618 CURVE SMOOTH",
"468 618 OFFCURVE",
"393 578 OFFCURVE",
"324 543 CURVE SMOOTH",
"269 514 OFFCURVE",
"218 489 OFFCURVE",
"190 489 CURVE SMOOTH",
"175 489 OFFCURVE",
"166 494 OFFCURVE",
"166 503 CURVE SMOOTH",
"166 510 OFFCURVE",
"172 518 OFFCURVE",
"172 523 CURVE SMOOTH",
"172 527 OFFCURVE",
"169 529 OFFCURVE",
"164 529 CURVE SMOOTH",
"157 529 OFFCURVE",
"148 523 OFFCURVE",
"131 497 CURVE SMOOTH",
"114 471 OFFCURVE",
"95 425 OFFCURVE",
"95 398 CURVE SMOOTH",
"95 372 OFFCURVE",
"107 363 OFFCURVE",
"141 363 CURVE SMOOTH",
"180 363 OFFCURVE",
"232 389 OFFCURVE",
"311 465 CURVE SMOOTH",
"356 508 OFFCURVE",
"397 544 OFFCURVE",
"414 544 CURVE SMOOTH",
"418 544 OFFCURVE",
"420 542 OFFCURVE",
"420 538 CURVE SMOOTH",
"420 520 OFFCURVE",
"375 461 OFFCURVE",
"345 408 CURVE SMOOTH",
"302 330 OFFCURVE",
"221 139 OFFCURVE",
"221 57 CURVE SMOOTH",
"221 6 OFFCURVE",
"254 -17 OFFCURVE",
"319 -17 CURVE SMOOTH",
"326 -17 OFFCURVE",
"329 -16 OFFCURVE",
"329 -14 CURVE SMOOTH",
"329 -12 OFFCURVE",
"326 -9 OFFCURVE",
"322 -2 CURVE SMOOTH",
"319 3 OFFCURVE",
"316 15 OFFCURVE",
"316 26 CURVE SMOOTH",
"316 196 OFFCURVE",
"512 408 OFFCURVE",
"620 505 CURVE",
"615 489 OFFCURVE",
"600 454 OFFCURVE",
"582 414 CURVE SMOOTH",
"549 343 OFFCURVE",
"476 198 OFFCURVE",
"476 96 CURVE SMOOTH",
"476 44 OFFCURVE",
"504 -11 OFFCURVE",
"559 -11 CURVE SMOOTH",
"574 -11 OFFCURVE",
"590 -7 OFFCURVE",
"594 1 CURVE",
"587 10 OFFCURVE",
"583 30 OFFCURVE",
"583 55 CURVE SMOOTH",
"583 87 OFFCURVE",
"590 128 OFFCURVE",
"604 169 CURVE SMOOTH",
"634 254 OFFCURVE",
"687 346 OFFCURVE",
"750 470 CURVE SMOOTH",
"760 490 OFFCURVE",
"767 513 OFFCURVE",
"767 534 CURVE SMOOTH",
"767 560 OFFCURVE",
"759 581 OFFCURVE",
"729 599 CURVE SMOOTH",
"711 610 OFFCURVE",
"699 616 OFFCURVE",
"686 616 CURVE SMOOTH",
"678 616 OFFCURVE",
"669 613 OFFCURVE",
"659 605 CURVE SMOOTH",
"624 578 OFFCURVE",
"496 429 OFFCURVE",
"423 326 CURVE",
"421 328 LINE"
);
}
);
width = 667;
}
);
note = N;
unicode = 004E;
},
{
glyphname = Nj;
lastChange = "2022-09-21 03:27:02 +0000";
layers = (
{
background = {
components = (
{
name = N;
},
{
name = j;
transform = "{1, 0, 0, 1, 633, 0}";
}
);
};
components = (
{
name = N;
}
);
layerId = "C623C401-2266-4A98-B253-3D45160C29C7";
paths = (
{
closed = 1;
nodes = (
"937 456 OFFCURVE",
"979 501 OFFCURVE",
"979 545 CURVE SMOOTH",
"979 570 OFFCURVE",
"962 588 OFFCURVE",
"938 588 CURVE SMOOTH",
"899 588 OFFCURVE",
"857 544 OFFCURVE",
"857 499 CURVE SMOOTH",
"857 474 OFFCURVE",
"873 456 OFFCURVE",
"898 456 CURVE SMOOTH"
);
},
{
closed = 1;
nodes = (
"530 -158 OFFCURVE",
"523 -148 OFFCURVE",
"523 -135 CURVE SMOOTH",
"523 -95 OFFCURVE",
"605 -68 OFFCURVE",
"664 -52 CURVE",
"639 -113 OFFCURVE",
"596 -158 OFFCURVE",
"555 -158 CURVE SMOOTH"
);
},
{
closed = 1;
nodes = (
"803 327 OFFCURVE",
"718 60 OFFCURVE",
"678 -21 CURVE",
"604 -40 OFFCURVE",
"481 -73 OFFCURVE",
"481 -142 CURVE SMOOTH",
"481 -180 OFFCURVE",
"515 -199 OFFCURVE",
"577 -199 CURVE SMOOTH",
"668 -199 OFFCURVE",
"733 -136 OFFCURVE",
"789 -13 CURVE",
"824 3 OFFCURVE",
"866 36 OFFCURVE",
"897 70 CURVE SMOOTH",
"929 105 OFFCURVE",
"958 150 OFFCURVE",
"982 197 CURVE SMOOTH",
"984 201 OFFCURVE",
"987 208 OFFCURVE",
"987 211 CURVE SMOOTH",
"987 217 OFFCURVE",
"980 227 OFFCURVE",
"973 227 CURVE SMOOTH",
"969 227 OFFCURVE",
"966 224 OFFCURVE",
"964 220 CURVE SMOOTH",
"945 182 OFFCURVE",
"924 143 OFFCURVE",
"897 110 CURVE SMOOTH",
"871 77 OFFCURVE",
"840 50 OFFCURVE",
"807 27 CURVE",
"839 100 OFFCURVE",
"879 196 OFFCURVE",
"905 268 CURVE SMOOTH",
"922 316 OFFCURVE",
"935 352 OFFCURVE",
"935 368 CURVE SMOOTH",
"935 386 OFFCURVE",
"927 400 OFFCURVE",
"908 409 CURVE SMOOTH",
"880 423 OFFCURVE",
"839 428 OFFCURVE",
"804 428 CURVE SMOOTH",
"799 428 OFFCURVE",
"796 426 OFFCURVE",
"796 423 CURVE SMOOTH",
"796 419 OFFCURVE",
"803 415 OFFCURVE",
"803 399 CURVE SMOOTH"
);
}
);
width = 897;
}
);
unicode = 01CB;
},
{
glyphname = Eng;
lastChange = "2022-09-21 03:27:02 +0000";
layers = (
{
anchors = (
{
name = bottom;
position = "{420, 20}";
},
{
name = top;
position = "{636, 600}";
}
);
background = {
paths = (
{
closed = 1;
nodes = (
"404 -349 OFFCURVE",
"493 -177 OFFCURVE",
"609 99 CURVE SMOOTH",
"685 280 OFFCURVE",
"764 466 OFFCURVE",
"764 548 CURVE SMOOTH",
"764 572 OFFCURVE",
"756 594 OFFCURVE",
"729 609 CURVE SMOOTH",
"711 619 OFFCURVE",
"699 626 OFFCURVE",
"686 626 CURVE SMOOTH",
"678 626 OFFCURVE",
"669 623 OFFCURVE",
"659 615 CURVE SMOOTH",
"622 587 OFFCURVE",
"485 426 OFFCURVE",
"414 323 CURVE SMOOTH",
"409 316 OFFCURVE",
"408 330 OFFCURVE",
"416 343 CURVE SMOOTH",
"436 373 OFFCURVE",
"478 429 OFFCURVE",
"504 462 CURVE SMOOTH",
"520 484 OFFCURVE",
"579 551 OFFCURVE",
"573 568 CURVE SMOOTH",
"567 588 OFFCURVE",
"548 622 OFFCURVE",
"525 627 CURVE SMOOTH",
"452 641 OFFCURVE",
"259 499 OFFCURVE",
"188 499 CURVE SMOOTH",
"177 499 OFFCURVE",
"166 502 OFFCURVE",
"166 511 CURVE SMOOTH",
"166 514 OFFCURVE",
"168 518 OFFCURVE",
"170 523 CURVE SMOOTH",
"172 526 OFFCURVE",
"173 529 OFFCURVE",
"173 531 CURVE SMOOTH",
"173 536 OFFCURVE",
"170 538 OFFCURVE",
"165 538 CURVE SMOOTH",
"159 538 OFFCURVE",
"149 534 OFFCURVE",
"142 523 CURVE SMOOTH",
"115 484 OFFCURVE",
"95 438 OFFCURVE",
"95 408 CURVE SMOOTH",
"95 393 OFFCURVE",
"100 382 OFFCURVE",
"112 378 CURVE SMOOTH",
"122 374 OFFCURVE",
"132 373 OFFCURVE",
"142 373 CURVE SMOOTH",
"239 373 OFFCURVE",
"351 532 OFFCURVE",
"408 553 CURVE SMOOTH",
"416 556 OFFCURVE",
"420 554 OFFCURVE",
"420 549 CURVE SMOOTH",
"420 530 OFFCURVE",
"375 469 OFFCURVE",
"369 459 CURVE SMOOTH",
"288 326 OFFCURVE",
"231 155 OFFCURVE",
"223 89 CURVE SMOOTH",
"222 81 OFFCURVE",
"221 74 OFFCURVE",
"221 68 CURVE SMOOTH",
"221 15 OFFCURVE",
"253 -7 OFFCURVE",
"319 -7 CURVE SMOOTH",
"326 -7 OFFCURVE",
"329 -6 OFFCURVE",
"329 -4 CURVE SMOOTH",
"329 -3 OFFCURVE",
"328 -2 OFFCURVE",
"327 0 CURVE",
"320 8 OFFCURVE",
"316 21 OFFCURVE",
"316 36 CURVE SMOOTH",
"316 206 OFFCURVE",
"512 418 OFFCURVE",
"620 515 CURVE",
"620 499 OFFCURVE",
"609 432 OFFCURVE",
"597 391 CURVE SMOOTH",
"548 219 OFFCURVE",
"432 -56 OFFCURVE",
"340 -226 CURVE SMOOTH",
"307 -286 OFFCURVE",
"280 -310 OFFCURVE",
"262 -310 CURVE SMOOTH",
"247 -310 OFFCURVE",
"238 -292 OFFCURVE",
"238 -265 CURVE SMOOTH",
"238 -251 OFFCURVE",
"241 -234 OFFCURVE",
"246 -216 CURVE",
"248 -177 OFFCURVE",
"285 -130 OFFCURVE",
"308 -122 CURVE",
"316 -118 OFFCURVE",
"321 -112 OFFCURVE",
"321 -107 CURVE SMOOTH",
"321 -99 OFFCURVE",
"313 -92 OFFCURVE",
"298 -92 CURVE SMOOTH",
"294 -92 OFFCURVE",
"289 -93 OFFCURVE",
"284 -94 CURVE SMOOTH",
"199 -113 OFFCURVE",
"147 -195 OFFCURVE",
"147 -259 CURVE SMOOTH",
"147 -312 OFFCURVE",
"181 -349 OFFCURVE",
"243 -349 CURVE SMOOTH"
);
}
);
};
layerId = "C623C401-2266-4A98-B253-3D45160C29C7";
paths = (
{
closed = 1;
nodes = (
"765 564 OFFCURVE",
"759 581 OFFCURVE",
"729 599 CURVE SMOOTH",
"711 610 OFFCURVE",
"699 616 OFFCURVE",
"686 616 CURVE SMOOTH",
"678 616 OFFCURVE",
"669 613 OFFCURVE",
"659 605 CURVE SMOOTH",
"624 578 OFFCURVE",
"496 429 OFFCURVE",
"423 326 CURVE",
"421 328 LINE",
"454 390 OFFCURVE",
"518 468 OFFCURVE",
"537 494 CURVE SMOOTH",
"557 521 OFFCURVE",
"573 542 OFFCURVE",
"573 555 CURVE SMOOTH",
"573 567 OFFCURVE",
"550 618 OFFCURVE",
"515 618 CURVE SMOOTH",
"468 618 OFFCURVE",
"393 578 OFFCURVE",
"324 543 CURVE SMOOTH",
"269 514 OFFCURVE",
"218 489 OFFCURVE",
"190 489 CURVE SMOOTH",
"175 489 OFFCURVE",
"166 494 OFFCURVE",
"166 503 CURVE SMOOTH",
"166 510 OFFCURVE",
"172 518 OFFCURVE",
"172 523 CURVE SMOOTH",
"172 527 OFFCURVE",
"169 529 OFFCURVE",
"164 529 CURVE SMOOTH",
"157 529 OFFCURVE",
"148 523 OFFCURVE",
"131 497 CURVE SMOOTH",
"114 471 OFFCURVE",
"95 425 OFFCURVE",
"95 398 CURVE SMOOTH",
"95 372 OFFCURVE",
"107 363 OFFCURVE",
"141 363 CURVE SMOOTH",
"180 363 OFFCURVE",
"232 389 OFFCURVE",
"311 465 CURVE SMOOTH",
"356 508 OFFCURVE",
"397 544 OFFCURVE",
"414 544 CURVE SMOOTH",
"418 544 OFFCURVE",
"420 542 OFFCURVE",
"420 538 CURVE SMOOTH",
"420 520 OFFCURVE",
"375 461 OFFCURVE",
"345 408 CURVE SMOOTH",
"302 330 OFFCURVE",
"221 139 OFFCURVE",
"221 57 CURVE SMOOTH",
"221 6 OFFCURVE",
"254 -17 OFFCURVE",
"319 -17 CURVE SMOOTH",
"326 -17 OFFCURVE",
"329 -16 OFFCURVE",
"329 -14 CURVE SMOOTH",
"329 -12 OFFCURVE",
"326 -9 OFFCURVE",
"322 -2 CURVE SMOOTH",
"319 3 OFFCURVE",
"316 15 OFFCURVE",
"316 26 CURVE SMOOTH",
"316 196 OFFCURVE",
"512 408 OFFCURVE",
"620 505 CURVE",
"620 489 OFFCURVE",
"609 432 OFFCURVE",
"597 391 CURVE SMOOTH",
"548 219 OFFCURVE",
"432 -56 OFFCURVE",
"340 -226 CURVE SMOOTH",
"311 -278 OFFCURVE",
"281 -310 OFFCURVE",
"262 -310 CURVE SMOOTH",
"247 -310 OFFCURVE",
"238 -292 OFFCURVE",
"238 -265 CURVE SMOOTH",
"238 -213 OFFCURVE",
"264 -149 OFFCURVE",
"308 -122 CURVE SMOOTH",
"316 -117 OFFCURVE",
"321 -111 OFFCURVE",
"321 -106 CURVE SMOOTH",
"321 -97 OFFCURVE",
"312 -92 OFFCURVE",
"298 -92 CURVE SMOOTH",
"232 -92 OFFCURVE",
"147 -176 OFFCURVE",
"147 -259 CURVE SMOOTH",
"147 -312 OFFCURVE",
"181 -349 OFFCURVE",
"243 -349 CURVE SMOOTH",
"372 -349 OFFCURVE",
"463 -242 OFFCURVE",
"609 79 CURVE SMOOTH",
"690 258 OFFCURVE",
"765 471 OFFCURVE",
"765 538 CURVE SMOOTH"
);
}
);
width = 685;
}
);
leftMetricsKey = N;
unicode = 014A;
},
{
glyphname = O;
lastChange = "2022-09-21 03:27:02 +0000";
layers = (
{
anchors = (
{
name = bottom;
position = "{169, 0}";
},
{
name = center;
position = "{254, 300}";
},
{
name = ogonek;
position = "{198, 10}";
},
{
name = top;
position = "{444, 600}";
},
{
name = topleft;
position = "{39, 600}";
},
{
name = topright;
position = "{469, 600}";
}
);
background = {
anchors = (
{
name = bottom;
position = "{274, 0}";
},
{
name = center;
position = "{274, 317}";
},
{
name = ogonek;
position = "{462, 10}";
},
{
name = top;
position = "{274, 633}";
},
{
name = topleft;
position = "{59, 633}";
},
{
name = topright;
position = "{489, 633}";
}
);
paths = (
{
closed = 1;
nodes = (
"280 -10 OFFCURVE",
"332 7 OFFCURVE",
"371 38 CURVE SMOOTH",
"433 86 OFFCURVE",
"487 169 OFFCURVE",
"522 245 CURVE SMOOTH",
"542 288 OFFCURVE",
"563 355 OFFCURVE",
"563 417 CURVE SMOOTH",
"563 473 OFFCURVE",
"545 524 OFFCURVE",
"493 547 CURVE SMOOTH",
"486 550 OFFCURVE",
"480 551 OFFCURVE",
"475 551 CURVE SMOOTH",
"468 551 OFFCURVE",
"463 549 OFFCURVE",
"463 544 CURVE SMOOTH",
"463 542 OFFCURVE",
"465 539 OFFCURVE",
"468 535 CURVE SMOOTH",
"481 520 OFFCURVE",
"488 492 OFFCURVE",
"488 455 CURVE SMOOTH",
"488 404 OFFCURVE",
"474 338 OFFCURVE",
"443 272 CURVE SMOOTH",
"367 112 OFFCURVE",
"292 27 OFFCURVE",
"238 27 CURVE SMOOTH",
"213 27 OFFCURVE",
"204 47 OFFCURVE",
"204 78 CURVE SMOOTH",
"204 143 OFFCURVE",
"247 257 OFFCURVE",
"276 320 CURVE SMOOTH",
"307 388 OFFCURVE",
"346 461 OFFCURVE",
"384 506 CURVE SMOOTH",
"417 543 OFFCURVE",
"458 583 OFFCURVE",
"495 583 CURVE SMOOTH",
"507 583 OFFCURVE",
"519 578 OFFCURVE",
"530 569 CURVE SMOOTH",
"534 565 OFFCURVE",
"537 564 OFFCURVE",
"540 564 CURVE SMOOTH",
"547 564 OFFCURVE",
"550 573 OFFCURVE",
"550 581 CURVE SMOOTH",
"550 587 OFFCURVE",
"548 593 OFFCURVE",
"545 596 CURVE SMOOTH",
"530 612 OFFCURVE",
"493 621 OFFCURVE",
"453 621 CURVE SMOOTH",
"372 621 OFFCURVE",
"312 594 OFFCURVE",
"254 542 CURVE SMOOTH",
"148 448 OFFCURVE",
"80 282 OFFCURVE",
"80 150 CURVE SMOOTH",
"80 142 OFFCURVE",
"80 134 OFFCURVE",
"81 126 CURVE SMOOTH",
"86 31 OFFCURVE",
"155 -10 OFFCURVE",
"231 -10 CURVE SMOOTH"
);
},
{
closed = 1;
nodes = (
"240 265 OFFCURVE",
"272 297 OFFCURVE",
"272 337 CURVE SMOOTH",
"272 377 OFFCURVE",
"240 410 OFFCURVE",
"200 410 CURVE SMOOTH",
"160 410 OFFCURVE",
"127 377 OFFCURVE",
"127 337 CURVE SMOOTH",
"127 297 OFFCURVE",
"160 265 OFFCURVE",
"200 265 CURVE SMOOTH"
);
}
);
};
layerId = "C623C401-2266-4A98-B253-3D45160C29C7";
paths = (
{
closed = 1;
nodes = (
"260 -10 OFFCURVE",
"314 9 OFFCURVE",
"351 38 CURVE SMOOTH",
"451 115 OFFCURVE",
"543 291 OFFCURVE",
"543 417 CURVE SMOOTH",
"543 480 OFFCURVE",
"519 527 OFFCURVE",
"475 546 CURVE SMOOTH",
"467 550 OFFCURVE",
"459 551 OFFCURVE",
"455 551 CURVE SMOOTH",
"448 551 OFFCURVE",
"443 548 OFFCURVE",
"443 544 CURVE SMOOTH",
"443 542 OFFCURVE",
"444 540 OFFCURVE",
"448 535 CURVE SMOOTH",
"461 520 OFFCURVE",
"468 492 OFFCURVE",
"468 455 CURVE SMOOTH",
"468 404 OFFCURVE",
"454 338 OFFCURVE",
"423 272 CURVE SMOOTH",
"352 121 OFFCURVE",
"273 27 OFFCURVE",
"218 27 CURVE SMOOTH",
"195 27 OFFCURVE",
"184 45 OFFCURVE",
"184 78 CURVE SMOOTH",
"184 131 OFFCURVE",
"213 226 OFFCURVE",
"256 320 CURVE SMOOTH",
"277 366 OFFCURVE",
"314 447 OFFCURVE",
"360 501 CURVE SMOOTH",
"391 538 OFFCURVE",
"437 583 OFFCURVE",
"475 583 CURVE SMOOTH",
"487 583 OFFCURVE",
"499 578 OFFCURVE",
"510 569 CURVE SMOOTH",
"513 566 OFFCURVE",
"517 564 OFFCURVE",
"520 564 CURVE SMOOTH",
"526 564 OFFCURVE",
"530 571 OFFCURVE",
"530 581 CURVE SMOOTH",
"530 587 OFFCURVE",
"529 591 OFFCURVE",
"525 596 CURVE SMOOTH",
"512 610 OFFCURVE",
"478 621 OFFCURVE",
"433 621 CURVE SMOOTH",
"355 621 OFFCURVE",
"292 594 OFFCURVE",
"234 542 CURVE SMOOTH",
"129 447 OFFCURVE",
"60 283 OFFCURVE",
"60 144 CURVE SMOOTH",
"60 55 OFFCURVE",
"109 -10 OFFCURVE",
"211 -10 CURVE SMOOTH"
);
}
);
width = 503;
}
);
note = O;
unicode = 004F;
},
{
glyphname = Oslash;
lastChange = "2022-09-22 01:02:28 +0000";
layers = (
{
anchors = (
{
name = bottom;
position = "{239, 0}";
},
{
name = top;
position = "{451, 600}";
}
);
background = {
paths = (
{
closed = 1;
nodes = (
"73 -80 OFFCURVE",
"89 -74 OFFCURVE",
"93 -70 CURVE SMOOTH",
"106 -55 OFFCURVE",
"126 -30 OFFCURVE",
"150 0 CURVE",
"169 -7 OFFCURVE",
"190 -10 OFFCURVE",
"211 -10 CURVE SMOOTH",
"253 -10 OFFCURVE",
"296 2 OFFCURVE",
"331 26 CURVE SMOOTH",
"399 73 OFFCURVE",
"459 163 OFFCURVE",
"497 246 CURVE SMOOTH",
"517 293 OFFCURVE",
"546 383 OFFCURVE",
"546 461 CURVE SMOOTH",
"546 495 OFFCURVE",
"541 527 OFFCURVE",
"527 552 CURVE",
"546 585 OFFCURVE",
"560 615 OFFCURVE",
"560 636 CURVE SMOOTH",
"560 653 OFFCURVE",
"551 663 OFFCURVE",
"528 663 CURVE SMOOTH",
"519 663 OFFCURVE",
"517 662 OFFCURVE",
"517 660 CURVE SMOOTH",
"517 658 OFFCURVE",
"521 656 OFFCURVE",
"519 655 CURVE",
"514 642 OFFCURVE",
"503 621 OFFCURVE",
"487 594 CURVE",
"466 608 OFFCURVE",
"440 612 OFFCURVE",
"412 612 CURVE SMOOTH",
"195 612 OFFCURVE",
"60 342 OFFCURVE",
"60 148 CURVE SMOOTH",
"60 90 OFFCURVE",
"78 51 OFFCURVE",
"108 24 CURVE",
"57 -48 LINE SMOOTH",
"50 -58 OFFCURVE",
"47 -65 OFFCURVE",
"47 -70 CURVE SMOOTH",
"47 -77 OFFCURVE",
"53 -80 OFFCURVE",
"61 -80 CURVE SMOOTH"
);
},
{
closed = 1;
nodes = (
"201 28 OFFCURVE",
"192 36 OFFCURVE",
"187 50 CURVE",
"272 164 OFFCURVE",
"385 330 OFFCURVE",
"469 460 CURVE SMOOTH",
"480 477 LINE",
"472 415 OFFCURVE",
"447 336 OFFCURVE",
"418 274 CURVE SMOOTH",
"343 113 OFFCURVE",
"270 28 OFFCURVE",
"217 28 CURVE SMOOTH"
);
},
{
closed = 1;
nodes = (
"206 205 OFFCURVE",
"233 276 OFFCURVE",
"254 322 CURVE SMOOTH",
"277 375 OFFCURVE",
"376 574 OFFCURVE",
"447 574 CURVE SMOOTH",
"456 574 OFFCURVE",
"464 570 OFFCURVE",
"469 563 CURVE",
"405 457 OFFCURVE",
"291 289 OFFCURVE",
"192 144 CURVE"
);
}
);
};
layerId = "C623C401-2266-4A98-B253-3D45160C29C7";
paths = (
{
closed = 1;
nodes = (
"60 49 OFFCURVE",
"117 -11 OFFCURVE",
"211 -11 CURVE SMOOTH",
"403 -11 OFFCURVE",
"546 279 OFFCURVE",
"546 461 CURVE SMOOTH",
"546 554 OFFCURVE",
"505 612 OFFCURVE",
"412 612 CURVE SMOOTH",
"195 612 OFFCURVE",
"60 342 OFFCURVE",
"60 148 CURVE SMOOTH"
);
},
{
closed = 1;
nodes = (
"482 331 OFFCURVE",
"314 28 OFFCURVE",
"217 28 CURVE SMOOTH",
"198 28 OFFCURVE",
"183 42 OFFCURVE",
"183 74 CURVE SMOOTH",
"183 222 OFFCURVE",
"357 574 OFFCURVE",
"447 574 CURVE SMOOTH",
"468 574 OFFCURVE",
"482 550 OFFCURVE",
"482 504 CURVE SMOOTH"
);
},
{
closed = 1;
nodes = (
"561 568 OFFCURVE",
"561 636 CURVE SMOOTH",
"561 651 OFFCURVE",
"549 663 OFFCURVE",
"533 663 CURVE SMOOTH",
"527 663 OFFCURVE",
"522 660 OFFCURVE",
"517 648 CURVE SMOOTH",
"442 477 OFFCURVE",
"234 192 OFFCURVE",
"62 -48 CURVE SMOOTH",
"55 -57 OFFCURVE",
"52 -65 OFFCURVE",
"52 -70 CURVE SMOOTH",
"52 -77 OFFCURVE",
"58 -80 OFFCURVE",
"66 -80 CURVE SMOOTH",
"78 -80 OFFCURVE",
"94 -74 OFFCURVE",
"98 -70 CURVE SMOOTH",
"156 -2 OFFCURVE"
);
}
);
width = 506;
}
);
note = Oslash;
unicode = 00D8;
},
{
glyphname = OE;
lastChange = "2022-09-22 02:31:20 +0000";
layers = (
{
anchors = (
{
name = bottom;
position = "{520, 10}";
},
{
name = center;
position = "{496, 298}";
},
{
name = ogonek;
position = "{665, 37}";
},
{
name = top;
position = "{675, 611}";
},
{
name = topleft;
position = "{317, 618}";
},
{
name = topright;
position = "{750, 607}";
}
);
background = {
paths = (
{
closed = 1;
nodes = (
"254 -10 OFFCURVE",
"296 2 OFFCURVE",
"331 26 CURVE SMOOTH",
"338 31 OFFCURVE",
"345 37 OFFCURVE",
"352 43 CURVE",
"365 15 OFFCURVE",
"393 -3 OFFCURVE",
"428 -3 CURVE SMOOTH",
"434 -3 OFFCURVE",
"442 -3 OFFCURVE",
"449 -1 CURVE SMOOTH",
"483 5 OFFCURVE",
"592 23 OFFCURVE",
"660 23 CURVE SMOOTH",
"689 23 OFFCURVE",
"711 20 OFFCURVE",
"715 11 CURVE SMOOTH",
"717 6 OFFCURVE",
"722 7 OFFCURVE",
"722 14 CURVE SMOOTH",
"722 23 OFFCURVE",
"727 39 OFFCURVE",
"727 49 CURVE SMOOTH",
"727 88 OFFCURVE",
"660 99 OFFCURVE",
"586 99 CURVE SMOOTH",
"540 99 OFFCURVE",
"491 95 OFFCURVE",
"455 90 CURVE",
"467 125 OFFCURVE",
"488 172 OFFCURVE",
"513 226 CURVE",
"532 227 LINE SMOOTH",
"570 229 OFFCURVE",
"607 231 OFFCURVE",
"639 231 CURVE SMOOTH",
"685 231 OFFCURVE",
"719 228 OFFCURVE",
"725 221 CURVE SMOOTH",
"733 213 OFFCURVE",
"734 238 OFFCURVE",
"734 242 CURVE SMOOTH",
"734 274 OFFCURVE",
"632 285 OFFCURVE",
"541 287 CURVE",
"545 294 LINE SMOOTH",
"580 355 OFFCURVE",
"608 420 OFFCURVE",
"637 471 CURVE SMOOTH",
"651 496 OFFCURVE",
"664 518 OFFCURVE",
"675 536 CURVE",
"695 537 OFFCURVE",
"714 538 OFFCURVE",
"732 538 CURVE SMOOTH",
"778 538 OFFCURVE",
"812 515 OFFCURVE",
"812 524 CURVE SMOOTH",
"812 526 LINE SMOOTH",
"812 534 OFFCURVE",
"814 547 OFFCURVE",
"814 556 CURVE SMOOTH",
"814 600 OFFCURVE",
"762 618 OFFCURVE",
"679 619 CURVE SMOOTH",
"652 619 OFFCURVE",
"625 619 OFFCURVE",
"600 615 CURVE SMOOTH",
"558 609 OFFCURVE",
"545 598 OFFCURVE",
"533 577 CURVE SMOOTH",
"523 559 LINE",
"515 573 OFFCURVE",
"503 584 OFFCURVE",
"489 593 CURVE SMOOTH",
"468 608 OFFCURVE",
"441 612 OFFCURVE",
"412 612 CURVE SMOOTH",
"187 612 OFFCURVE",
"50 321 OFFCURVE",
"61 126 CURVE SMOOTH",
"67 32 OFFCURVE",
"137 -10 OFFCURVE",
"213 -10 CURVE SMOOTH"
);
},
{
closed = 1;
nodes = (
"192 28 OFFCURVE",
"183 48 OFFCURVE",
"183 79 CURVE SMOOTH",
"183 145 OFFCURVE",
"225 258 OFFCURVE",
"254 322 CURVE SMOOTH",
"277 375 OFFCURVE",
"376 574 OFFCURVE",
"447 574 CURVE SMOOTH",
"472 574 OFFCURVE",
"482 549 OFFCURVE",
"482 512 CURVE SMOOTH",
"482 448 OFFCURVE",
"453 349 OFFCURVE",
"418 274 CURVE SMOOTH",
"343 113 OFFCURVE",
"270 28 OFFCURVE",
"217 28 CURVE SMOOTH"
);
}
);
};
layerId = "C623C401-2266-4A98-B253-3D45160C29C7";
paths = (
{
closed = 1;
nodes = (
"60 43 OFFCURVE",
"122 -10 OFFCURVE",
"216 -10 CURVE SMOOTH",
"408 -10 OFFCURVE",
"546 339 OFFCURVE",
"546 461 CURVE SMOOTH",
"546 554 OFFCURVE",
"505 612 OFFCURVE",
"412 612 CURVE SMOOTH",
"195 612 OFFCURVE",
"60 342 OFFCURVE",
"60 148 CURVE SMOOTH"
);
},
{
closed = 1;
nodes = (
"485 352 OFFCURVE",
"320 27 OFFCURVE",
"225 27 CURVE SMOOTH",
"199 27 OFFCURVE",
"183 52 OFFCURVE",
"183 94 CURVE SMOOTH",
"183 252 OFFCURVE",
"357 574 OFFCURVE",
"447 574 CURVE SMOOTH",
"474 574 OFFCURVE",
"485 554 OFFCURVE",
"485 508 CURVE SMOOTH"
);
},
{
closed = 1;
nodes = (
"467 -2 OFFCURVE",
"564 24 OFFCURVE",
"658 24 CURVE SMOOTH",
"678 24 OFFCURVE",
"698 22 OFFCURVE",
"708 16 CURVE SMOOTH",
"715 12 OFFCURVE",
"715 9 OFFCURVE",
"718 9 CURVE SMOOTH",
"723 9 OFFCURVE",
"726 30 OFFCURVE",
"726 51 CURVE SMOOTH",
"726 64 OFFCURVE",
"720 70 OFFCURVE",
"710 77 CURVE SMOOTH",
"689 92 OFFCURVE",
"644 99 OFFCURVE",
"584 99 CURVE SMOOTH",
"544 99 OFFCURVE",
"484 94 OFFCURVE",
"455 90 CURVE",
"500 211 OFFCURVE",
"610 435 OFFCURVE",
"681 556 CURVE",
"547 556 LINE",
"496 460 OFFCURVE",
"457 345 OFFCURVE",
"417 252 CURVE SMOOTH",
"383 170 OFFCURVE",
"347 102 OFFCURVE",
"347 74 CURVE SMOOTH",
"347 36 OFFCURVE",
"373 -2 OFFCURVE",
"423 -2 CURVE SMOOTH"
);
},
{
closed = 1;
nodes = (
"445 222 LINE",
"507 226 OFFCURVE",
"586 231 OFFCURVE",
"640 231 CURVE SMOOTH",
"680 231 OFFCURVE",
"705 228 OFFCURVE",
"717 224 CURVE SMOOTH",
"723 222 OFFCURVE",
"725 218 OFFCURVE",
"727 218 CURVE SMOOTH",
"728 218 OFFCURVE",
"729 220 OFFCURVE",
"730 222 CURVE SMOOTH",
"732 227 OFFCURVE",
"733 235 OFFCURVE",
"733 243 CURVE SMOOTH",
"733 258 OFFCURVE",
"710 271 OFFCURVE",
"652 279 CURVE SMOOTH",
"617 284 OFFCURVE",
"552 290 OFFCURVE",
"465 287 CURVE"
);
},
{
closed = 1;
nodes = (
"646 620 OFFCURVE",
"625 619 OFFCURVE",
"600 615 CURVE SMOOTH",
"558 609 OFFCURVE",
"544 597 OFFCURVE",
"533 577 CURVE SMOOTH",
"514 543 LINE",
"512 523 LINE",
"592 534 OFFCURVE",
"684 538 OFFCURVE",
"734 538 CURVE SMOOTH",
"766 538 OFFCURVE",
"787 534 OFFCURVE",
"796 529 CURVE SMOOTH",
"804 525 OFFCURVE",
"805 522 OFFCURVE",
"808 522 CURVE SMOOTH",
"812 522 OFFCURVE",
"815 533 OFFCURVE",
"815 548 CURVE SMOOTH",
"815 593 OFFCURVE",
"772 620 OFFCURVE",
"673 620 CURVE SMOOTH"
);
}
);
width = 750;
}
);
leftMetricsKey = O;
note = OE;
rightMetricsKey = E.ss02;
unicode = 0152;
},
{
glyphname = P;
lastChange = "2022-09-21 03:23:00 +0000";
layers = (
{
background = {
paths = (
{
closed = 1;
nodes = (
"225 -7 OFFCURVE",
"228 -5 OFFCURVE",
"228 -1 CURVE SMOOTH",
"228 1 OFFCURVE",
"228 3 OFFCURVE",
"226 5 CURVE SMOOTH",
"222 10 OFFCURVE",
"220 18 OFFCURVE",
"220 29 CURVE SMOOTH",
"220 70 OFFCURVE",
"247 152 OFFCURVE",
"283 239 CURVE",
"288 233 OFFCURVE",
"302 231 OFFCURVE",
"318 231 CURVE SMOOTH",
"346 231 OFFCURVE",
"383 237 OFFCURVE",
"401 243 CURVE SMOOTH",
"523 281 OFFCURVE",
"616 402 OFFCURVE",
"616 498 CURVE SMOOTH",
"616 576 OFFCURVE",
"553 634 OFFCURVE",
"419 634 CURVE SMOOTH",
"222 634 OFFCURVE",
"75 573 OFFCURVE",
"75 472 CURVE SMOOTH",
"75 437 OFFCURVE",
"132 425 OFFCURVE",
"140 424 CURVE",
"163 546 OFFCURVE",
"321 603 OFFCURVE",
"409 603 CURVE SMOOTH",
"476 603 OFFCURVE",
"501 566 OFFCURVE",
"501 516 CURVE SMOOTH",
"501 414 OFFCURVE",
"399 261 OFFCURVE",
"337 261 CURVE SMOOTH",
"326 261 OFFCURVE",
"299 263 OFFCURVE",
"295 267 CURVE",
"303 285 OFFCURVE",
"311 304 OFFCURVE",
"320 322 CURVE SMOOTH",
"348 381 OFFCURVE",
"391 476 OFFCURVE",
"434 525 CURVE SMOOTH",
"440 532 OFFCURVE",
"423 537 OFFCURVE",
"377 537 CURVE SMOOTH",
"335 537 OFFCURVE",
"301 524 OFFCURVE",
"276 485 CURVE SMOOTH",
"256 453 OFFCURVE",
"133 219 OFFCURVE",
"133 88 CURVE SMOOTH",
"133 50 OFFCURVE",
"143 21 OFFCURVE",
"170 8 CURVE SMOOTH",
"183 2 OFFCURVE",
"206 1 OFFCURVE",
"217 -4 CURVE SMOOTH"
);
}
);
};
layerId = "C623C401-2266-4A98-B253-3D45160C29C7";
paths = (
{
closed = 1;
nodes = (
"133 45 OFFCURVE",
"142 19 OFFCURVE",
"157 8 CURVE SMOOTH",
"178 -9 OFFCURVE",
"213 -15 OFFCURVE",
"225 -15 CURVE SMOOTH",
"228 -15 OFFCURVE",
"230 -14 OFFCURVE",
"230 -11 CURVE SMOOTH",
"230 -9 OFFCURVE",
"228 -7 OFFCURVE",
"226 -4 CURVE SMOOTH",
"222 2 OFFCURVE",
"220 10 OFFCURVE",
"220 19 CURVE SMOOTH",
"220 60 OFFCURVE",
"247 142 OFFCURVE",
"283 229 CURVE",
"291 225 OFFCURVE",
"309 220 OFFCURVE",
"327 220 CURVE SMOOTH",
"466 220 OFFCURVE",
"616 361 OFFCURVE",
"616 488 CURVE SMOOTH",
"616 566 OFFCURVE",
"553 624 OFFCURVE",
"419 624 CURVE SMOOTH",
"211 624 OFFCURVE",
"75 555 OFFCURVE",
"75 462 CURVE SMOOTH",
"75 438 OFFCURVE",
"105 419 OFFCURVE",
"140 414 CURVE",
"159 518 OFFCURVE",
"294 593 OFFCURVE",
"413 593 CURVE SMOOTH",
"470 593 OFFCURVE",
"501 559 OFFCURVE",
"501 506 CURVE SMOOTH",
"501 452 OFFCURVE",
"465 361 OFFCURVE",
"415 303 CURVE SMOOTH",
"387 270 OFFCURVE",
"359 249 OFFCURVE",
"327 249 CURVE SMOOTH",
"313 249 OFFCURVE",
"301 253 OFFCURVE",
"295 257 CURVE",
"330 354 OFFCURVE",
"374 449 OFFCURVE",
"436 531 CURVE SMOOTH",
"439 535 OFFCURVE",
"440 537 OFFCURVE",
"440 539 CURVE SMOOTH",
"440 541 OFFCURVE",
"438 543 OFFCURVE",
"427 545 CURVE SMOOTH",
"416 547 OFFCURVE",
"399 548 OFFCURVE",
"385 548 CURVE SMOOTH",
"337 548 OFFCURVE",
"299 532 OFFCURVE",
"270 479 CURVE SMOOTH",
"203 359 OFFCURVE",
"133 172 OFFCURVE",
"133 77 CURVE SMOOTH"
);
}
);
width = 531;
}
);
note = P;
unicode = 0050;
},
{
glyphname = Thorn;
lastChange = "2022-09-21 03:23:00 +0000";
layers = (
{
background = {
paths = (
{
closed = 1;
nodes = (
"718 231 LINE",
"723 227 OFFCURVE",
"744 220 OFFCURVE",
"765 220 CURVE SMOOTH",
"904 220 OFFCURVE",
"1054 361 OFFCURVE",
"1054 488 CURVE SMOOTH",
"1054 566 OFFCURVE",
"991 624 OFFCURVE",
"857 624 CURVE SMOOTH",
"649 624 OFFCURVE",
"513 555 OFFCURVE",
"513 462 CURVE SMOOTH",
"513 438 OFFCURVE",
"543 419 OFFCURVE",
"578 414 CURVE",
"597 518 OFFCURVE",
"732 593 OFFCURVE",
"851 593 CURVE SMOOTH",
"908 593 OFFCURVE",
"939 559 OFFCURVE",
"939 506 CURVE SMOOTH",
"939 452 OFFCURVE",
"903 361 OFFCURVE",
"853 303 CURVE SMOOTH",
"825 270 OFFCURVE",
"797 249 OFFCURVE",
"765 249 CURVE SMOOTH",
"748 249 OFFCURVE",
"734 255 OFFCURVE",
"730 260 CURVE"
);
},
{
closed = 1;
nodes = (
"415 440 OFFCURVE",
"484 531 CURVE SMOOTH",
"487 535 OFFCURVE",
"488 537 OFFCURVE",
"488 539 CURVE SMOOTH",
"488 541 OFFCURVE",
"486 543 OFFCURVE",
"475 545 CURVE SMOOTH",
"464 547 OFFCURVE",
"447 548 OFFCURVE",
"433 548 CURVE SMOOTH",
"385 548 OFFCURVE",
"347 532 OFFCURVE",
"318 479 CURVE SMOOTH",
"251 359 OFFCURVE",
"181 172 OFFCURVE",
"181 77 CURVE SMOOTH",
"181 45 OFFCURVE",
"190 19 OFFCURVE",
"205 8 CURVE SMOOTH",
"226 -9 OFFCURVE",
"261 -15 OFFCURVE",
"273 -15 CURVE SMOOTH",
"276 -15 OFFCURVE",
"278 -14 OFFCURVE",
"278 -11 CURVE SMOOTH",
"278 -9 OFFCURVE",
"276 -7 OFFCURVE",
"274 -4 CURVE SMOOTH",
"270 2 OFFCURVE",
"268 10 OFFCURVE",
"268 19 CURVE SMOOTH",
"268 113 OFFCURVE"
);
},
{
closed = 1;
nodes = (
"456 519 OFFCURVE",
"533 610 CURVE SMOOTH",
"536 614 OFFCURVE",
"537 616 OFFCURVE",
"537 618 CURVE SMOOTH",
"537 620 OFFCURVE",
"535 622 OFFCURVE",
"524 624 CURVE SMOOTH",
"513 626 OFFCURVE",
"492 628 OFFCURVE",
"478 628 CURVE SMOOTH",
"430 628 OFFCURVE",
"393 611 OFFCURVE",
"361 558 CURVE SMOOTH",
"273 413 OFFCURVE",
"181 172 OFFCURVE",
"181 77 CURVE SMOOTH",
"181 45 OFFCURVE",
"190 19 OFFCURVE",
"205 8 CURVE SMOOTH",
"226 -9 OFFCURVE",
"261 -15 OFFCURVE",
"273 -15 CURVE SMOOTH",
"276 -15 OFFCURVE",
"278 -14 OFFCURVE",
"278 -11 CURVE SMOOTH",
"278 -9 OFFCURVE",
"276 -7 OFFCURVE",
"274 -4 CURVE SMOOTH",
"270 2 OFFCURVE",
"268 10 OFFCURVE",
"268 19 CURVE SMOOTH",
"268 133 OFFCURVE"
);
}
);
};
layerId = "C623C401-2266-4A98-B253-3D45160C29C7";
paths = (
{
closed = 1;
nodes = (
"255 180 LINE",
"269 170 OFFCURVE",
"291 146 OFFCURVE",
"350 146 CURVE SMOOTH",
"506 146 OFFCURVE",
"631 266 OFFCURVE",
"631 392 CURVE SMOOTH",
"631 474 OFFCURVE",
"542 530 OFFCURVE",
"401 530 CURVE SMOOTH",
"213 530 OFFCURVE",
"70 458 OFFCURVE",
"70 360 CURVE SMOOTH",
"70 335 OFFCURVE",
"102 315 OFFCURVE",
"138 309 CURVE",
"158 419 OFFCURVE",
"300 497 OFFCURVE",
"395 497 CURVE SMOOTH",
"463 497 OFFCURVE",
"506 469 OFFCURVE",
"506 407 CURVE SMOOTH",
"506 329 OFFCURVE",
"441 182 OFFCURVE",
"343 182 CURVE SMOOTH",
"290 182 OFFCURVE",
"272 205 OFFCURVE",
"268 211 CURVE"
);
},
{
closed = 1;
nodes = (
"469 529 OFFCURVE",
"581 656 CURVE SMOOTH",
"584 660 OFFCURVE",
"585 662 OFFCURVE",
"585 664 CURVE SMOOTH",
"585 667 OFFCURVE",
"583 669 OFFCURVE",
"572 671 CURVE SMOOTH",
"560 673 OFFCURVE",
"537 675 OFFCURVE",
"522 675 CURVE SMOOTH",
"473 675 OFFCURVE",
"439 654 OFFCURVE",
"399 600 CURVE SMOOTH",
"285 445 OFFCURVE",
"177 176 OFFCURVE",
"177 74 CURVE SMOOTH",
"177 40 OFFCURVE",
"191 12 OFFCURVE",
"210 -2 CURVE SMOOTH",
"233 -18 OFFCURVE",
"262 -24 OFFCURVE",
"275 -24 CURVE SMOOTH",
"279 -24 OFFCURVE",
"281 -23 OFFCURVE",
"281 -20 CURVE SMOOTH",
"281 -18 OFFCURVE",
"279 -15 OFFCURVE",
"276 -12 CURVE SMOOTH",
"272 -6 OFFCURVE",
"270 3 OFFCURVE",
"270 12 CURVE SMOOTH",
"270 159 OFFCURVE"
);
}
);
width = 583;
}
);
note = Thorn;
unicode = 00DE;
},
{
glyphname = Q;
lastChange = "2022-09-21 03:23:00 +0000";
layers = (
{
anchors = (
{
name = bottom;
position = "{165, -2}";
},
{
name = center;
position = "{250, 298}";
},
{
name = ogonek;
position = "{194, 8}";
},
{
name = top;
position = "{440, 598}";
},
{
name = topleft;
position = "{35, 598}";
},
{
name = topright;
position = "{465, 598}";
}
);
background = {
paths = (
{
closed = 1;
nodes = (
"256 1 OFFCURVE",
"305 18 OFFCURVE",
"343 48 CURVE SMOOTH",
"404 96 OFFCURVE",
"458 177 OFFCURVE",
"492 252 CURVE SMOOTH",
"511 294 OFFCURVE",
"531 361 OFFCURVE",
"531 422 CURVE SMOOTH",
"531 477 OFFCURVE",
"514 528 OFFCURVE",
"463 550 CURVE SMOOTH",
"456 553 OFFCURVE",
"450 554 OFFCURVE",
"445 554 CURVE SMOOTH",
"438 554 OFFCURVE",
"434 552 OFFCURVE",
"434 547 CURVE SMOOTH",
"434 545 OFFCURVE",
"436 542 OFFCURVE",
"439 538 CURVE SMOOTH",
"452 524 OFFCURVE",
"458 496 OFFCURVE",
"458 460 CURVE SMOOTH",
"458 410 OFFCURVE",
"445 345 OFFCURVE",
"414 279 CURVE SMOOTH",
"341 122 OFFCURVE",
"268 38 OFFCURVE",
"215 38 CURVE SMOOTH",
"191 38 OFFCURVE",
"182 58 OFFCURVE",
"182 88 CURVE SMOOTH",
"182 153 OFFCURVE",
"224 264 OFFCURVE",
"252 327 CURVE SMOOTH",
"282 394 OFFCURVE",
"320 465 OFFCURVE",
"357 509 CURVE SMOOTH",
"389 546 OFFCURVE",
"429 585 OFFCURVE",
"466 585 CURVE SMOOTH",
"478 585 OFFCURVE",
"489 581 OFFCURVE",
"500 572 CURVE SMOOTH",
"504 568 OFFCURVE",
"507 567 OFFCURVE",
"510 567 CURVE SMOOTH",
"516 567 OFFCURVE",
"519 575 OFFCURVE",
"519 583 CURVE SMOOTH",
"519 589 OFFCURVE",
"517 596 OFFCURVE",
"514 599 CURVE SMOOTH",
"499 615 OFFCURVE",
"462 623 OFFCURVE",
"425 623 CURVE SMOOTH",
"345 623 OFFCURVE",
"287 596 OFFCURVE",
"230 545 CURVE SMOOTH",
"121 447 OFFCURVE",
"54 268 OFFCURVE",
"62 135 CURVE SMOOTH",
"67 42 OFFCURVE",
"135 1 OFFCURVE",
"209 1 CURVE SMOOTH"
);
},
{
closed = 1;
nodes = (
"395 -208 OFFCURVE",
"425 -163 OFFCURVE",
"425 -123 CURVE SMOOTH",
"425 -110 OFFCURVE",
"422 -97 OFFCURVE",
"415 -87 CURVE",
"403 -104 OFFCURVE",
"387 -113 OFFCURVE",
"370 -113 CURVE SMOOTH",
"363 -113 OFFCURVE",
"356 -111 OFFCURVE",
"349 -108 CURVE SMOOTH",
"277 -71 OFFCURVE",
"216 -5 OFFCURVE",
"132 -5 CURVE SMOOTH",
"92 -5 OFFCURVE",
"64 -23 OFFCURVE",
"60 -53 CURVE SMOOTH",
"60 -56 OFFCURVE",
"61 -60 OFFCURVE",
"66 -56 CURVE SMOOTH",
"73 -50 OFFCURVE",
"81 -48 OFFCURVE",
"90 -48 CURVE SMOOTH",
"114 -48 OFFCURVE",
"142 -64 OFFCURVE",
"152 -71 CURVE SMOOTH",
"176 -89 OFFCURVE",
"231 -157 OFFCURVE",
"284 -189 CURVE SMOOTH",
"306 -203 OFFCURVE",
"327 -208 OFFCURVE",
"345 -208 CURVE SMOOTH"
);
}
);
};
layerId = "C623C401-2266-4A98-B253-3D45160C29C7";
paths = (
{
closed = 1;
nodes = (
"388 -221 OFFCURVE",
"425 -184 OFFCURVE",
"425 -136 CURVE SMOOTH",
"425 -123 OFFCURVE",
"422 -110 OFFCURVE",
"415 -100 CURVE",
"415 -100 OFFCURVE",
"414 -100 OFFCURVE",
"414 -100 CURVE",
"402 -116 OFFCURVE",
"387 -126 OFFCURVE",
"371 -126 CURVE SMOOTH",
"341 -126 OFFCURVE",
"299 -89 OFFCURVE",
"257 -63 CURVE SMOOTH",
"212 -35 OFFCURVE",
"176 -18 OFFCURVE",
"132 -18 CURVE SMOOTH",
"92 -18 OFFCURVE",
"60 -39 OFFCURVE",
"60 -64 CURVE SMOOTH",
"60 -68 OFFCURVE",
"61 -70 OFFCURVE",
"63 -70 CURVE SMOOTH",
"65 -70 OFFCURVE",
"68 -68 OFFCURVE",
"74 -65 CURVE SMOOTH",
"78 -63 OFFCURVE",
"84 -61 OFFCURVE",
"91 -61 CURVE SMOOTH",
"128 -61 OFFCURVE",
"177 -108 OFFCURVE",
"201 -132 CURVE SMOOTH",
"266 -198 OFFCURVE",
"304 -221 OFFCURVE",
"345 -221 CURVE SMOOTH"
);
},
{
closed = 1;
nodes = (
"256 -12 OFFCURVE",
"307 7 OFFCURVE",
"344 36 CURVE SMOOTH",
"444 113 OFFCURVE",
"531 284 OFFCURVE",
"531 410 CURVE SMOOTH",
"531 473 OFFCURVE",
"510 516 OFFCURVE",
"466 535 CURVE SMOOTH",
"458 539 OFFCURVE",
"450 540 OFFCURVE",
"446 540 CURVE SMOOTH",
"439 540 OFFCURVE",
"434 537 OFFCURVE",
"434 533 CURVE SMOOTH",
"434 531 OFFCURVE",
"435 529 OFFCURVE",
"439 524 CURVE SMOOTH",
"452 509 OFFCURVE",
"459 481 OFFCURVE",
"459 444 CURVE SMOOTH",
"459 298 OFFCURVE",
"306 25 OFFCURVE",
"214 25 CURVE SMOOTH",
"193 25 OFFCURVE",
"182 41 OFFCURVE",
"182 77 CURVE SMOOTH",
"182 180 OFFCURVE",
"287 410 OFFCURVE",
"353 491 CURVE SMOOTH",
"384 529 OFFCURVE",
"428 572 OFFCURVE",
"466 572 CURVE SMOOTH",
"477 572 OFFCURVE",
"486 569 OFFCURVE",
"494 564 CURVE SMOOTH",
"502 559 OFFCURVE",
"505 554 OFFCURVE",
"510 554 CURVE SMOOTH",
"515 554 OFFCURVE",
"519 561 OFFCURVE",
"519 571 CURVE SMOOTH",
"519 577 OFFCURVE",
"518 581 OFFCURVE",
"514 586 CURVE SMOOTH",
"501 600 OFFCURVE",
"469 610 OFFCURVE",
"424 610 CURVE SMOOTH",
"346 610 OFFCURVE",
"288 584 OFFCURVE",
"230 532 CURVE SMOOTH",
"126 438 OFFCURVE",
"61 277 OFFCURVE",
"61 139 CURVE SMOOTH",
"61 46 OFFCURVE",
"117 -12 OFFCURVE",
"207 -12 CURVE SMOOTH"
);
}
);
width = 491;
}
);
leftMetricsKey = O;
note = Q;
rightMetricsKey = O;
unicode = 0051;
},
{
glyphname = R;
lastChange = "2022-09-21 03:23:00 +0000";
layers = (
{
anchors = (
{
name = bottom;
position = "{310, 0}";
},
{
name = top;
position = "{493, 600}";
}
);
background = {
anchors = (
{
name = bottom;
position = "{299, 0}";
},
{
name = top;
position = "{299, 633}";
}
);
paths = (
{
closed = 1;
nodes = (
"563 -76 OFFCURVE",
"599 0 OFFCURVE",
"587 -3 CURVE SMOOTH",
"538 -16 OFFCURVE",
"425 194 OFFCURVE",
"401 243 CURVE",
"523 281 OFFCURVE",
"616 402 OFFCURVE",
"616 498 CURVE SMOOTH",
"616 576 OFFCURVE",
"553 634 OFFCURVE",
"419 634 CURVE SMOOTH",
"222 634 OFFCURVE",
"75 573 OFFCURVE",
"75 472 CURVE SMOOTH",
"75 437 OFFCURVE",
"132 425 OFFCURVE",
"140 424 CURVE",
"163 546 OFFCURVE",
"321 603 OFFCURVE",
"409 603 CURVE SMOOTH",
"476 603 OFFCURVE",
"501 566 OFFCURVE",
"501 516 CURVE SMOOTH",
"501 414 OFFCURVE",
"399 261 OFFCURVE",
"337 261 CURVE SMOOTH",
"326 261 OFFCURVE",
"319 263 OFFCURVE",
"315 267 CURVE",
"350 364 OFFCURVE",
"402 473 OFFCURVE",
"460 546 CURVE SMOOTH",
"466 553 OFFCURVE",
"449 558 OFFCURVE",
"403 558 CURVE SMOOTH",
"361 558 OFFCURVE",
"324 543 OFFCURVE",
"299 504 CURVE SMOOTH",
"279 471 OFFCURVE",
"153 225 OFFCURVE",
"153 90 CURVE SMOOTH",
"153 51 OFFCURVE",
"164 21 OFFCURVE",
"190 8 CURVE SMOOTH",
"203 2 OFFCURVE",
"226 1 OFFCURVE",
"237 -4 CURVE SMOOTH",
"245 -7 OFFCURVE",
"248 -5 OFFCURVE",
"248 -1 CURVE SMOOTH",
"248 1 OFFCURVE",
"248 3 OFFCURVE",
"246 5 CURVE SMOOTH",
"242 10 OFFCURVE",
"240 18 OFFCURVE",
"240 29 CURVE SMOOTH",
"240 70 OFFCURVE",
"267 152 OFFCURVE",
"303 239 CURVE",
"306 235 OFFCURVE",
"310 232 OFFCURVE",
"315 229 CURVE",
"325 164 OFFCURVE",
"376 -78 OFFCURVE",
"491 -77 CURVE SMOOTH"
);
}
);
};
layerId = "C623C401-2266-4A98-B253-3D45160C29C7";
paths = (
{
closed = 1;
nodes = (
"312 225 LINE",
"325 144 OFFCURVE",
"373 -99 OFFCURVE",
"493 -97 CURVE SMOOTH",
"553 -96 OFFCURVE",
"590 -38 OFFCURVE",
"590 -25 CURVE SMOOTH",
"590 -23 OFFCURVE",
"589 -21 OFFCURVE",
"586 -21 CURVE SMOOTH",
"584 -21 OFFCURVE",
"582 -22 OFFCURVE",
"578 -22 CURVE SMOOTH",
"528 -22 OFFCURVE",
"411 197 OFFCURVE",
"397 229 CURVE"
);
},
{
closed = 1;
nodes = (
"153 35 OFFCURVE",
"162 9 OFFCURVE",
"177 -2 CURVE SMOOTH",
"198 -19 OFFCURVE",
"233 -25 OFFCURVE",
"245 -25 CURVE SMOOTH",
"248 -25 OFFCURVE",
"250 -24 OFFCURVE",
"250 -21 CURVE SMOOTH",
"250 -19 OFFCURVE",
"248 -17 OFFCURVE",
"246 -14 CURVE SMOOTH",
"242 -8 OFFCURVE",
"240 0 OFFCURVE",
"240 9 CURVE SMOOTH",
"240 50 OFFCURVE",
"267 132 OFFCURVE",
"303 219 CURVE",
"312 214 OFFCURVE",
"327 212 OFFCURVE",
"342 212 CURVE SMOOTH",
"462 212 OFFCURVE",
"616 347 OFFCURVE",
"616 478 CURVE SMOOTH",
"616 556 OFFCURVE",
"553 614 OFFCURVE",
"419 614 CURVE SMOOTH",
"211 614 OFFCURVE",
"75 535 OFFCURVE",
"75 458 CURVE SMOOTH",
"75 428 OFFCURVE",
"105 409 OFFCURVE",
"140 404 CURVE",
"159 508 OFFCURVE",
"294 583 OFFCURVE",
"413 583 CURVE SMOOTH",
"470 583 OFFCURVE",
"501 549 OFFCURVE",
"501 496 CURVE SMOOTH",
"501 398 OFFCURVE",
"403 241 OFFCURVE",
"337 241 CURVE SMOOTH",
"326 241 OFFCURVE",
"319 243 OFFCURVE",
"315 247 CURVE",
"350 344 OFFCURVE",
"394 439 OFFCURVE",
"456 521 CURVE SMOOTH",
"459 525 OFFCURVE",
"460 527 OFFCURVE",
"460 529 CURVE SMOOTH",
"460 531 OFFCURVE",
"458 533 OFFCURVE",
"447 535 CURVE SMOOTH",
"436 537 OFFCURVE",
"419 538 OFFCURVE",
"405 538 CURVE SMOOTH",
"357 538 OFFCURVE",
"319 522 OFFCURVE",
"290 469 CURVE SMOOTH",
"223 349 OFFCURVE",
"153 162 OFFCURVE",
"153 67 CURVE SMOOTH"
);
}
);
width = 566;
}
);
note = R;
unicode = 0052;
},
{
glyphname = S;
lastChange = "2022-06-03 20:39:54 +0000";
layers = (
{
anchors = (
{
name = bottom;
position = "{214, -12}";
},
{
name = top;
position = "{415, 600}";
}
);
background = {
anchors = (
{
name = bottom;
position = "{243, 0}";
},
{
name = top;
position = "{243, 633}";
}
);
paths = (
{
closed = 1;
nodes = (
"370 -24 OFFCURVE",
"446 29 OFFCURVE",
"446 115 CURVE SMOOTH",
"446 147 OFFCURVE",
"435 184 OFFCURVE",
"411 225 CURVE SMOOTH",
"371 290 OFFCURVE",
"315 357 OFFCURVE",
"315 426 CURVE SMOOTH",
"315 444 OFFCURVE",
"319 463 OFFCURVE",
"328 481 CURVE SMOOTH",
"353 531 OFFCURVE",
"381 545 OFFCURVE",
"404 545 CURVE SMOOTH",
"421 545 OFFCURVE",
"435 538 OFFCURVE",
"443 530 CURVE",
"430 495 OFFCURVE",
"421 446 OFFCURVE",
"421 409 CURVE SMOOTH",
"421 377 OFFCURVE",
"427 354 OFFCURVE",
"442 354 CURVE SMOOTH",
"444 354 OFFCURVE",
"447 355 OFFCURVE",
"450 356 CURVE",
"454 412 OFFCURVE",
"485 470 OFFCURVE",
"514 513 CURVE SMOOTH",
"529 535 OFFCURVE",
"548 557 OFFCURVE",
"575 583 CURVE SMOOTH",
"582 589 OFFCURVE",
"585 595 OFFCURVE",
"585 601 CURVE SMOOTH",
"585 613 OFFCURVE",
"571 621 OFFCURVE",
"551 621 CURVE SMOOTH",
"525 621 OFFCURVE",
"489 607 OFFCURVE",
"462 568 CURVE",
"447 574 LINE SMOOTH",
"414 587 OFFCURVE",
"373 590 OFFCURVE",
"343 590 CURVE SMOOTH",
"243 590 OFFCURVE",
"164 529 OFFCURVE",
"164 422 CURVE SMOOTH",
"164 377 OFFCURVE",
"185 333 OFFCURVE",
"212 292 CURVE SMOOTH",
"263 216 OFFCURVE",
"338 141 OFFCURVE",
"338 64 CURVE SMOOTH",
"338 23 OFFCURVE",
"318 6 OFFCURVE",
"289 6 CURVE SMOOTH",
"242 6 OFFCURVE",
"173 54 OFFCURVE",
"146 134 CURVE SMOOTH",
"131 179 OFFCURVE",
"120 233 OFFCURVE",
"120 270 CURVE SMOOTH",
"120 284 OFFCURVE",
"122 296 OFFCURVE",
"125 304 CURVE",
"64 293 OFFCURVE",
"42 232 OFFCURVE",
"42 171 CURVE SMOOTH",
"42 135 OFFCURVE",
"49 100 OFFCURVE",
"61 75 CURVE SMOOTH",
"96 4 OFFCURVE",
"176 -24 OFFCURVE",
"254 -24 CURVE SMOOTH"
);
},
{
closed = 1;
nodes = (
"343 209 OFFCURVE",
"371 237 OFFCURVE",
"371 271 CURVE SMOOTH",
"371 305 OFFCURVE",
"343 333 OFFCURVE",
"309 333 CURVE SMOOTH",
"275 333 OFFCURVE",
"247 305 OFFCURVE",
"247 271 CURVE SMOOTH",
"247 237 OFFCURVE",
"275 209 OFFCURVE",
"309 209 CURVE SMOOTH"
);
}
);
};
layerId = "C623C401-2266-4A98-B253-3D45160C29C7";
paths = (
{
closed = 1;
nodes = (
"377 -24 OFFCURVE",
"451 39 OFFCURVE",
"451 124 CURVE SMOOTH",
"451 178 OFFCURVE",
"418 222 OFFCURVE",
"385 272 CURVE SMOOTH",
"352 321 OFFCURVE",
"325 373 OFFCURVE",
"325 426 CURVE SMOOTH",
"325 484 OFFCURVE",
"371 545 OFFCURVE",
"414 545 CURVE SMOOTH",
"431 545 OFFCURVE",
"445 538 OFFCURVE",
"453 530 CURVE",
"435 487 OFFCURVE",
"429 446 OFFCURVE",
"429 419 CURVE SMOOTH",
"429 369 OFFCURVE",
"440 354 OFFCURVE",
"452 354 CURVE SMOOTH",
"455 354 OFFCURVE",
"458 355 OFFCURVE",
"460 356 CURVE",
"466 430 OFFCURVE",
"514 518 OFFCURVE",
"585 583 CURVE SMOOTH",
"593 591 OFFCURVE",
"595 595 OFFCURVE",
"595 601 CURVE SMOOTH",
"595 613 OFFCURVE",
"581 621 OFFCURVE",
"561 621 CURVE SMOOTH",
"535 621 OFFCURVE",
"498 607 OFFCURVE",
"471 568 CURVE",
"447 581 OFFCURVE",
"400 590 OFFCURVE",
"361 590 CURVE SMOOTH",
"246 590 OFFCURVE",
"174 525 OFFCURVE",
"174 422 CURVE SMOOTH",
"174 358 OFFCURVE",
"215 299 OFFCURVE",
"257 242 CURVE SMOOTH",
"302 183 OFFCURVE",
"341 128 OFFCURVE",
"341 66 CURVE SMOOTH",
"341 30 OFFCURVE",
"322 8 OFFCURVE",
"289 8 CURVE SMOOTH",
"235 8 OFFCURVE",
"193 48 OFFCURVE",
"164 103 CURVE SMOOTH",
"140 149 OFFCURVE",
"126 203 OFFCURVE",
"126 254 CURVE SMOOTH",
"126 271 OFFCURVE",
"129 288 OFFCURVE",
"132 304 CURVE",
"80 295 OFFCURVE",
"40 233 OFFCURVE",
"40 160 CURVE SMOOTH",
"40 40 OFFCURVE",
"129 -24 OFFCURVE",
"259 -24 CURVE SMOOTH"
);
}
);
width = 465;
}
);
note = S;
unicode = 0053;
},
{
glyphname = Germandbls;
lastChange = "2022-09-22 18:32:23 +0000";
layers = (
{
background = {
paths = (
{
closed = 1;
nodes = (
"3 -112 OFFCURVE",
"95 -26 OFFCURVE",
"137 34 CURVE SMOOTH",
"184 101 OFFCURVE",
"270 366 OFFCURVE",
"306 441 CURVE SMOOTH",
"340 509 OFFCURVE",
"364 554 OFFCURVE",
"408 554 CURVE SMOOTH",
"428 554 OFFCURVE",
"436 534 OFFCURVE",
"436 506 CURVE SMOOTH",
"436 459 OFFCURVE",
"413 390 OFFCURVE",
"384 358 CURVE SMOOTH",
"349 319 OFFCURVE",
"324 308 OFFCURVE",
"298 303 CURVE SMOOTH",
"290 302 OFFCURVE",
"286 298 OFFCURVE",
"286 295 CURVE SMOOTH",
"286 291 OFFCURVE",
"289 288 OFFCURVE",
"295 285 CURVE SMOOTH",
"333 268 OFFCURVE",
"347 217 OFFCURVE",
"347 172 CURVE SMOOTH",
"347 91 OFFCURVE",
"293 24 OFFCURVE",
"228 24 CURVE SMOOTH",
"214 24 OFFCURVE",
"200 27 OFFCURVE",
"186 34 CURVE SMOOTH",
"178 38 OFFCURVE",
"171 40 OFFCURVE",
"166 40 CURVE SMOOTH",
"159 40 OFFCURVE",
"156 37 OFFCURVE",
"156 32 CURVE SMOOTH",
"156 28 OFFCURVE",
"158 24 OFFCURVE",
"161 19 CURVE SMOOTH",
"181 -13 OFFCURVE",
"243 -10 OFFCURVE",
"275 -10 CURVE SMOOTH",
"390 -10 OFFCURVE",
"454 63 OFFCURVE",
"461 127 CURVE SMOOTH",
"462 136 OFFCURVE",
"462 145 OFFCURVE",
"462 154 CURVE SMOOTH",
"462 207 OFFCURVE",
"444 268 OFFCURVE",
"362 303 CURVE",
"425 309 OFFCURVE",
"542 368 OFFCURVE",
"542 465 CURVE SMOOTH",
"542 578 OFFCURVE",
"446 605 OFFCURVE",
"368 605 CURVE SMOOTH",
"275 605 OFFCURVE",
"219 536 OFFCURVE",
"181 455 CURVE SMOOTH",
"152 394 OFFCURVE",
"100 197 OFFCURVE",
"76 145 CURVE SMOOTH",
"31 49 OFFCURVE",
"-35 -50 OFFCURVE",
"-84 -65 CURVE SMOOTH",
"-92 -68 OFFCURVE",
"-97 -76 OFFCURVE",
"-97 -86 CURVE SMOOTH",
"-97 -98 OFFCURVE",
"-88 -112 OFFCURVE",
"-67 -112 CURVE SMOOTH"
);
}
);
};
layerId = "C623C401-2266-4A98-B253-3D45160C29C7";
paths = (
{
closed = 1;
nodes = (
"-15 -112 OFFCURVE",
"77 -26 OFFCURVE",
"119 34 CURVE SMOOTH",
"166 101 OFFCURVE",
"252 366 OFFCURVE",
"288 441 CURVE SMOOTH",
"330 526 OFFCURVE",
"355 554 OFFCURVE",
"390 554 CURVE SMOOTH",
"407 554 OFFCURVE",
"418 536 OFFCURVE",
"418 506 CURVE SMOOTH",
"418 418 OFFCURVE",
"365 326 OFFCURVE",
"280 303 CURVE SMOOTH",
"272 301 OFFCURVE",
"268 298 OFFCURVE",
"268 294 CURVE SMOOTH",
"268 290 OFFCURVE",
"271 288 OFFCURVE",
"278 284 CURVE SMOOTH",
"310 265 OFFCURVE",
"329 223 OFFCURVE",
"329 172 CURVE SMOOTH",
"329 91 OFFCURVE",
"275 24 OFFCURVE",
"210 24 CURVE SMOOTH",
"196 24 OFFCURVE",
"182 27 OFFCURVE",
"168 34 CURVE SMOOTH",
"160 38 OFFCURVE",
"153 40 OFFCURVE",
"148 40 CURVE SMOOTH",
"141 40 OFFCURVE",
"138 37 OFFCURVE",
"138 32 CURVE SMOOTH",
"138 7 OFFCURVE",
"182 -12 OFFCURVE",
"233 -12 CURVE SMOOTH",
"366 -12 OFFCURVE",
"444 52 OFFCURVE",
"444 154 CURVE SMOOTH",
"444 207 OFFCURVE",
"426 268 OFFCURVE",
"344 303 CURVE",
"407 309 OFFCURVE",
"524 368 OFFCURVE",
"524 465 CURVE SMOOTH",
"524 552 OFFCURVE",
"458 605 OFFCURVE",
"350 605 CURVE SMOOTH",
"270 605 OFFCURVE",
"211 558 OFFCURVE",
"163 455 CURVE SMOOTH",
"134 394 OFFCURVE",
"82 197 OFFCURVE",
"58 145 CURVE SMOOTH",
"12 45 OFFCURVE",
"-32 -26 OFFCURVE",
"-96 -63 CURVE SMOOTH",
"-109 -71 OFFCURVE",
"-115 -76 OFFCURVE",
"-115 -86 CURVE SMOOTH",
"-115 -98 OFFCURVE",
"-106 -112 OFFCURVE",
"-85 -112 CURVE SMOOTH"
);
}
);
width = 461;
}
);
unicode = 1E9E;
},
{
glyphname = T;
lastChange = "2022-09-21 03:27:02 +0000";
layers = (
{
anchors = (
{
name = bottom;
position = "{194, 0}";
},
{
name = center;
position = "{279, 328}";
},
{
name = top;
position = "{412, 600}";
}
);
background = {
anchors = (
{
name = bottom;
position = "{326, 0}";
},
{
name = center;
position = "{326, 317}";
},
{
name = top;
position = "{326, 633}";
}
);
paths = (
{
closed = 1;
nodes = (
"305 -27 OFFCURVE",
"308 -25 OFFCURVE",
"308 -21 CURVE SMOOTH",
"308 -19 OFFCURVE",
"308 -17 OFFCURVE",
"306 -15 CURVE SMOOTH",
"302 -10 OFFCURVE",
"300 -1 OFFCURVE",
"300 11 CURVE SMOOTH",
"300 70 OFFCURVE",
"349 201 OFFCURVE",
"405 317 CURVE SMOOTH",
"447 403 OFFCURVE",
"492 479 OFFCURVE",
"524 529 CURVE",
"605 531 OFFCURVE",
"678 524 OFFCURVE",
"688 508 CURVE SMOOTH",
"691 503 OFFCURVE",
"696 504 OFFCURVE",
"696 510 CURVE SMOOTH",
"696 512 LINE SMOOTH",
"696 520 OFFCURVE",
"698 535 OFFCURVE",
"698 545 CURVE SMOOTH",
"698 600 OFFCURVE",
"582 615 OFFCURVE",
"473 615 CURVE SMOOTH",
"390 615 OFFCURVE",
"311 607 OFFCURVE",
"287 602 CURVE SMOOTH",
"190 583 OFFCURVE",
"156 527 OFFCURVE",
"156 476 CURVE SMOOTH",
"156 423 OFFCURVE",
"191 375 OFFCURVE",
"228 375 CURVE SMOOTH",
"231 375 OFFCURVE",
"234 375 OFFCURVE",
"237 376 CURVE SMOOTH",
"241 377 OFFCURVE",
"246 381 OFFCURVE",
"246 387 CURVE SMOOTH",
"246 391 OFFCURVE",
"244 395 OFFCURVE",
"238 400 CURVE SMOOTH",
"220 414 OFFCURVE",
"213 427 OFFCURVE",
"213 439 CURVE SMOOTH",
"213 481 OFFCURVE",
"310 505 OFFCURVE",
"377 516 CURVE",
"339 451 OFFCURVE",
"207 201 OFFCURVE",
"207 68 CURVE SMOOTH",
"207 28 OFFCURVE",
"220 -2 OFFCURVE",
"250 -12 CURVE SMOOTH",
"264 -16 OFFCURVE",
"286 -19 OFFCURVE",
"297 -24 CURVE SMOOTH"
);
},
{
closed = 1;
nodes = (
"398 307 OFFCURVE",
"426 335 OFFCURVE",
"426 369 CURVE SMOOTH",
"426 403 OFFCURVE",
"398 431 OFFCURVE",
"364 431 CURVE SMOOTH",
"330 431 OFFCURVE",
"302 403 OFFCURVE",
"302 369 CURVE SMOOTH",
"302 335 OFFCURVE",
"330 307 OFFCURVE",
"364 307 CURVE SMOOTH"
);
}
);
};
layerId = "C623C401-2266-4A98-B253-3D45160C29C7";
paths = (
{
closed = 1;
nodes = (
"504 533 OFFCURVE",
"528 530 CURVE SMOOTH",
"554 527 OFFCURVE",
"579 521 OFFCURVE",
"595 509 CURVE SMOOTH",
"599 506 OFFCURVE",
"600 505 OFFCURVE",
"602 505 CURVE SMOOTH",
"605 505 OFFCURVE",
"607 508 OFFCURVE",
"607 514 CURVE SMOOTH",
"607 520 OFFCURVE",
"607 540 OFFCURVE",
"607 549 CURVE SMOOTH",
"607 604 OFFCURVE",
"521 619 OFFCURVE",
"412 619 CURVE SMOOTH",
"329 619 OFFCURVE",
"250 611 OFFCURVE",
"226 606 CURVE SMOOTH",
"129 587 OFFCURVE",
"95 531 OFFCURVE",
"95 480 CURVE SMOOTH",
"95 427 OFFCURVE",
"130 379 OFFCURVE",
"167 379 CURVE SMOOTH",
"178 379 OFFCURVE",
"185 384 OFFCURVE",
"185 391 CURVE SMOOTH",
"185 395 OFFCURVE",
"183 399 OFFCURVE",
"177 404 CURVE SMOOTH",
"159 418 OFFCURVE",
"152 431 OFFCURVE",
"152 443 CURVE SMOOTH",
"152 478 OFFCURVE",
"215 507 OFFCURVE",
"316 520 CURVE",
"297 488 OFFCURVE",
"256 412 OFFCURVE",
"219 322 CURVE SMOOTH",
"190 252 OFFCURVE",
"146 143 OFFCURVE",
"146 69 CURVE SMOOTH",
"146 48 OFFCURVE",
"151 14 OFFCURVE",
"171 0 CURVE SMOOTH",
"192 -15 OFFCURVE",
"231 -23 OFFCURVE",
"243 -23 CURVE SMOOTH",
"246 -23 OFFCURVE",
"248 -22 OFFCURVE",
"248 -19 CURVE SMOOTH",
"248 -17 OFFCURVE",
"246 -15 OFFCURVE",
"244 -12 CURVE SMOOTH",
"240 -6 OFFCURVE",
"238 2 OFFCURVE",
"238 11 CURVE SMOOTH",
"238 63 OFFCURVE",
"278 169 OFFCURVE",
"322 269 CURVE SMOOTH",
"369 376 OFFCURVE",
"426 477 OFFCURVE",
"463 533 CURVE",
"480 533 OFFCURVE"
);
}
);
width = 442;
}
);
note = T;
unicode = 0054;
},
{
glyphname = U;
lastChange = "2022-06-02 01:38:06 +0000";
layers = (
{
anchors = (
{
name = bottom;
position = "{370, 0}";
},
{
name = ogonek;
position = "{566, 10}";
},
{
name = top;
position = "{645, 600}";
},
{
name = topright;
position = "{766, 589}";
}
);
background = {
anchors = (
{
name = bottom;
position = "{351, 0}";
},
{
name = ogonek;
position = "{585, 10}";
},
{
name = top;
position = "{351, 633}";
},
{
name = topright;
position = "{624, 633}";
}
);
paths = (
{
closed = 1;
nodes = (
"548 -23 OFFCURVE",
"565 -20 OFFCURVE",
"585 -13 CURVE",
"580 -7 OFFCURVE",
"578 4 OFFCURVE",
"578 20 CURVE SMOOTH",
"578 80 OFFCURVE",
"612 204 OFFCURVE",
"664 314 CURVE SMOOTH",
"703 396 OFFCURVE",
"754 505 OFFCURVE",
"807 578 CURVE SMOOTH",
"815 589 OFFCURVE",
"795 598 OFFCURVE",
"749 597 CURVE SMOOTH",
"684 594 OFFCURVE",
"669 586 OFFCURVE",
"632 523 CURVE SMOOTH",
"624 510 OFFCURVE",
"609 479 OFFCURVE",
"587 440 CURVE SMOOTH",
"539 355 OFFCURVE",
"448 202 OFFCURVE",
"419 161 CURVE SMOOTH",
"394 127 OFFCURVE",
"352 83 OFFCURVE",
"332 83 CURVE SMOOTH",
"326 83 OFFCURVE",
"322 88 OFFCURVE",
"322 100 CURVE SMOOTH",
"322 105 OFFCURVE",
"323 113 OFFCURVE",
"325 122 CURVE SMOOTH",
"355 254 OFFCURVE",
"446 384 OFFCURVE",
"529 491 CURVE SMOOTH",
"550 517 OFFCURVE",
"566 544 OFFCURVE",
"566 565 CURVE SMOOTH",
"566 569 OFFCURVE",
"565 573 OFFCURVE",
"564 576 CURVE SMOOTH",
"558 596 OFFCURVE",
"542 622 OFFCURVE",
"519 627 CURVE SMOOTH",
"447 641 OFFCURVE",
"250 499 OFFCURVE",
"185 499 CURVE SMOOTH",
"171 499 OFFCURVE",
"161 503 OFFCURVE",
"161 513 CURVE SMOOTH",
"161 516 OFFCURVE",
"162 519 OFFCURVE",
"164 523 CURVE SMOOTH",
"166 527 OFFCURVE",
"167 531 OFFCURVE",
"167 533 CURVE SMOOTH",
"167 537 OFFCURVE",
"165 539 OFFCURVE",
"161 539 CURVE SMOOTH",
"154 539 OFFCURVE",
"143 533 OFFCURVE",
"136 523 CURVE SMOOTH",
"110 483 OFFCURVE",
"90 438 OFFCURVE",
"90 408 CURVE SMOOTH",
"90 393 OFFCURVE",
"94 382 OFFCURVE",
"106 378 CURVE SMOOTH",
"116 374 OFFCURVE",
"126 373 OFFCURVE",
"136 373 CURVE SMOOTH",
"233 373 OFFCURVE",
"345 532 OFFCURVE",
"402 553 CURVE SMOOTH",
"408 555 OFFCURVE",
"411 552 OFFCURVE",
"411 547 CURVE SMOOTH",
"411 527 OFFCURVE",
"379 470 OFFCURVE",
"373 460 CURVE SMOOTH",
"289 327 OFFCURVE",
"217 199 OFFCURVE",
"200 125 CURVE SMOOTH",
"197 110 OFFCURVE",
"195 96 OFFCURVE",
"195 84 CURVE SMOOTH",
"195 35 OFFCURVE",
"220 5 OFFCURVE",
"261 -9 CURVE SMOOTH",
"270 -12 OFFCURVE",
"278 -14 OFFCURVE",
"287 -14 CURVE SMOOTH",
"328 -14 OFFCURVE",
"366 20 OFFCURVE",
"394 64 CURVE SMOOTH",
"411 91 OFFCURVE",
"454 161 OFFCURVE",
"496 232 CURVE",
"485 201 OFFCURVE",
"476 170 OFFCURVE",
"469 140 CURVE SMOOTH",
"463 115 OFFCURVE",
"460 91 OFFCURVE",
"460 71 CURVE SMOOTH",
"460 15 OFFCURVE",
"482 -23 OFFCURVE",
"533 -23 CURVE SMOOTH"
);
},
{
closed = 1;
nodes = (
"659 317 OFFCURVE",
"687 345 OFFCURVE",
"687 379 CURVE SMOOTH",
"687 413 OFFCURVE",
"659 441 OFFCURVE",
"625 441 CURVE SMOOTH",
"591 441 OFFCURVE",
"563 413 OFFCURVE",
"563 379 CURVE SMOOTH",
"563 345 OFFCURVE",
"591 317 OFFCURVE",
"625 317 CURVE SMOOTH"
);
}
);
};
layerId = "C623C401-2266-4A98-B253-3D45160C29C7";
paths = (
{
closed = 1;
nodes = (
"493 223 LINE",
"479 183 OFFCURVE",
"460 119 OFFCURVE",
"460 71 CURVE SMOOTH",
"460 15 OFFCURVE",
"482 -23 OFFCURVE",
"533 -23 CURVE SMOOTH",
"549 -23 OFFCURVE",
"563 -20 OFFCURVE",
"585 -13 CURVE",
"581 -3 OFFCURVE",
"578 7 OFFCURVE",
"578 24 CURVE SMOOTH",
"578 80 OFFCURVE",
"612 204 OFFCURVE",
"664 314 CURVE SMOOTH",
"698 386 OFFCURVE",
"741 477 OFFCURVE",
"787 549 CURVE SMOOTH",
"799 567 OFFCURVE",
"808 578 OFFCURVE",
"808 583 CURVE SMOOTH",
"808 589 OFFCURVE",
"796 597 OFFCURVE",
"751 597 CURVE SMOOTH",
"687 597 OFFCURVE",
"665 580 OFFCURVE",
"632 523 CURVE SMOOTH",
"573 421 OFFCURVE",
"470 224 OFFCURVE",
"392 131 CURVE SMOOTH",
"370 104 OFFCURVE",
"347 83 OFFCURVE",
"333 83 CURVE SMOOTH",
"326 83 OFFCURVE",
"322 88 OFFCURVE",
"322 98 CURVE SMOOTH",
"322 135 OFFCURVE",
"353 221 OFFCURVE",
"395 295 CURVE SMOOTH",
"441 376 OFFCURVE",
"499 453 OFFCURVE",
"529 491 CURVE SMOOTH",
"550 517 OFFCURVE",
"566 544 OFFCURVE",
"566 565 CURVE SMOOTH",
"566 588 OFFCURVE",
"540 628 OFFCURVE",
"510 628 CURVE SMOOTH",
"463 628 OFFCURVE",
"388 588 OFFCURVE",
"319 553 CURVE SMOOTH",
"264 524 OFFCURVE",
"213 499 OFFCURVE",
"185 499 CURVE SMOOTH",
"170 499 OFFCURVE",
"161 504 OFFCURVE",
"161 513 CURVE SMOOTH",
"161 520 OFFCURVE",
"167 528 OFFCURVE",
"167 533 CURVE SMOOTH",
"167 537 OFFCURVE",
"164 539 OFFCURVE",
"159 539 CURVE SMOOTH",
"152 539 OFFCURVE",
"143 533 OFFCURVE",
"126 507 CURVE SMOOTH",
"109 481 OFFCURVE",
"90 435 OFFCURVE",
"90 408 CURVE SMOOTH",
"90 382 OFFCURVE",
"102 373 OFFCURVE",
"136 373 CURVE SMOOTH",
"175 373 OFFCURVE",
"227 399 OFFCURVE",
"306 475 CURVE SMOOTH",
"351 518 OFFCURVE",
"390 553 OFFCURVE",
"405 553 CURVE SMOOTH",
"409 553 OFFCURVE",
"411 550 OFFCURVE",
"411 546 CURVE SMOOTH",
"411 532 OFFCURVE",
"396 498 OFFCURVE",
"373 460 CURVE SMOOTH",
"316 368 OFFCURVE",
"289 322 OFFCURVE",
"266 278 CURVE SMOOTH",
"215 185 OFFCURVE",
"195 131 OFFCURVE",
"195 80 CURVE SMOOTH",
"195 24 OFFCURVE",
"240 -14 OFFCURVE",
"287 -14 CURVE SMOOTH",
"374 -14 OFFCURVE",
"451 155 OFFCURVE",
"491 224 CURVE"
);
}
);
width = 674;
}
);
note = U;
unicode = 0055;
},
{
glyphname = V;
lastChange = "2022-06-02 01:38:06 +0000";
layers = (
{
background = {
paths = (
{
closed = 1;
nodes = (
"426 -14 OFFCURVE",
"595 246 OFFCURVE",
"636 363 CURVE SMOOTH",
"647 393 OFFCURVE",
"660 428 OFFCURVE",
"660 460 CURVE SMOOTH",
"660 490 OFFCURVE",
"648 518 OFFCURVE",
"614 539 CURVE SMOOTH",
"581 559 OFFCURVE",
"540 569 OFFCURVE",
"522 569 CURVE SMOOTH",
"515 569 OFFCURVE",
"510 566 OFFCURVE",
"510 562 CURVE SMOOTH",
"510 560 OFFCURVE",
"513 558 OFFCURVE",
"519 558 CURVE SMOOTH",
"533 557 OFFCURVE",
"545 513 OFFCURVE",
"545 481 CURVE SMOOTH",
"545 398 OFFCURVE",
"394 31 OFFCURVE",
"312 31 CURVE SMOOTH",
"298 31 OFFCURVE",
"293 45 OFFCURVE",
"293 66 CURVE SMOOTH",
"293 180 OFFCURVE",
"409 381 OFFCURVE",
"449 498 CURVE SMOOTH",
"452 507 OFFCURVE",
"454 516 OFFCURVE",
"454 525 CURVE SMOOTH",
"454 573 OFFCURVE",
"406 611 OFFCURVE",
"325 611 CURVE SMOOTH",
"292 611 OFFCURVE",
"233 583 OFFCURVE",
"191 541 CURVE SMOOTH",
"137 486 OFFCURVE",
"97 401 OFFCURVE",
"97 336 CURVE SMOOTH",
"97 304 OFFCURVE",
"106 278 OFFCURVE",
"128 261 CURVE SMOOTH",
"137 254 OFFCURVE",
"145 251 OFFCURVE",
"150 251 CURVE SMOOTH",
"156 251 OFFCURVE",
"159 254 OFFCURVE",
"159 259 CURVE SMOOTH",
"159 262 OFFCURVE",
"159 265 OFFCURVE",
"157 268 CURVE SMOOTH",
"153 276 OFFCURVE",
"151 286 OFFCURVE",
"151 297 CURVE SMOOTH",
"151 346 OFFCURVE",
"184 423 OFFCURVE",
"244 507 CURVE SMOOTH",
"272 547 OFFCURVE",
"306 570 OFFCURVE",
"322 570 CURVE SMOOTH",
"334 570 OFFCURVE",
"340 562 OFFCURVE",
"340 548 CURVE SMOOTH",
"340 538 OFFCURVE",
"337 526 OFFCURVE",
"331 512 CURVE SMOOTH",
"289 412 OFFCURVE",
"178 247 OFFCURVE",
"178 90 CURVE SMOOTH",
"178 24 OFFCURVE",
"213 -14 OFFCURVE",
"280 -14 CURVE SMOOTH"
);
}
);
};
layerId = "C623C401-2266-4A98-B253-3D45160C29C7";
paths = (
{
closed = 1;
nodes = (
"452 576 OFFCURVE",
"401 611 OFFCURVE",
"333 611 CURVE SMOOTH",
"267 611 OFFCURVE",
"212 588 OFFCURVE",
"169 541 CURVE SMOOTH",
"119 485 OFFCURVE",
"85 418 OFFCURVE",
"85 350 CURVE SMOOTH",
"85 292 OFFCURVE",
"122 251 OFFCURVE",
"148 251 CURVE SMOOTH",
"154 251 OFFCURVE",
"157 254 OFFCURVE",
"157 259 CURVE SMOOTH",
"157 267 OFFCURVE",
"149 275 OFFCURVE",
"149 299 CURVE SMOOTH",
"149 351 OFFCURVE",
"185 415 OFFCURVE",
"204 449 CURVE SMOOTH",
"243 517 OFFCURVE",
"292 576 OFFCURVE",
"320 576 CURVE SMOOTH",
"332 576 OFFCURVE",
"338 568 OFFCURVE",
"338 554 CURVE SMOOTH",
"338 518 OFFCURVE",
"283 426 OFFCURVE",
"235 313 CURVE SMOOTH",
"205 243 OFFCURVE",
"177 152 OFFCURVE",
"177 105 CURVE SMOOTH",
"177 27 OFFCURVE",
"218 -14 OFFCURVE",
"298 -14 CURVE SMOOTH",
"434 -14 OFFCURVE",
"576 193 OFFCURVE",
"641 329 CURVE SMOOTH",
"665 379 OFFCURVE",
"679 435 OFFCURVE",
"679 467 CURVE SMOOTH",
"679 498 OFFCURVE",
"665 534 OFFCURVE",
"619 563 CURVE SMOOTH",
"595 578 OFFCURVE",
"559 589 OFFCURVE",
"531 589 CURVE SMOOTH",
"524 589 OFFCURVE",
"520 586 OFFCURVE",
"520 583 CURVE SMOOTH",
"520 580 OFFCURVE",
"522 578 OFFCURVE",
"527 577 CURVE SMOOTH",
"534 575 OFFCURVE",
"538 572 OFFCURVE",
"543 563 CURVE SMOOTH",
"550 551 OFFCURVE",
"555 529 OFFCURVE",
"555 506 CURVE SMOOTH",
"555 437 OFFCURVE",
"500 294 OFFCURVE",
"451 203 CURVE SMOOTH",
"382 76 OFFCURVE",
"340 31 OFFCURVE",
"312 31 CURVE SMOOTH",
"297 31 OFFCURVE",
"291 49 OFFCURVE",
"291 71 CURVE SMOOTH",
"291 115 OFFCURVE",
"313 187 OFFCURVE",
"348 269 CURVE SMOOTH",
"392 371 OFFCURVE",
"452 486 OFFCURVE",
"452 523 CURVE SMOOTH"
);
}
);
width = 619;
}
);
note = V;
unicode = 0056;
},
{
glyphname = W;
lastChange = "2022-06-02 01:38:06 +0000";
layers = (
{
anchors = (
{
name = bottom;
position = "{437, -11}";
},
{
name = top;
position = "{674, 562}";
}
);
background = {
anchors = (
{
name = bottom;
position = "{437, 0}";
},
{
name = top;
position = "{437, 633}";
}
);
paths = (
{
closed = 1;
nodes = (
"332 -14 OFFCURVE",
"386 41 OFFCURVE",
"431 115 CURVE",
"432 33 OFFCURVE",
"475 -13 OFFCURVE",
"551 -13 CURVE SMOOTH",
"687 -13 OFFCURVE",
"829 211 OFFCURVE",
"891 373 CURVE SMOOTH",
"907 414 OFFCURVE",
"921 466 OFFCURVE",
"921 510 CURVE SMOOTH",
"921 563 OFFCURVE",
"900 606 OFFCURVE",
"838 606 CURVE SMOOTH",
"827 606 OFFCURVE",
"816 605 OFFCURVE",
"803 602 CURVE SMOOTH",
"794 601 OFFCURVE",
"788 594 OFFCURVE",
"788 590 CURVE SMOOTH",
"788 586 OFFCURVE",
"791 584 OFFCURVE",
"796 584 CURVE SMOOTH",
"808 584 OFFCURVE",
"813 571 OFFCURVE",
"813 550 CURVE SMOOTH",
"813 473 OFFCURVE",
"745 286 OFFCURVE",
"721 236 CURVE SMOOTH",
"669 127 OFFCURVE",
"606 28 OFFCURVE",
"558 28 CURVE SMOOTH",
"544 28 OFFCURVE",
"538 44 OFFCURVE",
"538 70 CURVE SMOOTH",
"538 163 OFFCURVE",
"619 393 OFFCURVE",
"713 517 CURVE SMOOTH",
"720 525 OFFCURVE",
"695 532 OFFCURVE",
"659 530 CURVE SMOOTH",
"607 529 OFFCURVE",
"591 538 OFFCURVE",
"556 486 CURVE SMOOTH",
"538 459 OFFCURVE",
"505 383 OFFCURVE",
"470 286 CURVE",
"404 146 OFFCURVE",
"342 31 OFFCURVE",
"300 31 CURVE SMOOTH",
"286 31 OFFCURVE",
"281 45 OFFCURVE",
"281 66 CURVE SMOOTH",
"281 180 OFFCURVE",
"397 381 OFFCURVE",
"437 498 CURVE SMOOTH",
"440 507 OFFCURVE",
"442 517 OFFCURVE",
"442 525 CURVE SMOOTH",
"442 573 OFFCURVE",
"395 611 OFFCURVE",
"313 611 CURVE SMOOTH",
"280 611 OFFCURVE",
"221 583 OFFCURVE",
"179 541 CURVE SMOOTH",
"125 486 OFFCURVE",
"85 401 OFFCURVE",
"85 336 CURVE SMOOTH",
"85 304 OFFCURVE",
"94 278 OFFCURVE",
"116 261 CURVE SMOOTH",
"125 254 OFFCURVE",
"133 251 OFFCURVE",
"138 251 CURVE SMOOTH",
"144 251 OFFCURVE",
"147 254 OFFCURVE",
"147 259 CURVE SMOOTH",
"147 262 OFFCURVE",
"147 265 OFFCURVE",
"145 268 CURVE SMOOTH",
"141 276 OFFCURVE",
"139 286 OFFCURVE",
"139 297 CURVE SMOOTH",
"139 346 OFFCURVE",
"172 423 OFFCURVE",
"232 507 CURVE SMOOTH",
"260 547 OFFCURVE",
"295 570 OFFCURVE",
"311 570 CURVE SMOOTH",
"322 570 OFFCURVE",
"328 562 OFFCURVE",
"328 549 CURVE SMOOTH",
"328 539 OFFCURVE",
"325 526 OFFCURVE",
"319 512 CURVE SMOOTH",
"277 412 OFFCURVE",
"166 247 OFFCURVE",
"166 90 CURVE SMOOTH",
"166 24 OFFCURVE",
"201 -14 OFFCURVE",
"268 -14 CURVE SMOOTH"
);
}
);
};
layerId = "C623C401-2266-4A98-B253-3D45160C29C7";
paths = (
{
closed = 1;
nodes = (
"342 31 OFFCURVE",
"301 31 CURVE SMOOTH",
"286 31 OFFCURVE",
"281 43 OFFCURVE",
"281 66 CURVE SMOOTH",
"281 113 OFFCURVE",
"303 187 OFFCURVE",
"338 269 CURVE SMOOTH",
"382 371 OFFCURVE",
"442 487 OFFCURVE",
"442 523 CURVE SMOOTH",
"442 577 OFFCURVE",
"386 611 OFFCURVE",
"323 611 CURVE SMOOTH",
"272 611 OFFCURVE",
"212 578 OFFCURVE",
"169 531 CURVE SMOOTH",
"119 475 OFFCURVE",
"85 396 OFFCURVE",
"85 338 CURVE SMOOTH",
"85 280 OFFCURVE",
"115 251 OFFCURVE",
"138 251 CURVE SMOOTH",
"144 251 OFFCURVE",
"147 254 OFFCURVE",
"147 259 CURVE SMOOTH",
"147 267 OFFCURVE",
"139 275 OFFCURVE",
"139 299 CURVE SMOOTH",
"139 351 OFFCURVE",
"175 415 OFFCURVE",
"194 449 CURVE SMOOTH",
"233 517 OFFCURVE",
"282 570 OFFCURVE",
"310 570 CURVE SMOOTH",
"322 570 OFFCURVE",
"328 562 OFFCURVE",
"328 548 CURVE SMOOTH",
"328 510 OFFCURVE",
"266 415 OFFCURVE",
"218 302 CURVE SMOOTH",
"188 232 OFFCURVE",
"166 159 OFFCURVE",
"166 92 CURVE SMOOTH",
"166 18 OFFCURVE",
"205 -14 OFFCURVE",
"269 -14 CURVE SMOOTH",
"330 -14 OFFCURVE",
"382 36 OFFCURVE",
"431 115 CURVE",
"432 33 OFFCURVE",
"475 -13 OFFCURVE",
"551 -13 CURVE SMOOTH",
"687 -13 OFFCURVE",
"829 211 OFFCURVE",
"891 373 CURVE SMOOTH",
"907 414 OFFCURVE",
"921 466 OFFCURVE",
"921 510 CURVE SMOOTH",
"921 575 OFFCURVE",
"890 606 OFFCURVE",
"838 606 CURVE SMOOTH",
"801 606 OFFCURVE",
"788 598 OFFCURVE",
"788 590 CURVE SMOOTH",
"788 586 OFFCURVE",
"791 584 OFFCURVE",
"796 584 CURVE SMOOTH",
"809 584 OFFCURVE",
"813 575 OFFCURVE",
"813 550 CURVE SMOOTH",
"813 473 OFFCURVE",
"745 286 OFFCURVE",
"721 236 CURVE SMOOTH",
"669 127 OFFCURVE",
"606 28 OFFCURVE",
"561 28 CURVE SMOOTH",
"544 28 OFFCURVE",
"538 44 OFFCURVE",
"538 70 CURVE SMOOTH",
"538 126 OFFCURVE",
"568 231 OFFCURVE",
"610 332 CURVE SMOOTH",
"637 396 OFFCURVE",
"668 456 OFFCURVE",
"704 505 CURVE SMOOTH",
"710 513 OFFCURVE",
"714 517 OFFCURVE",
"714 520 CURVE SMOOTH",
"714 527 OFFCURVE",
"691 532 OFFCURVE",
"659 532 CURVE SMOOTH",
"595 532 OFFCURVE",
"582 526 OFFCURVE",
"556 486 CURVE SMOOTH",
"530 444 OFFCURVE",
"495 340 OFFCURVE",
"470 287 CURVE SMOOTH",
"404 146 OFFCURVE"
);
}
);
width = 851;
}
);
note = W;
unicode = 0057;
},
{
glyphname = X;
lastChange = "2022-06-02 01:38:06 +0000";
layers = (
{
background = {
paths = (
{
closed = 1;
nodes = (
"21 -10 OFFCURVE",
"28 -10 OFFCURVE",
"34 -8 CURVE SMOOTH",
"61 0 OFFCURVE",
"155 113 OFFCURVE",
"212 192 CURVE",
"223 80 OFFCURVE",
"255 -3 OFFCURVE",
"324 -3 CURVE SMOOTH",
"372 -3 OFFCURVE",
"412 41 OFFCURVE",
"444 85 CURVE SMOOTH",
"462 110 OFFCURVE",
"468 126 OFFCURVE",
"468 134 CURVE SMOOTH",
"468 138 OFFCURVE",
"466 140 OFFCURVE",
"463 140 CURVE SMOOTH",
"458 140 OFFCURVE",
"451 135 OFFCURVE",
"445 127 CURVE SMOOTH",
"426 102 OFFCURVE",
"410 92 OFFCURVE",
"396 92 CURVE SMOOTH",
"378 92 OFFCURVE",
"365 109 OFFCURVE",
"355 132 CURVE SMOOTH",
"342 164 OFFCURVE",
"336 220 OFFCURVE",
"335 280 CURVE",
"442 393 OFFCURVE",
"536 501 OFFCURVE",
"558 560 CURVE SMOOTH",
"560 566 OFFCURVE",
"561 572 OFFCURVE",
"561 578 CURVE SMOOTH",
"561 604 OFFCURVE",
"540 623 OFFCURVE",
"526 623 CURVE SMOOTH",
"521 623 OFFCURVE",
"517 621 OFFCURVE",
"515 616 CURVE SMOOTH",
"479 526 OFFCURVE",
"400 411 OFFCURVE",
"335 333 CURVE",
"336 400 OFFCURVE",
"341 463 OFFCURVE",
"345 494 CURVE SMOOTH",
"346 505 OFFCURVE",
"350 522 OFFCURVE",
"350 538 CURVE SMOOTH",
"350 558 OFFCURVE",
"345 576 OFFCURVE",
"323 576 CURVE SMOOTH",
"303 576 OFFCURVE",
"271 558 OFFCURVE",
"222 514 CURVE",
"201 454 OFFCURVE",
"165 339 OFFCURVE",
"63 264 CURVE SMOOTH",
"58 261 OFFCURVE",
"56 257 OFFCURVE",
"56 253 CURVE SMOOTH",
"56 245 OFFCURVE",
"63 239 OFFCURVE",
"72 239 CURVE SMOOTH",
"76 239 OFFCURVE",
"80 240 OFFCURVE",
"84 243 CURVE SMOOTH",
"140 280 OFFCURVE",
"180 319 OFFCURVE",
"209 360 CURVE",
"208 332 OFFCURVE",
"208 305 OFFCURVE",
"208 279 CURVE SMOOTH",
"208 247 LINE",
"133 149 OFFCURVE",
"18 43 OFFCURVE",
"-19 20 CURVE SMOOTH",
"-27 15 OFFCURVE",
"-30 11 OFFCURVE",
"-30 7 CURVE SMOOTH",
"-30 -4 OFFCURVE",
"-7 -10 OFFCURVE",
"14 -10 CURVE SMOOTH"
);
}
);
};
layerId = "C623C401-2266-4A98-B253-3D45160C29C7";
paths = (
{
closed = 1;
nodes = (
"21 -20 OFFCURVE",
"29 -19 OFFCURVE",
"35 -17 CURVE SMOOTH",
"41 -15 OFFCURVE",
"51 -8 OFFCURVE",
"64 4 CURVE SMOOTH",
"104 42 OFFCURVE",
"169 122 OFFCURVE",
"212 182 CURVE",
"223 70 OFFCURVE",
"255 -13 OFFCURVE",
"324 -13 CURVE SMOOTH",
"372 -13 OFFCURVE",
"412 31 OFFCURVE",
"444 75 CURVE SMOOTH",
"462 100 OFFCURVE",
"468 116 OFFCURVE",
"468 124 CURVE SMOOTH",
"468 129 OFFCURVE",
"466 133 OFFCURVE",
"462 133 CURVE SMOOTH",
"458 133 OFFCURVE",
"455 129 OFFCURVE",
"449 122 CURVE SMOOTH",
"426 95 OFFCURVE",
"410 85 OFFCURVE",
"396 85 CURVE SMOOTH",
"378 85 OFFCURVE",
"365 99 OFFCURVE",
"355 122 CURVE SMOOTH",
"342 154 OFFCURVE",
"336 210 OFFCURVE",
"335 270 CURVE",
"442 383 OFFCURVE",
"536 491 OFFCURVE",
"558 550 CURVE SMOOTH",
"560 556 OFFCURVE",
"561 562 OFFCURVE",
"561 568 CURVE SMOOTH",
"561 594 OFFCURVE",
"539 614 OFFCURVE",
"525 614 CURVE SMOOTH",
"520 614 OFFCURVE",
"517 611 OFFCURVE",
"515 606 CURVE SMOOTH",
"478 514 OFFCURVE",
"400 401 OFFCURVE",
"335 323 CURVE",
"336 390 OFFCURVE",
"340 450 OFFCURVE",
"344 481 CURVE SMOOTH",
"345 492 OFFCURVE",
"350 526 OFFCURVE",
"350 541 CURVE SMOOTH",
"350 564 OFFCURVE",
"341 576 OFFCURVE",
"323 576 CURVE SMOOTH",
"303 576 OFFCURVE",
"271 558 OFFCURVE",
"222 514 CURVE",
"201 454 OFFCURVE",
"165 339 OFFCURVE",
"63 264 CURVE SMOOTH",
"58 261 OFFCURVE",
"56 257 OFFCURVE",
"56 253 CURVE SMOOTH",
"56 245 OFFCURVE",
"62 239 OFFCURVE",
"72 239 CURVE SMOOTH",
"84 239 OFFCURVE",
"107 258 OFFCURVE",
"135 281 CURVE SMOOTH",
"165 306 OFFCURVE",
"193 335 OFFCURVE",
"209 360 CURVE",
"208 332 OFFCURVE",
"208 305 OFFCURVE",
"208 269 CURVE SMOOTH",
"208 237 LINE",
"149 160 OFFCURVE",
"63 74 OFFCURVE",
"-4 21 CURVE SMOOTH",
"-19 9 OFFCURVE",
"-30 4 OFFCURVE",
"-30 -3 CURVE SMOOTH",
"-30 -14 OFFCURVE",
"-7 -20 OFFCURVE",
"14 -20 CURVE SMOOTH"
);
}
);
width = 466;
}
);
note = X;
unicode = 0058;
},
{
glyphname = Y;
lastChange = "2022-06-02 01:38:06 +0000";
layers = (
{
anchors = (
{
name = bottom;
position = "{655, -20}";
},
{
name = top;
position = "{645, 580}";
},
{
name = topleft;
position = "{67, 580}";
}
);
background = {
anchors = (
{
name = bottom;
position = "{350, 0}";
},
{
name = top;
position = "{350, 633}";
},
{
name = topleft;
position = "{67, 633}";
}
);
paths = (
{
closed = 1;
nodes = (
"454 -206 OFFCURVE",
"531 -50 OFFCURVE",
"583 68 CURVE SMOOTH",
"610 130 OFFCURVE",
"774 559 OFFCURVE",
"817 581 CURVE SMOOTH",
"823 584 OFFCURVE",
"826 588 OFFCURVE",
"826 591 CURVE SMOOTH",
"826 594 OFFCURVE",
"823 596 OFFCURVE",
"818 596 CURVE SMOOTH",
"709 596 LINE SMOOTH",
"670 596 OFFCURVE",
"661 560 OFFCURVE",
"640 506 CURVE SMOOTH",
"607 418 OFFCURVE",
"431 127 OFFCURVE",
"385 93 CURVE SMOOTH",
"374 85 OFFCURVE",
"362 78 OFFCURVE",
"353 78 CURVE SMOOTH",
"345 78 OFFCURVE",
"339 83 OFFCURVE",
"339 97 CURVE SMOOTH",
"339 107 OFFCURVE",
"342 121 OFFCURVE",
"349 141 CURVE SMOOTH",
"364 184 OFFCURVE",
"391 243 OFFCURVE",
"418 302 CURVE SMOOTH",
"437 346 OFFCURVE",
"497 450 OFFCURVE",
"530 504 CURVE SMOOTH",
"545 530 OFFCURVE",
"555 548 OFFCURVE",
"555 566 CURVE SMOOTH",
"555 576 OFFCURVE",
"552 587 OFFCURVE",
"544 599 CURVE SMOOTH",
"535 612 OFFCURVE",
"523 624 OFFCURVE",
"510 627 CURVE SMOOTH",
"437 641 OFFCURVE",
"244 499 OFFCURVE",
"173 499 CURVE SMOOTH",
"162 499 OFFCURVE",
"151 502 OFFCURVE",
"151 511 CURVE SMOOTH",
"151 514 OFFCURVE",
"153 518 OFFCURVE",
"155 523 CURVE SMOOTH",
"157 526 OFFCURVE",
"158 529 OFFCURVE",
"158 531 CURVE SMOOTH",
"158 536 OFFCURVE",
"155 538 OFFCURVE",
"150 538 CURVE SMOOTH",
"144 538 OFFCURVE",
"134 534 OFFCURVE",
"127 523 CURVE SMOOTH",
"100 484 OFFCURVE",
"80 438 OFFCURVE",
"80 408 CURVE SMOOTH",
"80 393 OFFCURVE",
"85 382 OFFCURVE",
"97 378 CURVE SMOOTH",
"107 374 OFFCURVE",
"117 373 OFFCURVE",
"127 373 CURVE SMOOTH",
"224 373 OFFCURVE",
"336 532 OFFCURVE",
"393 553 CURVE SMOOTH",
"398 555 OFFCURVE",
"400 552 OFFCURVE",
"400 547 CURVE SMOOTH",
"400 507 OFFCURVE",
"291 303 OFFCURVE",
"245 201 CURVE SMOOTH",
"225 155 OFFCURVE",
"214 115 OFFCURVE",
"214 82 CURVE SMOOTH",
"214 30 OFFCURVE",
"241 -2 OFFCURVE",
"293 -12 CURVE SMOOTH",
"297 -13 OFFCURVE",
"301 -13 OFFCURVE",
"306 -13 CURVE SMOOTH",
"358 -13 OFFCURVE",
"405 48 OFFCURVE",
"446 119 CURVE SMOOTH",
"459 143 OFFCURVE",
"500 203 OFFCURVE",
"540 262 CURVE",
"525 229 OFFCURVE",
"510 196 OFFCURVE",
"494 163 CURVE SMOOTH",
"456 79 OFFCURVE",
"385 -168 OFFCURVE",
"270 -168 CURVE SMOOTH",
"258 -168 OFFCURVE",
"246 -165 OFFCURVE",
"234 -160 CURVE SMOOTH",
"231 -159 OFFCURVE",
"228 -158 OFFCURVE",
"225 -158 CURVE SMOOTH",
"217 -158 OFFCURVE",
"213 -163 OFFCURVE",
"213 -169 CURVE SMOOTH",
"213 -173 OFFCURVE",
"215 -178 OFFCURVE",
"220 -182 CURVE SMOOTH",
"246 -203 OFFCURVE",
"274 -206 OFFCURVE",
"300 -206 CURVE SMOOTH"
);
}
);
};
layerId = "C623C401-2266-4A98-B253-3D45160C29C7";
paths = (
{
closed = 1;
nodes = (
"534 229 LINE",
"505 165 OFFCURVE",
"424 -55 OFFCURVE",
"368 -126 CURVE SMOOTH",
"336 -166 OFFCURVE",
"306 -188 OFFCURVE",
"270 -188 CURVE SMOOTH",
"245 -188 OFFCURVE",
"235 -178 OFFCURVE",
"224 -178 CURVE SMOOTH",
"218 -178 OFFCURVE",
"213 -182 OFFCURVE",
"213 -189 CURVE SMOOTH",
"213 -207 OFFCURVE",
"253 -226 OFFCURVE",
"296 -226 CURVE SMOOTH",
"404 -226 OFFCURVE",
"487 -158 OFFCURVE",
"560 -2 CURVE SMOOTH",
"616 118 OFFCURVE",
"700 344 OFFCURVE",
"757 463 CURVE SMOOTH",
"779 507 OFFCURVE",
"799 546 OFFCURVE",
"815 560 CURVE SMOOTH",
"822 566 OFFCURVE",
"826 568 OFFCURVE",
"826 571 CURVE SMOOTH",
"826 574 OFFCURVE",
"824 576 OFFCURVE",
"817 576 CURVE SMOOTH",
"717 576 LINE SMOOTH",
"682 576 OFFCURVE",
"672 569 OFFCURVE",
"652 517 CURVE SMOOTH",
"607 398 OFFCURVE",
"477 182 OFFCURVE",
"409 99 CURVE SMOOTH",
"387 72 OFFCURVE",
"367 58 OFFCURVE",
"353 58 CURVE SMOOTH",
"346 58 OFFCURVE",
"339 64 OFFCURVE",
"339 74 CURVE SMOOTH",
"339 144 OFFCURVE",
"477 398 OFFCURVE",
"512 456 CURVE SMOOTH",
"529 485 OFFCURVE",
"556 524 OFFCURVE",
"556 545 CURVE SMOOTH",
"556 568 OFFCURVE",
"530 608 OFFCURVE",
"500 608 CURVE SMOOTH",
"453 608 OFFCURVE",
"378 568 OFFCURVE",
"309 533 CURVE SMOOTH",
"254 504 OFFCURVE",
"203 479 OFFCURVE",
"175 479 CURVE SMOOTH",
"160 479 OFFCURVE",
"151 484 OFFCURVE",
"151 493 CURVE SMOOTH",
"151 500 OFFCURVE",
"157 508 OFFCURVE",
"157 513 CURVE SMOOTH",
"157 517 OFFCURVE",
"154 519 OFFCURVE",
"149 519 CURVE SMOOTH",
"142 519 OFFCURVE",
"133 513 OFFCURVE",
"116 487 CURVE SMOOTH",
"99 461 OFFCURVE",
"80 415 OFFCURVE",
"80 388 CURVE SMOOTH",
"80 362 OFFCURVE",
"92 353 OFFCURVE",
"126 353 CURVE SMOOTH",
"165 353 OFFCURVE",
"217 379 OFFCURVE",
"296 455 CURVE SMOOTH",
"341 498 OFFCURVE",
"380 533 OFFCURVE",
"395 533 CURVE SMOOTH",
"399 533 OFFCURVE",
"401 530 OFFCURVE",
"401 526 CURVE SMOOTH",
"401 496 OFFCURVE",
"337 369 OFFCURVE",
"295 287 CURVE SMOOTH",
"246 192 OFFCURVE",
"213 112 OFFCURVE",
"213 61 CURVE SMOOTH",
"213 5 OFFCURVE",
"258 -33 OFFCURVE",
"305 -33 CURVE SMOOTH",
"388 -33 OFFCURVE",
"441 91 OFFCURVE",
"533 230 CURVE"
);
}
);
width = 691;
}
);
note = Y;
unicode = 0059;
},
{
glyphname = Ydotbelow;
lastChange = "2022-09-21 19:24:10 +0000";
layers = (
{
background = {
components = (
{
name = Y;
},
{
name = dotbelowcomb;
transform = "{1, 0, 0, 1, 256, 0}";
}
);
};
components = (
{
name = Y;
}
);
layerId = "C623C401-2266-4A98-B253-3D45160C29C7";
paths = (
{
closed = 1;
nodes = (
"579 -241 OFFCURVE",
"620 -199 OFFCURVE",
"620 -154 CURVE SMOOTH",
"620 -131 OFFCURVE",
"606 -114 OFFCURVE",
"583 -114 CURVE SMOOTH",
"545 -114 OFFCURVE",
"504 -154 OFFCURVE",
"504 -199 CURVE SMOOTH",
"504 -224 OFFCURVE",
"518 -241 OFFCURVE",
"541 -241 CURVE SMOOTH"
);
}
);
width = 691;
}
);
unicode = 1EF4;
},
{
glyphname = Z;
lastChange = "2022-09-21 03:27:02 +0000";
layers = (
{
anchors = (
{
name = bottom;
position = "{190, 17}";
},
{
name = center;
position = "{270, 358}";
},
{
name = top;
position = "{364, 587}";
}
);
background = {
anchors = (
{
name = bottom;
position = "{202, 0}";
},
{
name = center;
position = "{202, 317}";
},
{
name = top;
position = "{202, 633}";
}
);
paths = (
{
closed = 1;
nodes = (
"283 -153 OFFCURVE",
"412 31 OFFCURVE",
"412 156 CURVE SMOOTH",
"412 236 OFFCURVE",
"365 262 OFFCURVE",
"307 262 CURVE SMOOTH",
"288 262 OFFCURVE",
"267 259 OFFCURVE",
"246 254 CURVE",
"297 319 OFFCURVE",
"473 446 OFFCURVE",
"507 507 CURVE SMOOTH",
"519 528 OFFCURVE",
"527 555 OFFCURVE",
"527 590 CURVE SMOOTH",
"527 598 OFFCURVE",
"522 601 OFFCURVE",
"517 601 CURVE SMOOTH",
"511 601 OFFCURVE",
"506 598 OFFCURVE",
"504 591 CURVE SMOOTH",
"501 578 OFFCURVE",
"482 565 OFFCURVE",
"462 559 CURVE SMOOTH",
"451 555 OFFCURVE",
"436 553 OFFCURVE",
"415 553 CURVE SMOOTH",
"361 554 OFFCURVE",
"292 582 OFFCURVE",
"273 582 CURVE SMOOTH",
"239 582 OFFCURVE",
"205 547 OFFCURVE",
"184 517 CURVE SMOOTH",
"164 489 OFFCURVE",
"129 444 OFFCURVE",
"129 418 CURVE SMOOTH",
"129 411 OFFCURVE",
"133 408 OFFCURVE",
"137 408 CURVE SMOOTH",
"141 408 OFFCURVE",
"146 411 OFFCURVE",
"148 414 CURVE SMOOTH",
"175 463 OFFCURVE",
"236 472 OFFCURVE",
"266 469 CURVE SMOOTH",
"300 465 OFFCURVE",
"336 455 OFFCURVE",
"359 444 CURVE",
"315 384 OFFCURVE",
"174 236 OFFCURVE",
"173 221 CURVE SMOOTH",
"172 208 OFFCURVE",
"196 191 OFFCURVE",
"212 191 CURVE SMOOTH",
"215 191 OFFCURVE",
"218 192 OFFCURVE",
"220 193 CURVE SMOOTH",
"233 202 OFFCURVE",
"258 228 OFFCURVE",
"274 228 CURVE SMOOTH",
"285 228 OFFCURVE",
"291 217 OFFCURVE",
"289 184 CURVE SMOOTH",
"283 98 OFFCURVE",
"152 -105 OFFCURVE",
"49 -107 CURVE SMOOTH",
"28 -108 OFFCURVE",
"19 -99 OFFCURVE",
"19 -85 CURVE SMOOTH",
"19 -44 OFFCURVE",
"98 44 OFFCURVE",
"159 74 CURVE SMOOTH",
"173 80 OFFCURVE",
"182 90 OFFCURVE",
"182 97 CURVE SMOOTH",
"182 101 OFFCURVE",
"179 103 OFFCURVE",
"173 103 CURVE SMOOTH",
"170 103 OFFCURVE",
"166 102 OFFCURVE",
"161 101 CURVE SMOOTH",
"120 91 OFFCURVE",
"56 51 OFFCURVE",
"25 23 CURVE SMOOTH",
"-8 -6 OFFCURVE",
"-28 -38 OFFCURVE",
"-28 -67 CURVE SMOOTH",
"-28 -83 OFFCURVE",
"-22 -98 OFFCURVE",
"-10 -111 CURVE SMOOTH",
"12 -135 OFFCURVE",
"48 -153 OFFCURVE",
"93 -153 CURVE SMOOTH"
);
}
);
};
layerId = "C623C401-2266-4A98-B253-3D45160C29C7";
paths = (
{
closed = 1;
nodes = (
"271 -136 OFFCURVE",
"400 48 OFFCURVE",
"400 173 CURVE SMOOTH",
"400 253 OFFCURVE",
"353 279 OFFCURVE",
"295 279 CURVE SMOOTH",
"276 279 OFFCURVE",
"255 276 OFFCURVE",
"234 271 CURVE",
"285 336 OFFCURVE",
"449 449 OFFCURVE",
"495 524 CURVE SMOOTH",
"508 545 OFFCURVE",
"515 575 OFFCURVE",
"515 605 CURVE SMOOTH",
"515 615 OFFCURVE",
"510 618 OFFCURVE",
"505 618 CURVE SMOOTH",
"499 618 OFFCURVE",
"497 615 OFFCURVE",
"493 607 CURVE SMOOTH",
"477 576 OFFCURVE",
"436 570 OFFCURVE",
"403 570 CURVE SMOOTH",
"349 571 OFFCURVE",
"290 599 OFFCURVE",
"259 599 CURVE SMOOTH",
"229 599 OFFCURVE",
"196 567 OFFCURVE",
"174 537 CURVE SMOOTH",
"154 509 OFFCURVE",
"117 461 OFFCURVE",
"117 435 CURVE SMOOTH",
"117 429 OFFCURVE",
"120 425 OFFCURVE",
"125 425 CURVE SMOOTH",
"129 425 OFFCURVE",
"132 427 OFFCURVE",
"136 431 CURVE SMOOTH",
"170 465 OFFCURVE",
"210 487 OFFCURVE",
"242 487 CURVE SMOOTH",
"270 488 OFFCURVE",
"320 474 OFFCURVE",
"347 461 CURVE",
"303 401 OFFCURVE",
"162 253 OFFCURVE",
"161 238 CURVE SMOOTH",
"160 225 OFFCURVE",
"184 208 OFFCURVE",
"200 208 CURVE SMOOTH",
"214 208 OFFCURVE",
"241 245 OFFCURVE",
"262 245 CURVE SMOOTH",
"273 245 OFFCURVE",
"278 233 OFFCURVE",
"278 216 CURVE SMOOTH",
"278 120 OFFCURVE",
"138 -90 OFFCURVE",
"35 -90 CURVE SMOOTH",
"17 -90 OFFCURVE",
"7 -83 OFFCURVE",
"7 -68 CURVE SMOOTH",
"7 -30 OFFCURVE",
"69 42 OFFCURVE",
"147 91 CURVE SMOOTH",
"162 100 OFFCURVE",
"170 107 OFFCURVE",
"170 113 CURVE SMOOTH",
"170 117 OFFCURVE",
"167 120 OFFCURVE",
"161 120 CURVE SMOOTH",
"133 120 OFFCURVE",
"58 80 OFFCURVE",
"8 36 CURVE SMOOTH",
"-17 14 OFFCURVE",
"-40 -22 OFFCURVE",
"-40 -50 CURVE SMOOTH",
"-40 -100 OFFCURVE",
"22 -136 OFFCURVE",
"81 -136 CURVE SMOOTH"
);
}
);
width = 410;
}
);
note = Z;
unicode = 005A;
},
{
glyphname = A.ss01;
lastChange = "2022-09-21 03:27:02 +0000";
layers = (
{
anchors = (
{
name = bottom;
position = "{654, 0}";
},
{
name = ogonek;
position = "{858, 23}";
},
{
name = top;
position = "{1156, 652}";
}
);
background = {
anchors = (
{
name = bottom;
position = "{613, 0}";
},
{
name = ogonek;
position = "{901, 22}";
},
{
name = top;
position = "{1267, 642}";
}
);
paths = (
{
closed = 1;
nodes = (
"385 -76 OFFCURVE",
"460 -52 OFFCURVE",
"529 -7 CURVE SMOOTH",
"597 38 OFFCURVE",
"661 106 OFFCURVE",
"725 195 CURVE SMOOTH",
"767 253 LINE SMOOTH",
"783 276 OFFCURVE",
"801 301 OFFCURVE",
"820 326 CURVE",
"912 320 LINE",
"893 268 OFFCURVE",
"881 220 OFFCURVE",
"873 181 CURVE SMOOTH",
"862 141 OFFCURVE",
"849 106 OFFCURVE",
"830 81 CURVE SMOOTH",
"803 49 OFFCURVE",
"766 37 OFFCURVE",
"731 40 CURVE SMOOTH",
"719 40 OFFCURVE",
"713 30 OFFCURVE",
"713 19 CURVE SMOOTH",
"713 9 OFFCURVE",
"719 -1 OFFCURVE",
"731 -1 CURVE",
"749 10 OFFCURVE",
"773 14 OFFCURVE",
"797 14 CURVE SMOOTH",
"825 14 OFFCURVE",
"854 8 OFFCURVE",
"876 1 CURVE SMOOTH",
"907 -9 OFFCURVE",
"933 -14 OFFCURVE",
"956 -14 CURVE SMOOTH",
"1014 -14 OFFCURVE",
"1052 16 OFFCURVE",
"1086 68 CURVE SMOOTH",
"1114 111 OFFCURVE",
"1137 151 OFFCURVE",
"1158 194 CURVE SMOOTH",
"1160 198 OFFCURVE",
"1161 202 OFFCURVE",
"1161 205 CURVE SMOOTH",
"1161 212 OFFCURVE",
"1156 216 OFFCURVE",
"1150 216 CURVE SMOOTH",
"1144 216 OFFCURVE",
"1136 211 OFFCURVE",
"1131 200 CURVE SMOOTH",
"1124 184 OFFCURVE",
"1113 165 OFFCURVE",
"1094 134 CURVE SMOOTH",
"1064 79 OFFCURVE",
"1019 66 OFFCURVE",
"967 63 CURVE SMOOTH",
"962 62 OFFCURVE",
"952 62 OFFCURVE",
"939 62 CURVE SMOOTH",
"926 62 OFFCURVE",
"912 62 OFFCURVE",
"898 61 CURVE SMOOTH",
"844 59 LINE",
"922 78 OFFCURVE",
"961 144 OFFCURVE",
"997 216 CURVE SMOOTH",
"1005 233 OFFCURVE",
"1012 250 OFFCURVE",
"1020 267 CURVE SMOOTH",
"1041 318 LINE",
"1078 319 OFFCURVE",
"1120 322 OFFCURVE",
"1148 330 CURVE SMOOTH",
"1155 332 OFFCURVE",
"1159 338 OFFCURVE",
"1159 343 CURVE SMOOTH",
"1159 347 OFFCURVE",
"1156 351 OFFCURVE",
"1150 351 CURVE SMOOTH",
"1147 351 LINE",
"1116 344 OFFCURVE",
"1083 341 OFFCURVE",
"1050 341 CURVE",
"1081 418 OFFCURVE",
"1111 493 OFFCURVE",
"1155 562 CURVE",
"1166 584 OFFCURVE",
"1209 625 OFFCURVE",
"1247 625 CURVE SMOOTH",
"1251 625 OFFCURVE",
"1254 625 OFFCURVE",
"1258 624 CURVE SMOOTH",
"1262 622 OFFCURVE",
"1266 621 OFFCURVE",
"1269 621 CURVE SMOOTH",
"1278 621 OFFCURVE",
"1284 629 OFFCURVE",
"1284 637 CURVE SMOOTH",
"1284 644 OFFCURVE",
"1278 652 OFFCURVE",
"1264 653 CURVE SMOOTH",
"1152 660 OFFCURVE",
"1065 624 OFFCURVE",
"992 568 CURVE SMOOTH",
"919 511 OFFCURVE",
"858 432 OFFCURVE",
"798 352 CURVE",
"756 354 OFFCURVE",
"714 356 OFFCURVE",
"673 356 CURVE SMOOTH",
"647 356 OFFCURVE",
"622 356 OFFCURVE",
"598 354 CURVE",
"592 435 OFFCURVE",
"522 500 OFFCURVE",
"411 500 CURVE SMOOTH",
"322 500 OFFCURVE",
"229 465 OFFCURVE",
"159 405 CURVE SMOOTH",
"89 344 OFFCURVE",
"40 258 OFFCURVE",
"40 155 CURVE SMOOTH",
"40 1 OFFCURVE",
"160 -76 OFFCURVE",
"298 -76 CURVE SMOOTH"
);
},
{
closed = 1;
nodes = (
"247 39 OFFCURVE",
"184 110 OFFCURVE",
"184 209 CURVE SMOOTH",
"184 338 OFFCURVE",
"297 465 OFFCURVE",
"427 465 CURVE SMOOTH",
"516 465 OFFCURVE",
"554 415 OFFCURVE",
"548 349 CURVE",
"517 344 OFFCURVE",
"487 338 OFFCURVE",
"459 329 CURVE SMOOTH",
"400 308 OFFCURVE",
"343 269 OFFCURVE",
"343 215 CURVE SMOOTH",
"343 175 OFFCURVE",
"368 149 OFFCURVE",
"425 149 CURVE SMOOTH",
"512 149 OFFCURVE",
"583 230 OFFCURVE",
"596 324 CURVE",
"633 328 OFFCURVE",
"671 330 OFFCURVE",
"708 330 CURVE SMOOTH",
"732 330 OFFCURVE",
"756 329 OFFCURVE",
"780 328 CURVE",
"724 255 OFFCURVE",
"669 183 OFFCURVE",
"605 129 CURVE SMOOTH",
"541 75 OFFCURVE",
"469 39 OFFCURVE",
"377 39 CURVE SMOOTH"
);
},
{
closed = 1;
nodes = (
"427 217 OFFCURVE",
"418 224 OFFCURVE",
"418 237 CURVE SMOOTH",
"418 260 OFFCURVE",
"450 289 OFFCURVE",
"486 301 CURVE SMOOTH",
"502 306 OFFCURVE",
"520 311 OFFCURVE",
"541 316 CURVE",
"526 266 OFFCURVE",
"487 217 OFFCURVE",
"446 217 CURVE SMOOTH"
);
},
{
closed = 1;
nodes = (
"880 347 LINE SMOOTH",
"866 348 OFFCURVE",
"852 349 OFFCURVE",
"838 350 CURVE",
"901 434 OFFCURVE",
"995 551 OFFCURVE",
"1045 568 CURVE",
"989 508 OFFCURVE",
"949 425 OFFCURVE",
"920 345 CURVE"
);
}
);
};
layerId = "C623C401-2266-4A98-B253-3D45160C29C7";
paths = (
{
closed = 1;
nodes = (
"1043 565 LINE",
"979 496 OFFCURVE",
"934 392 OFFCURVE",
"905 299 CURVE SMOOTH",
"876 207 OFFCURVE",
"865 126 OFFCURVE",
"830 81 CURVE SMOOTH",
"807 53 OFFCURVE",
"776 41 OFFCURVE",
"755 41 CURVE SMOOTH",
"745 41 OFFCURVE",
"739 43 OFFCURVE",
"731 43 CURVE SMOOTH",
"719 43 OFFCURVE",
"711 35 OFFCURVE",
"711 22 CURVE SMOOTH",
"711 7 OFFCURVE",
"719 0 OFFCURVE",
"730 0 CURVE SMOOTH",
"749 0 OFFCURVE",
"765 12 OFFCURVE",
"799 12 CURVE SMOOTH",
"827 12 OFFCURVE",
"854 8 OFFCURVE",
"876 1 CURVE SMOOTH",
"907 -9 OFFCURVE",
"930 -14 OFFCURVE",
"962 -14 CURVE SMOOTH",
"1002 -14 OFFCURVE",
"1042 9 OFFCURVE",
"1069 44 CURVE SMOOTH",
"1106 92 OFFCURVE",
"1144 165 OFFCURVE",
"1162 201 CURVE SMOOTH",
"1164 205 OFFCURVE",
"1165 208 OFFCURVE",
"1165 211 CURVE SMOOTH",
"1165 217 OFFCURVE",
"1158 227 OFFCURVE",
"1151 227 CURVE SMOOTH",
"1147 227 OFFCURVE",
"1144 224 OFFCURVE",
"1142 220 CURVE SMOOTH",
"1105 150 OFFCURVE",
"1083 106 OFFCURVE",
"1039 81 CURVE SMOOTH",
"1004 61 OFFCURVE",
"954 60 OFFCURVE",
"850 59 CURVE",
"850 61 LINE",
"924 81 OFFCURVE",
"963 145 OFFCURVE",
"997 216 CURVE SMOOTH",
"1033 292 OFFCURVE",
"1107 496 OFFCURVE",
"1157 565 CURVE SMOOTH",
"1184 602 OFFCURVE",
"1218 625 OFFCURVE",
"1247 625 CURVE SMOOTH",
"1258 625 OFFCURVE",
"1262 621 OFFCURVE",
"1269 621 CURVE SMOOTH",
"1278 621 OFFCURVE",
"1284 629 OFFCURVE",
"1284 637 CURVE SMOOTH",
"1284 648 OFFCURVE",
"1275 654 OFFCURVE",
"1248 654 CURVE SMOOTH",
"1196 654 OFFCURVE",
"1155 648 OFFCURVE",
"1116 635 CURVE SMOOTH",
"1070 620 OFFCURVE",
"1029 596 OFFCURVE",
"992 568 CURVE SMOOTH",
"916 509 OFFCURVE",
"854 427 OFFCURVE",
"792 344 CURVE SMOOTH",
"758 299 OFFCURVE",
"723 253 OFFCURVE",
"686 211 CURVE SMOOTH",
"603 115 OFFCURVE",
"508 39 OFFCURVE",
"377 39 CURVE SMOOTH",
"247 39 OFFCURVE",
"184 110 OFFCURVE",
"184 209 CURVE SMOOTH",
"184 338 OFFCURVE",
"297 465 OFFCURVE",
"427 465 CURVE SMOOTH",
"514 465 OFFCURVE",
"549 418 OFFCURVE",
"549 356 CURVE SMOOTH",
"549 299 OFFCURVE",
"499 216 OFFCURVE",
"444 216 CURVE SMOOTH",
"425 216 OFFCURVE",
"418 226 OFFCURVE",
"418 239 CURVE SMOOTH",
"418 262 OFFCURVE",
"449 285 OFFCURVE",
"482 299 CURVE SMOOTH",
"530 318 OFFCURVE",
"618 330 OFFCURVE",
"673 330 CURVE SMOOTH",
"817 330 OFFCURVE",
"925 316 OFFCURVE",
"1002 316 CURVE SMOOTH",
"1040 316 OFFCURVE",
"1117 322 OFFCURVE",
"1148 330 CURVE SMOOTH",
"1156 332 OFFCURVE",
"1160 337 OFFCURVE",
"1160 343 CURVE SMOOTH",
"1160 347 OFFCURVE",
"1157 351 OFFCURVE",
"1150 351 CURVE SMOOTH",
"1140 351 OFFCURVE",
"1116 343 OFFCURVE",
"1057 341 CURVE SMOOTH",
"961 339 OFFCURVE",
"788 356 OFFCURVE",
"673 356 CURVE SMOOTH",
"602 356 OFFCURVE",
"524 350 OFFCURVE",
"459 329 CURVE SMOOTH",
"400 308 OFFCURVE",
"343 269 OFFCURVE",
"343 215 CURVE SMOOTH",
"343 175 OFFCURVE",
"374 149 OFFCURVE",
"425 149 CURVE SMOOTH",
"517 149 OFFCURVE",
"598 246 OFFCURVE",
"598 346 CURVE SMOOTH",
"598 429 OFFCURVE",
"527 500 OFFCURVE",
"411 500 CURVE SMOOTH",
"227 500 OFFCURVE",
"40 355 OFFCURVE",
"40 155 CURVE SMOOTH",
"40 1 OFFCURVE",
"160 -76 OFFCURVE",
"298 -76 CURVE SMOOTH",
"489 -76 OFFCURVE",
"614 40 OFFCURVE",
"725 195 CURVE SMOOTH",
"785 278 OFFCURVE",
"811 315 OFFCURVE",
"832 342 CURVE SMOOTH",
"894 424 OFFCURVE",
"989 545 OFFCURVE",
"1042 567 CURVE"
);
}
);
userData = {
assembly = "SVTCA[0]	/* SetFreedomAndProjectionVectorToAxis */
PUSHW[ ]	/* 1 value pushed */
0 
RCVT[ ]	/* ReadCVT */
IF[ ]	/* If */
PUSHW[ ]	/* 1 value pushed */
86 
MDAP[1]	/* MoveDirectAbsPt */
ELSE[ ]	/* Else */
PUSHW[ ]	/* 2 values pushed */
86 8 
MIAP[0]	/* MoveIndirectAbsPt */
EIF[ ]	/* EndIf */
PUSHW[ ]	/* 1 value pushed */
0 
RCVT[ ]	/* ReadCVT */
IF[ ]	/* If */
PUSHW[ ]	/* 1 value pushed */
91 
MDAP[1]	/* MoveDirectAbsPt */
ELSE[ ]	/* Else */
PUSHW[ ]	/* 2 values pushed */
91 8 
MIAP[0]	/* MoveIndirectAbsPt */
EIF[ ]	/* EndIf */
PUSHW[ ]	/* 3 values pushed */
111 163 3 
CALL[ ]	/* CallFunction */
PUSHW[ ]	/* 1 value pushed */
111 
SRP0[ ]	/* SetRefPoint0 */
PUSHW[ ]	/* 1 value pushed */
0 
MDRP[10000]	/* MoveDirectRelPt */
PUSHW[ ]	/* 1 value pushed */
0 
MDAP[1]	/* MoveDirectAbsPt */
PUSHW[ ]	/* 1 value pushed */
86 
SRP0[ ]	/* SetRefPoint0 */
PUSHW[ ]	/* 1 value pushed */
52 
MDRP[11100]	/* MoveDirectRelPt */
NPUSHW[ ]	/* 27 values pushed */
7 52 23 52 39 52 55 52 71 52 87 52 103 52 119 52 135 52 151 52 167 52 183 52 199 52 13 
DELTAP1[ ]	/* DeltaExceptionP1 */
NPUSHW[ ]	/* 5 values pushed */
214 52 230 52 2 
DELTAP1[ ]	/* DeltaExceptionP1 */
PUSHW[ ]	/* 3 values pushed */
60 86 52 
SRP1[ ]	/* SetRefPoint1 */
SRP2[ ]	/* SetRefPoint2 */
IP[ ]	/* InterpolatePts */
PUSHW[ ]	/* 1 value pushed */
105 
MDRP[10000]	/* MoveDirectRelPt */
PUSHW[ ]	/* 1 value pushed */
105 
MDAP[1]	/* MoveDirectAbsPt */
PUSHW[ ]	/* 1 value pushed */
91 
SRP0[ ]	/* SetRefPoint0 */
PUSHW[ ]	/* 1 value pushed */
114 
MDRP[11100]	/* MoveDirectRelPt */
NPUSHW[ ]	/* 27 values pushed */
7 114 23 114 39 114 55 114 71 114 87 114 103 114 119 114 135 114 151 114 167 114 183 114 199 114 13 
DELTAP1[ ]	/* DeltaExceptionP1 */
NPUSHW[ ]	/* 5 values pushed */
214 114 230 114 2 
DELTAP1[ ]	/* DeltaExceptionP1 */
IUP[0]	/* InterpolateUntPts */
IUP[1]	/* InterpolateUntPts */";
};
width = 1075;
}
);
note = A;
},
{
glyphname = AE.ss01;
lastChange = "2022-06-16 03:36:38 +0000";
layers = (
{
anchors = (
{
name = top;
position = "{1246, 642}";
}
);
background = {
anchors = (
{
name = bottom;
position = "{715, 0}";
},
{
name = top;
position = "{1226, 629}";
}
);
paths = (
{
closed = 1;
nodes = (
"472 -76 OFFCURVE",
"597 17 OFFCURVE",
"725 195 CURVE SMOOTH",
"748 226 OFFCURVE",
"782 275 OFFCURVE",
"820 326 CURVE",
"912 320 LINE",
"855 257 OFFCURVE",
"820 184 OFFCURVE",
"820 120 CURVE SMOOTH",
"820 33 OFFCURVE",
"886 -37 OFFCURVE",
"1049 -37 CURVE SMOOTH",
"1180 -37 OFFCURVE",
"1342 66 OFFCURVE",
"1353 196 CURVE SMOOTH",
"1359 267 OFFCURVE",
"1308 298 OFFCURVE",
"1250 298 CURVE SMOOTH",
"1224 298 OFFCURVE",
"1197 293 OFFCURVE",
"1174 284 CURVE SMOOTH",
"1080 246 OFFCURVE",
"1023 152 OFFCURVE",
"1023 57 CURVE SMOOTH",
"1023 48 OFFCURVE",
"1027 45 OFFCURVE",
"1032 45 CURVE SMOOTH",
"1037 45 OFFCURVE",
"1043 50 OFFCURVE",
"1043 57 CURVE SMOOTH",
"1043 58 LINE SMOOTH",
"1043 123 OFFCURVE",
"1105 258 OFFCURVE",
"1210 258 CURVE SMOOTH",
"1247 258 OFFCURVE",
"1263 236 OFFCURVE",
"1263 205 CURVE SMOOTH",
"1263 127 OFFCURVE",
"1165 -8 OFFCURVE",
"1045 -8 CURVE SMOOTH",
"986 -8 OFFCURVE",
"963 35 OFFCURVE",
"963 91 CURVE SMOOTH",
"963 196 OFFCURVE",
"1044 349 OFFCURVE",
"1136 370 CURVE",
"1160 353 OFFCURVE",
"1196 333 OFFCURVE",
"1229 333 CURVE SMOOTH",
"1268 333 OFFCURVE",
"1286 348 OFFCURVE",
"1286 363 CURVE SMOOTH",
"1286 377 OFFCURVE",
"1272 391 OFFCURVE",
"1246 395 CURVE SMOOTH",
"1239 396 OFFCURVE",
"1230 396 OFFCURVE",
"1220 396 CURVE SMOOTH",
"1194 396 OFFCURVE",
"1164 393 OFFCURVE",
"1148 387 CURVE",
"1147 395 OFFCURVE",
"1146 404 OFFCURVE",
"1146 412 CURVE SMOOTH",
"1146 421 LINE",
"1265 422 OFFCURVE",
"1349 446 OFFCURVE",
"1395 472 CURVE SMOOTH",
"1442 498 OFFCURVE",
"1454 531 OFFCURVE",
"1454 551 CURVE SMOOTH",
"1454 642 OFFCURVE",
"1313 635 OFFCURVE",
"1255 635 CURVE SMOOTH",
"1011 635 OFFCURVE",
"917 511 OFFCURVE",
"798 352 CURVE",
"756 354 OFFCURVE",
"714 356 OFFCURVE",
"673 356 CURVE SMOOTH",
"647 356 OFFCURVE",
"622 356 OFFCURVE",
"598 354 CURVE",
"593 426 OFFCURVE",
"530 500 OFFCURVE",
"411 500 CURVE SMOOTH",
"232 500 OFFCURVE",
"40 360 OFFCURVE",
"40 155 CURVE SMOOTH",
"40 -4 OFFCURVE",
"167 -76 OFFCURVE",
"298 -76 CURVE SMOOTH"
);
},
{
closed = 1;
nodes = (
"238 39 OFFCURVE",
"184 118 OFFCURVE",
"184 209 CURVE SMOOTH",
"184 337 OFFCURVE",
"296 465 OFFCURVE",
"427 465 CURVE SMOOTH",
"516 465 OFFCURVE",
"549 417 OFFCURVE",
"549 363 CURVE SMOOTH",
"549 358 OFFCURVE",
"548 354 OFFCURVE",
"548 349 CURVE",
"517 344 OFFCURVE",
"487 338 OFFCURVE",
"459 329 CURVE SMOOTH",
"399 309 OFFCURVE",
"343 269 OFFCURVE",
"343 215 CURVE SMOOTH",
"343 181 OFFCURVE",
"363 149 OFFCURVE",
"425 149 CURVE SMOOTH",
"511 150 OFFCURVE",
"582 227 OFFCURVE",
"596 324 CURVE",
"631 328 OFFCURVE",
"668 329 OFFCURVE",
"704 329 CURVE SMOOTH",
"729 329 OFFCURVE",
"754 329 OFFCURVE",
"779 328 CURVE",
"669 180 OFFCURVE",
"560 39 OFFCURVE",
"377 39 CURVE SMOOTH"
);
},
{
closed = 1;
nodes = (
"426 217 OFFCURVE",
"418 225 OFFCURVE",
"418 237 CURVE SMOOTH",
"418 260 OFFCURVE",
"450 289 OFFCURVE",
"486 301 CURVE SMOOTH",
"503 307 OFFCURVE",
"522 312 OFFCURVE",
"541 316 CURVE",
"525 263 OFFCURVE",
"486 217 OFFCURVE",
"446 217 CURVE SMOOTH"
);
},
{
closed = 1;
nodes = (
"900 346 OFFCURVE",
"866 348 OFFCURVE",
"838 350 CURVE",
"896 424 OFFCURVE",
"999 566 OFFCURVE",
"1115 595 CURVE",
"1069 552 OFFCURVE",
"971 413 OFFCURVE",
"927 345 CURVE"
);
},
{
closed = 1;
nodes = (
"1169 530 OFFCURVE",
"1282 601 OFFCURVE",
"1359 601 CURVE SMOOTH",
"1388 601 OFFCURVE",
"1400 585 OFFCURVE",
"1400 567 CURVE SMOOTH",
"1400 554 OFFCURVE",
"1394 540 OFFCURVE",
"1385 528 CURVE SMOOTH",
"1379 519 OFFCURVE",
"1371 512 OFFCURVE",
"1365 506 CURVE SMOOTH",
"1310 458 OFFCURVE",
"1227 442 OFFCURVE",
"1149 438 CURVE"
);
}
);
};
layerId = "C623C401-2266-4A98-B253-3D45160C29C7";
paths = (
{
closed = 1;
nodes = (
"1101 584 LINE",
"1045 528 OFFCURVE",
"1048 436 OFFCURVE",
"1116 386 CURVE",
"1115 384 LINE",
"931 370 OFFCURVE",
"820 251 OFFCURVE",
"820 119 CURVE SMOOTH",
"820 16 OFFCURVE",
"914 -37 OFFCURVE",
"1042 -37 CURVE SMOOTH",
"1195 -37 OFFCURVE",
"1354 81 OFFCURVE",
"1354 206 CURVE SMOOTH",
"1354 263 OFFCURVE",
"1314 298 OFFCURVE",
"1251 298 CURVE SMOOTH",
"1124 298 OFFCURVE",
"1023 184 OFFCURVE",
"1023 58 CURVE SMOOTH",
"1023 50 OFFCURVE",
"1027 46 OFFCURVE",
"1033 46 CURVE SMOOTH",
"1038 46 OFFCURVE",
"1042 50 OFFCURVE",
"1042 58 CURVE SMOOTH",
"1047 155 OFFCURVE",
"1127 258 OFFCURVE",
"1208 258 CURVE SMOOTH",
"1245 258 OFFCURVE",
"1263 238 OFFCURVE",
"1263 207 CURVE SMOOTH",
"1263 111 OFFCURVE",
"1141 -8 OFFCURVE",
"1046 -8 CURVE SMOOTH",
"995 -8 OFFCURVE",
"963 24 OFFCURVE",
"963 91 CURVE SMOOTH",
"963 207 OFFCURVE",
"1052 352 OFFCURVE",
"1136 370 CURVE",
"1160 353 OFFCURVE",
"1197 333 OFFCURVE",
"1230 333 CURVE SMOOTH",
"1268 333 OFFCURVE",
"1286 347 OFFCURVE",
"1286 363 CURVE SMOOTH",
"1286 384 OFFCURVE",
"1261 397 OFFCURVE",
"1222 397 CURVE SMOOTH",
"1185 397 OFFCURVE",
"1162 390 OFFCURVE",
"1148 386 CURVE",
"1147 393 OFFCURVE",
"1146 402 OFFCURVE",
"1146 412 CURVE SMOOTH",
"1146 501 OFFCURVE",
"1244 612 OFFCURVE",
"1336 609 CURVE SMOOTH",
"1371 608 OFFCURVE",
"1395 594 OFFCURVE",
"1395 565 CURVE SMOOTH",
"1395 531 OFFCURVE",
"1372 500 OFFCURVE",
"1316 478 CURVE SMOOTH",
"1306 475 OFFCURVE",
"1302 472 OFFCURVE",
"1302 469 CURVE SMOOTH",
"1302 463 OFFCURVE",
"1316 459 OFFCURVE",
"1336 459 CURVE SMOOTH",
"1401 459 OFFCURVE",
"1449 499 OFFCURVE",
"1449 554 CURVE SMOOTH",
"1449 619 OFFCURVE",
"1362 645 OFFCURVE",
"1260 645 CURVE SMOOTH",
"1056 645 OFFCURVE",
"928 527 OFFCURVE",
"792 344 CURVE SMOOTH",
"758 299 OFFCURVE",
"723 253 OFFCURVE",
"686 211 CURVE SMOOTH",
"603 115 OFFCURVE",
"508 39 OFFCURVE",
"377 39 CURVE SMOOTH",
"247 39 OFFCURVE",
"184 110 OFFCURVE",
"184 209 CURVE SMOOTH",
"184 338 OFFCURVE",
"297 465 OFFCURVE",
"427 465 CURVE SMOOTH",
"514 465 OFFCURVE",
"549 418 OFFCURVE",
"549 356 CURVE SMOOTH",
"549 299 OFFCURVE",
"499 216 OFFCURVE",
"444 216 CURVE SMOOTH",
"425 216 OFFCURVE",
"418 226 OFFCURVE",
"418 239 CURVE SMOOTH",
"418 308 OFFCURVE",
"598 336 OFFCURVE",
"703 336 CURVE SMOOTH",
"847 336 OFFCURVE",
"935 309 OFFCURVE",
"999 288 CURVE",
"1024 307 LINE",
"950 331 OFFCURVE",
"842 361 OFFCURVE",
"707 361 CURVE SMOOTH",
"609 361 OFFCURVE",
"515 348 OFFCURVE",
"451 325 CURVE SMOOTH",
"381 300 OFFCURVE",
"346 255 OFFCURVE",
"346 216 CURVE SMOOTH",
"346 176 OFFCURVE",
"374 149 OFFCURVE",
"425 149 CURVE SMOOTH",
"517 149 OFFCURVE",
"598 246 OFFCURVE",
"598 346 CURVE SMOOTH",
"598 429 OFFCURVE",
"527 500 OFFCURVE",
"411 500 CURVE SMOOTH",
"227 500 OFFCURVE",
"40 355 OFFCURVE",
"40 155 CURVE SMOOTH",
"40 1 OFFCURVE",
"160 -76 OFFCURVE",
"298 -76 CURVE SMOOTH",
"403 -76 OFFCURVE",
"507 -39 OFFCURVE",
"604 53 CURVE SMOOTH",
"679 124 OFFCURVE",
"757 234 OFFCURVE",
"802 299 CURVE SMOOTH",
"920 470 OFFCURVE",
"1014 549 OFFCURVE",
"1100 586 CURVE"
);
}
);
userData = {
assembly = "SVTCA[0]	/* SetFreedomAndProjectionVectorToAxis */
PUSHW[ ]	/* 1 value pushed */
0 
RCVT[ ]	/* ReadCVT */
IF[ ]	/* If */
PUSHW[ ]	/* 1 value pushed */
0 
MDAP[1]	/* MoveDirectAbsPt */
ELSE[ ]	/* Else */
PUSHW[ ]	/* 2 values pushed */
0 8 
MIAP[0]	/* MoveIndirectAbsPt */
EIF[ ]	/* EndIf */
PUSHW[ ]	/* 3 values pushed */
109 179 3 
CALL[ ]	/* CallFunction */
PUSHW[ ]	/* 1 value pushed */
0 
SRP0[ ]	/* SetRefPoint0 */
PUSHW[ ]	/* 1 value pushed */
39 
MDRP[11100]	/* MoveDirectRelPt */
PUSHW[ ]	/* 1 value pushed */
109 
SRP0[ ]	/* SetRefPoint0 */
PUSHW[ ]	/* 1 value pushed */
40 
MDRP[10000]	/* MoveDirectRelPt */
PUSHW[ ]	/* 1 value pushed */
40 
MDAP[1]	/* MoveDirectAbsPt */
PUSHW[ ]	/* 1 value pushed */
109 
SRP0[ ]	/* SetRefPoint0 */
PUSHW[ ]	/* 1 value pushed */
94 
MDRP[10000]	/* MoveDirectRelPt */
PUSHW[ ]	/* 1 value pushed */
94 
MDAP[1]	/* MoveDirectAbsPt */
PUSHW[ ]	/* 1 value pushed */
39 
SRP0[ ]	/* SetRefPoint0 */
PUSHW[ ]	/* 1 value pushed */
112 
MDRP[10000]	/* MoveDirectRelPt */
PUSHW[ ]	/* 1 value pushed */
112 
MDAP[1]	/* MoveDirectAbsPt */
IUP[0]	/* InterpolateUntPts */
IUP[1]	/* InterpolateUntPts */";
};
width = 1359;
}
);
leftMetricsKey = A.ss01;
note = AE;
rightMetricsKey = E.ss01;
},
{
glyphname = AEacute.ss01;
lastChange = "2022-06-16 03:36:46 +0000";
layers = (
{
background = {
paths = (
{
closed = 1;
nodes = (
"314 -76 OFFCURVE",
"389 -52 OFFCURVE",
"458 -7 CURVE SMOOTH",
"526 38 OFFCURVE",
"590 106 OFFCURVE",
"654 195 CURVE SMOOTH",
"696 253 LINE SMOOTH",
"712 276 OFFCURVE",
"730 301 OFFCURVE",
"749 326 CURVE",
"841 320 LINE",
"829 269 OFFCURVE",
"819 217 OFFCURVE",
"819 171 CURVE SMOOTH",
"819 70 OFFCURVE",
"865 -6 OFFCURVE",
"1029 -6 CURVE SMOOTH",
"1161 -6 OFFCURVE",
"1322 98 OFFCURVE",
"1333 227 CURVE SMOOTH",
"1338 295 OFFCURVE",
"1292 329 OFFCURVE",
"1230 329 CURVE SMOOTH",
"1203 329 OFFCURVE",
"1178 324 OFFCURVE",
"1154 315 CURVE SMOOTH",
"1062 278 OFFCURVE",
"1003 183 OFFCURVE",
"1003 88 CURVE SMOOTH",
"1003 80 OFFCURVE",
"1008 76 OFFCURVE",
"1012 76 CURVE SMOOTH",
"1018 76 OFFCURVE",
"1023 81 OFFCURVE",
"1023 89 CURVE SMOOTH",
"1017 162 OFFCURVE",
"1093 289 OFFCURVE",
"1191 289 CURVE SMOOTH",
"1228 289 OFFCURVE",
"1243 268 OFFCURVE",
"1243 237 CURVE SMOOTH",
"1243 214 OFFCURVE",
"1234 186 OFFCURVE",
"1219 157 CURVE SMOOTH",
"1195 110 OFFCURVE",
"1155 70 OFFCURVE",
"1105 43 CURVE SMOOTH",
"1080 30 OFFCURVE",
"1053 23 OFFCURVE",
"1025 23 CURVE SMOOTH",
"966 23 OFFCURVE",
"943 65 OFFCURVE",
"943 122 CURVE SMOOTH",
"943 146 OFFCURVE",
"947 172 OFFCURVE",
"955 200 CURVE SMOOTH",
"973 262 OFFCURVE",
"1005 320 OFFCURVE",
"1048 362 CURVE SMOOTH",
"1069 383 OFFCURVE",
"1092 396 OFFCURVE",
"1116 401 CURVE",
"1140 384 OFFCURVE",
"1176 364 OFFCURVE",
"1209 364 CURVE SMOOTH",
"1247 364 OFFCURVE",
"1266 380 OFFCURVE",
"1266 395 CURVE SMOOTH",
"1266 409 OFFCURVE",
"1252 422 OFFCURVE",
"1226 426 CURVE SMOOTH",
"1219 427 OFFCURVE",
"1210 427 OFFCURVE",
"1201 427 CURVE SMOOTH",
"1174 427 OFFCURVE",
"1143 424 OFFCURVE",
"1128 418 CURVE",
"1128 433 OFFCURVE",
"1126 450 OFFCURVE",
"1129 469 CURVE SMOOTH",
"1147 557 OFFCURVE",
"1259 632 OFFCURVE",
"1339 632 CURVE SMOOTH",
"1368 632 OFFCURVE",
"1381 616 OFFCURVE",
"1381 596 CURVE SMOOTH",
"1381 584 OFFCURVE",
"1375 570 OFFCURVE",
"1365 559 CURVE SMOOTH",
"1337 523 OFFCURVE",
"1282 492 OFFCURVE",
"1242 485 CURVE",
"1229 481 OFFCURVE",
"1222 477 OFFCURVE",
"1222 474 CURVE SMOOTH",
"1222 471 OFFCURVE",
"1227 469 OFFCURVE",
"1237 469 CURVE SMOOTH",
"1308 469 OFFCURVE",
"1434 506 OFFCURVE",
"1434 585 CURVE SMOOTH",
"1434 638 OFFCURVE",
"1368 662 OFFCURVE",
"1302 662 CURVE SMOOTH",
"1270 662 OFFCURVE",
"1234 659 OFFCURVE",
"1199 652 CURVE",
"1197 653 OFFCURVE",
"1195 653 OFFCURVE",
"1193 653 CURVE SMOOTH",
"1081 660 OFFCURVE",
"994 624 OFFCURVE",
"921 568 CURVE SMOOTH",
"848 511 OFFCURVE",
"787 432 OFFCURVE",
"727 352 CURVE",
"685 354 OFFCURVE",
"643 356 OFFCURVE",
"602 356 CURVE SMOOTH",
"576 356 OFFCURVE",
"551 356 OFFCURVE",
"527 354 CURVE",
"521 435 OFFCURVE",
"451 500 OFFCURVE",
"340 500 CURVE SMOOTH",
"251 500 OFFCURVE",
"158 465 OFFCURVE",
"88 405 CURVE SMOOTH",
"18 344 OFFCURVE",
"-31 258 OFFCURVE",
"-31 155 CURVE SMOOTH",
"-31 1 OFFCURVE",
"89 -76 OFFCURVE",
"227 -76 CURVE SMOOTH"
);
},
{
closed = 1;
nodes = (
"176 39 OFFCURVE",
"113 110 OFFCURVE",
"113 209 CURVE SMOOTH",
"113 338 OFFCURVE",
"226 465 OFFCURVE",
"356 465 CURVE SMOOTH",
"445 465 OFFCURVE",
"483 415 OFFCURVE",
"477 349 CURVE",
"446 344 OFFCURVE",
"416 338 OFFCURVE",
"388 329 CURVE SMOOTH",
"329 308 OFFCURVE",
"272 269 OFFCURVE",
"272 215 CURVE SMOOTH",
"272 175 OFFCURVE",
"297 149 OFFCURVE",
"354 149 CURVE SMOOTH",
"441 149 OFFCURVE",
"512 230 OFFCURVE",
"525 324 CURVE",
"561 328 OFFCURVE",
"599 330 OFFCURVE",
"636 330 CURVE SMOOTH",
"660 330 OFFCURVE",
"685 329 OFFCURVE",
"709 328 CURVE",
"653 255 OFFCURVE",
"598 183 OFFCURVE",
"534 129 CURVE SMOOTH",
"470 75 OFFCURVE",
"398 39 OFFCURVE",
"306 39 CURVE SMOOTH"
);
},
{
closed = 1;
nodes = (
"356 217 OFFCURVE",
"347 224 OFFCURVE",
"347 237 CURVE SMOOTH",
"347 260 OFFCURVE",
"379 289 OFFCURVE",
"415 301 CURVE SMOOTH",
"431 306 OFFCURVE",
"449 311 OFFCURVE",
"470 316 CURVE",
"455 266 OFFCURVE",
"416 217 OFFCURVE",
"375 217 CURVE SMOOTH"
);
},
{
closed = 1;
nodes = (
"836 346 OFFCURVE",
"822 346 OFFCURVE",
"809 347 CURVE SMOOTH",
"767 350 LINE",
"830 434 OFFCURVE",
"924 551 OFFCURVE",
"974 568 CURVE",
"918 508 OFFCURVE",
"878 425 OFFCURVE",
"849 345 CURVE"
);
},
{
closed = 1;
nodes = (
"985 429 OFFCURVE",
"1006 477 OFFCURVE",
"1032 524 CURVE",
"1030 517 OFFCURVE",
"1029 509 OFFCURVE",
"1029 502 CURVE SMOOTH",
"1029 495 OFFCURVE",
"1030 489 OFFCURVE",
"1032 483 CURVE SMOOTH",
"1038 462 LINE",
"1049 439 OFFCURVE",
"1068 423 OFFCURVE",
"1096 412 CURVE",
"1053 408 OFFCURVE",
"1008 397 OFFCURVE",
"965 379 CURVE"
);
}
);
};
components = (
{
name = AE.ss01;
},
{
name = acutecomb.case;
transform = "{1, 0, 0, 1, 1229, 217}";
}
);
layerId = "C623C401-2266-4A98-B253-3D45160C29C7";
width = 1359;
}
);
},
{
glyphname = B.ss01;
lastChange = "2022-06-02 01:38:06 +0000";
layers = (
{
background = {
paths = (
{
closed = 1;
nodes = (
"599 -13 OFFCURVE",
"671 26 OFFCURVE",
"715 82 CURVE",
"717 82 LINE SMOOTH",
"782 89 OFFCURVE",
"833 122 OFFCURVE",
"873 206 CURVE SMOOTH",
"879 217 OFFCURVE",
"870 229 OFFCURVE",
"861 229 CURVE SMOOTH",
"857 229 OFFCURVE",
"853 226 OFFCURVE",
"851 221 CURVE SMOOTH",
"822 158 OFFCURVE",
"779 122 OFFCURVE",
"735 110 CURVE",
"751 137 OFFCURVE",
"759 165 OFFCURVE",
"759 193 CURVE SMOOTH",
"759 253 OFFCURVE",
"726 306 OFFCURVE",
"672 306 CURVE SMOOTH",
"668 306 LINE SMOOTH",
"670 306 OFFCURVE",
"676 307 OFFCURVE",
"685 309 CURVE SMOOTH",
"773 326 OFFCURVE",
"838 382 OFFCURVE",
"846 471 CURVE SMOOTH",
"851 543 OFFCURVE",
"808 595 OFFCURVE",
"738 625 CURVE SMOOTH",
"684 647 OFFCURVE",
"617 658 OFFCURVE",
"545 658 CURVE SMOOTH",
"522 658 OFFCURVE",
"499 657 OFFCURVE",
"476 655 CURVE SMOOTH",
"380 646 OFFCURVE",
"283 617 OFFCURVE",
"211 571 CURVE SMOOTH",
"138 525 OFFCURVE",
"89 460 OFFCURVE",
"89 379 CURVE SMOOTH",
"89 297 OFFCURVE",
"151 263 OFFCURVE",
"211 263 CURVE SMOOTH",
"310 263 OFFCURVE",
"384 332 OFFCURVE",
"440 420 CURVE SMOOTH",
"465 460 OFFCURVE",
"473 498 OFFCURVE",
"473 519 CURVE SMOOTH",
"473 531 OFFCURVE",
"471 538 OFFCURVE",
"467 538 CURVE SMOOTH",
"464 538 OFFCURVE",
"460 533 OFFCURVE",
"456 520 CURVE SMOOTH",
"431 443 OFFCURVE",
"378 360 OFFCURVE",
"297 357 CURVE SMOOTH",
"254 357 OFFCURVE",
"235 387 OFFCURVE",
"235 423 CURVE SMOOTH",
"235 496 OFFCURVE",
"290 556 OFFCURVE",
"365 593 CURVE SMOOTH",
"402 612 OFFCURVE",
"443 625 OFFCURVE",
"486 632 CURVE SMOOTH",
"508 635 OFFCURVE",
"529 637 OFFCURVE",
"550 637 CURVE SMOOTH",
"610 637 OFFCURVE",
"662 622 OFFCURVE",
"699 590 CURVE SMOOTH",
"724 568 OFFCURVE",
"736 538 OFFCURVE",
"736 499 CURVE SMOOTH",
"736 462 OFFCURVE",
"726 427 OFFCURVE",
"710 396 CURVE SMOOTH",
"677 338 OFFCURVE",
"649 320 OFFCURVE",
"587 320 CURVE",
"580 318 OFFCURVE",
"574 312 OFFCURVE",
"574 307 CURVE SMOOTH",
"574 304 OFFCURVE",
"575 302 OFFCURVE",
"579 300 CURVE SMOOTH",
"615 283 OFFCURVE",
"630 247 OFFCURVE",
"630 205 CURVE SMOOTH",
"630 169 OFFCURVE",
"619 130 OFFCURVE",
"600 97 CURVE",
"573 97 OFFCURVE",
"549 96 OFFCURVE",
"524 92 CURVE SMOOTH",
"483 86 OFFCURVE",
"427 71 OFFCURVE",
"427 33 CURVE SMOOTH",
"427 2 OFFCURVE",
"460 -13 OFFCURVE",
"515 -13 CURVE SMOOTH"
);
},
{
closed = 1;
nodes = (
"483 25 OFFCURVE",
"474 31 OFFCURVE",
"474 38 CURVE SMOOTH",
"474 48 OFFCURVE",
"489 60 OFFCURVE",
"515 66 CURVE SMOOTH",
"526 68 OFFCURVE",
"537 70 OFFCURVE",
"548 71 CURVE SMOOTH",
"585 74 LINE",
"562 45 OFFCURVE",
"533 25 OFFCURVE",
"502 25 CURVE SMOOTH"
);
},
{
closed = 1;
nodes = (
"187 -65 OFFCURVE",
"226 -57 OFFCURVE",
"253 -47 CURVE SMOOTH",
"381 1 OFFCURVE",
"469 132 OFFCURVE",
"522 266 CURVE SMOOTH",
"532 293 OFFCURVE",
"563 367 OFFCURVE",
"585 409 CURVE SMOOTH",
"609 456 OFFCURVE",
"648 512 OFFCURVE",
"684 518 CURVE SMOOTH",
"696 520 OFFCURVE",
"702 527 OFFCURVE",
"702 532 CURVE SMOOTH",
"702 537 OFFCURVE",
"698 541 OFFCURVE",
"688 541 CURVE SMOOTH",
"686 541 LINE SMOOTH",
"586 529 OFFCURVE",
"507 448 OFFCURVE",
"411 295 CURVE SMOOTH",
"393 266 OFFCURVE",
"361 208 OFFCURVE",
"340 171 CURVE SMOOTH",
"326 148 OFFCURVE",
"311 125 OFFCURVE",
"295 102 CURVE SMOOTH",
"263 56 OFFCURVE",
"228 18 OFFCURVE",
"189 -5 CURVE SMOOTH",
"170 -16 OFFCURVE",
"150 -22 OFFCURVE",
"129 -22 CURVE SMOOTH",
"103 -22 OFFCURVE",
"74 -8 OFFCURVE",
"79 26 CURVE SMOOTH",
"87 96 OFFCURVE",
"172 153 OFFCURVE",
"248 158 CURVE SMOOTH",
"266 159 OFFCURVE",
"276 166 OFFCURVE",
"276 171 CURVE SMOOTH",
"276 176 OFFCURVE",
"269 180 OFFCURVE",
"253 180 CURVE SMOOTH",
"173 180 OFFCURVE",
"48 107 OFFCURVE",
"45 23 CURVE SMOOTH",
"40 -41 OFFCURVE",
"90 -65 OFFCURVE",
"151 -65 CURVE SMOOTH"
);
}
);
};
layerId = "C623C401-2266-4A98-B253-3D45160C29C7";
paths = (
{
closed = 1;
nodes = (
"194 -65 OFFCURVE",
"235 -56 OFFCURVE",
"272 -39 CURVE SMOOTH",
"382 10 OFFCURVE",
"466 125 OFFCURVE",
"522 266 CURVE SMOOTH",
"532 293 OFFCURVE",
"563 367 OFFCURVE",
"585 409 CURVE SMOOTH",
"609 456 OFFCURVE",
"648 507 OFFCURVE",
"689 521 CURVE SMOOTH",
"698 524 OFFCURVE",
"702 527 OFFCURVE",
"702 532 CURVE SMOOTH",
"702 537 OFFCURVE",
"698 541 OFFCURVE",
"688 541 CURVE SMOOTH",
"658 541 OFFCURVE",
"616 524 OFFCURVE",
"577 496 CURVE SMOOTH",
"521 455 OFFCURVE",
"470 389 OFFCURVE",
"411 295 CURVE SMOOTH",
"368 226 OFFCURVE",
"304 92 OFFCURVE",
"226 22 CURVE SMOOTH",
"196 -5 OFFCURVE",
"163 -22 OFFCURVE",
"129 -22 CURVE SMOOTH",
"98 -22 OFFCURVE",
"79 -5 OFFCURVE",
"79 23 CURVE SMOOTH",
"79 54 OFFCURVE",
"101 87 OFFCURVE",
"132 112 CURVE SMOOTH",
"167 140 OFFCURVE",
"220 155 OFFCURVE",
"253 159 CURVE SMOOTH",
"270 161 OFFCURVE",
"276 165 OFFCURVE",
"276 171 CURVE SMOOTH",
"276 176 OFFCURVE",
"269 180 OFFCURVE",
"253 180 CURVE SMOOTH",
"213 180 OFFCURVE",
"162 162 OFFCURVE",
"120 133 CURVE SMOOTH",
"78 104 OFFCURVE",
"45 62 OFFCURVE",
"45 20 CURVE SMOOTH",
"45 -44 OFFCURVE",
"90 -65 OFFCURVE",
"151 -65 CURVE SMOOTH"
);
},
{
closed = 1;
nodes = (
"815 114 OFFCURVE",
"846 145 OFFCURVE",
"871 201 CURVE SMOOTH",
"873 205 OFFCURVE",
"874 208 OFFCURVE",
"874 211 CURVE SMOOTH",
"874 217 OFFCURVE",
"867 227 OFFCURVE",
"860 227 CURVE SMOOTH",
"856 227 OFFCURVE",
"853 224 OFFCURVE",
"851 220 CURVE SMOOTH",
"814 141 OFFCURVE",
"769 115 OFFCURVE",
"725 109 CURVE SMOOTH",
"691 104 OFFCURVE",
"630 99 OFFCURVE",
"606 99 CURVE SMOOTH",
"490 99 OFFCURVE",
"427 72 OFFCURVE",
"427 33 CURVE SMOOTH",
"427 1 OFFCURVE",
"460 -13 OFFCURVE",
"515 -13 CURVE SMOOTH",
"649 -13 OFFCURVE",
"759 93 OFFCURVE",
"759 193 CURVE SMOOTH",
"759 249 OFFCURVE",
"728 302 OFFCURVE",
"678 306 CURVE",
"678 308 LINE",
"774 321 OFFCURVE",
"846 392 OFFCURVE",
"846 480 CURVE SMOOTH",
"846 592 OFFCURVE",
"733 658 OFFCURVE",
"545 658 CURVE SMOOTH",
"442 658 OFFCURVE",
"314 636 OFFCURVE",
"211 571 CURVE SMOOTH",
"132 521 OFFCURVE",
"89 455 OFFCURVE",
"89 379 CURVE SMOOTH",
"89 308 OFFCURVE",
"136 263 OFFCURVE",
"211 263 CURVE SMOOTH",
"295 263 OFFCURVE",
"370 312 OFFCURVE",
"440 420 CURVE SMOOTH",
"466 460 OFFCURVE",
"473 498 OFFCURVE",
"473 519 CURVE SMOOTH",
"473 531 OFFCURVE",
"471 538 OFFCURVE",
"467 538 CURVE SMOOTH",
"463 538 OFFCURVE",
"460 533 OFFCURVE",
"456 520 CURVE SMOOTH",
"446 489 OFFCURVE",
"431 457 OFFCURVE",
"412 429 CURVE SMOOTH",
"381 386 OFFCURVE",
"341 357 OFFCURVE",
"297 357 CURVE SMOOTH",
"259 357 OFFCURVE",
"235 382 OFFCURVE",
"235 423 CURVE SMOOTH",
"235 488 OFFCURVE",
"285 554 OFFCURVE",
"365 593 CURVE SMOOTH",
"421 622 OFFCURVE",
"487 637 OFFCURVE",
"550 637 CURVE SMOOTH",
"664 637 OFFCURVE",
"736 584 OFFCURVE",
"736 499 CURVE SMOOTH",
"736 468 OFFCURVE",
"728 429 OFFCURVE",
"710 396 CURVE SMOOTH",
"680 339 OFFCURVE",
"647 320 OFFCURVE",
"589 320 CURVE SMOOTH",
"580 320 OFFCURVE",
"574 313 OFFCURVE",
"574 307 CURVE SMOOTH",
"574 304 OFFCURVE",
"575 302 OFFCURVE",
"579 300 CURVE SMOOTH",
"615 282 OFFCURVE",
"630 247 OFFCURVE",
"630 205 CURVE SMOOTH",
"630 130 OFFCURVE",
"576 25 OFFCURVE",
"502 25 CURVE SMOOTH",
"485 25 OFFCURVE",
"474 30 OFFCURVE",
"474 38 CURVE SMOOTH",
"474 48 OFFCURVE",
"493 65 OFFCURVE",
"538 70 CURVE SMOOTH",
"607 78 OFFCURVE",
"717 68 OFFCURVE",
"779 97 CURVE SMOOTH"
);
}
);
width = 784;
}
);
note = B;
},
{
glyphname = C.ss01;
lastChange = "2022-06-08 19:26:55 +0000";
layers = (
{
anchors = (
{
name = bottom;
position = "{367, -25}";
},
{
name = top;
position = "{759, 647}";
}
);
background = {
paths = (
{
closed = 1;
nodes = (
"542 -36 OFFCURVE",
"711 84 OFFCURVE",
"711 227 CURVE SMOOTH",
"711 289 OFFCURVE",
"664 322 OFFCURVE",
"606 322 CURVE SMOOTH",
"579 322 OFFCURVE",
"553 317 OFFCURVE",
"529 308 CURVE SMOOTH",
"434 268 OFFCURVE",
"375 165 OFFCURVE",
"375 64 CURVE SMOOTH",
"375 55 OFFCURVE",
"379 51 OFFCURVE",
"384 51 CURVE SMOOTH",
"390 51 OFFCURVE",
"396 57 OFFCURVE",
"396 65 CURVE SMOOTH",
"390 146 OFFCURVE",
"468 291 OFFCURVE",
"575 291 CURVE SMOOTH",
"618 291 OFFCURVE",
"636 264 OFFCURVE",
"636 227 CURVE SMOOTH",
"636 203 OFFCURVE",
"628 174 OFFCURVE",
"615 146 CURVE SMOOTH",
"590 94 OFFCURVE",
"551 48 OFFCURVE",
"500 19 CURVE SMOOTH",
"475 4 OFFCURVE",
"448 -3 OFFCURVE",
"419 -3 CURVE SMOOTH",
"367 -3 OFFCURVE",
"344 37 OFFCURVE",
"344 85 CURVE SMOOTH",
"344 91 OFFCURVE",
"344 96 OFFCURVE",
"345 102 CURVE",
"347 163 OFFCURVE",
"383 264 OFFCURVE",
"409 316 CURVE",
"522 317 OFFCURVE",
"623 341 OFFCURVE",
"702 384 CURVE SMOOTH",
"739 405 OFFCURVE",
"771 431 OFFCURVE",
"798 462 CURVE",
"812 460 OFFCURVE",
"829 459 OFFCURVE",
"845 459 CURVE SMOOTH",
"885 459 OFFCURVE",
"925 467 OFFCURVE",
"937 499 CURVE",
"940 511 OFFCURVE",
"936 517 OFFCURVE",
"931 517 CURVE SMOOTH",
"927 517 OFFCURVE",
"924 515 OFFCURVE",
"922 511 CURVE SMOOTH",
"911 489 OFFCURVE",
"875 481 OFFCURVE",
"842 481 CURVE SMOOTH",
"833 481 OFFCURVE",
"823 482 OFFCURVE",
"815 483 CURVE",
"838 515 OFFCURVE",
"852 549 OFFCURVE",
"852 584 CURVE SMOOTH",
"852 637 OFFCURVE",
"806 654 OFFCURVE",
"749 654 CURVE SMOOTH",
"676 654 OFFCURVE",
"591 624 OFFCURVE",
"510 575 CURVE",
"439 600 OFFCURVE",
"349 631 OFFCURVE",
"264 631 CURVE SMOOTH",
"175 631 OFFCURVE",
"80 592 OFFCURVE",
"80 498 CURVE SMOOTH",
"80 450 OFFCURVE",
"98 412 OFFCURVE",
"135 384 CURVE SMOOTH",
"171 357 OFFCURVE",
"220 339 OFFCURVE",
"268 330 CURVE",
"233 266 OFFCURVE",
"212 199 OFFCURVE",
"212 130 CURVE SMOOTH",
"212 31 OFFCURVE",
"272 -36 OFFCURVE",
"402 -36 CURVE SMOOTH"
);
},
{
closed = 1;
nodes = (
"226 381 OFFCURVE",
"181 426 OFFCURVE",
"181 493 CURVE SMOOTH",
"181 546 OFFCURVE",
"224 580 OFFCURVE",
"293 580 CURVE SMOOTH",
"350 580 OFFCURVE",
"419 567 OFFCURVE",
"475 552 CURVE",
"400 501 OFFCURVE",
"334 434 OFFCURVE",
"285 358 CURVE"
);
},
{
closed = 1;
nodes = (
"463 410 OFFCURVE",
"518 475 OFFCURVE",
"577 523 CURVE",
"675 491 LINE SMOOTH",
"707 480 OFFCURVE",
"737 472 OFFCURVE",
"764 467 CURVE",
"748 447 OFFCURVE",
"726 427 OFFCURVE",
"695 408 CURVE SMOOTH",
"640 372 OFFCURVE",
"517 337 OFFCURVE",
"420 335 CURVE"
);
},
{
closed = 1;
nodes = (
"730 502 OFFCURVE",
"668 522 OFFCURVE",
"604 543 CURVE",
"652 578 OFFCURVE",
"699 599 OFFCURVE",
"738 599 CURVE SMOOTH",
"769 599 OFFCURVE",
"795 590 OFFCURVE",
"795 543 CURVE SMOOTH",
"795 528 OFFCURVE",
"790 510 OFFCURVE",
"779 490 CURVE"
);
}
);
};
layerId = "C623C401-2266-4A98-B253-3D45160C29C7";
paths = (
{
closed = 1;
nodes = (
"774 481 OFFCURVE",
"659 525 OFFCURVE",
"545 565 CURVE SMOOTH",
"444 600 OFFCURVE",
"346 631 OFFCURVE",
"264 631 CURVE SMOOTH",
"175 631 OFFCURVE",
"80 592 OFFCURVE",
"80 498 CURVE SMOOTH",
"80 450 OFFCURVE",
"98 412 OFFCURVE",
"135 384 CURVE SMOOTH",
"173 356 OFFCURVE",
"253 316 OFFCURVE",
"423 316 CURVE SMOOTH",
"495 316 OFFCURVE",
"601 335 OFFCURVE",
"678 372 CURVE SMOOTH",
"779 421 OFFCURVE",
"852 505 OFFCURVE",
"852 584 CURVE SMOOTH",
"852 630 OFFCURVE",
"817 654 OFFCURVE",
"749 654 CURVE SMOOTH",
"629 654 OFFCURVE",
"472 572 OFFCURVE",
"363 457 CURVE SMOOTH",
"273 363 OFFCURVE",
"212 248 OFFCURVE",
"212 131 CURVE SMOOTH",
"212 22 OFFCURVE",
"277 -36 OFFCURVE",
"402 -36 CURVE SMOOTH",
"547 -36 OFFCURVE",
"711 89 OFFCURVE",
"711 227 CURVE SMOOTH",
"711 285 OFFCURVE",
"669 322 OFFCURVE",
"606 322 CURVE SMOOTH",
"469 322 OFFCURVE",
"375 195 OFFCURVE",
"375 65 CURVE SMOOTH",
"375 56 OFFCURVE",
"378 51 OFFCURVE",
"385 51 CURVE SMOOTH",
"392 51 OFFCURVE",
"396 56 OFFCURVE",
"396 65 CURVE SMOOTH",
"396 158 OFFCURVE",
"471 291 OFFCURVE",
"575 291 CURVE SMOOTH",
"615 291 OFFCURVE",
"636 269 OFFCURVE",
"636 227 CURVE SMOOTH",
"636 187 OFFCURVE",
"606 119 OFFCURVE",
"570 77 CURVE SMOOTH",
"525 24 OFFCURVE",
"470 -3 OFFCURVE",
"419 -3 CURVE SMOOTH",
"370 -3 OFFCURVE",
"344 28 OFFCURVE",
"344 85 CURVE SMOOTH",
"344 239 OFFCURVE",
"463 432 OFFCURVE",
"583 528 CURVE",
"596 537 LINE SMOOTH",
"648 573 OFFCURVE",
"697 599 OFFCURVE",
"738 599 CURVE SMOOTH",
"777 599 OFFCURVE",
"795 582 OFFCURVE",
"795 543 CURVE SMOOTH",
"795 486 OFFCURVE",
"740 429 OFFCURVE",
"667 393 CURVE SMOOTH",
"590 355 OFFCURVE",
"474 337 OFFCURVE",
"405 340 CURVE SMOOTH",
"365 342 OFFCURVE",
"288 350 OFFCURVE",
"247 378 CURVE SMOOTH",
"205 405 OFFCURVE",
"181 445 OFFCURVE",
"181 493 CURVE SMOOTH",
"181 547 OFFCURVE",
"224 580 OFFCURVE",
"293 580 CURVE SMOOTH",
"380 580 OFFCURVE",
"467 554 OFFCURVE",
"545 530 CURVE SMOOTH",
"661 495 OFFCURVE",
"748 459 OFFCURVE",
"844 459 CURVE SMOOTH",
"864 459 OFFCURVE",
"889 462 OFFCURVE",
"907 470 CURVE SMOOTH",
"926 478 OFFCURVE",
"938 495 OFFCURVE",
"938 507 CURVE SMOOTH",
"938 513 OFFCURVE",
"935 517 OFFCURVE",
"931 517 CURVE SMOOTH",
"927 517 OFFCURVE",
"925 515 OFFCURVE",
"922 510 CURVE SMOOTH",
"908 486 OFFCURVE",
"874 481 OFFCURVE",
"846 481 CURVE SMOOTH"
);
}
);
width = 728;
}
);
note = C;
},
{
glyphname = D.ss01;
lastChange = "2022-06-18 00:31:21 +0000";
layers = (
{
anchors = (
{
name = bottom;
position = "{447, 0}";
},
{
name = center;
position = "{452, 226}";
},
{
name = top;
position = "{792, 582}";
}
);
background = {
paths = (
{
closed = 1;
nodes = (
"238 -35 OFFCURVE",
"292 -17 OFFCURVE",
"340 12 CURVE",
"395 -12 OFFCURVE",
"452 -24 OFFCURVE",
"513 -24 CURVE SMOOTH",
"625 -24 OFFCURVE",
"720 20 OFFCURVE",
"788 89 CURVE SMOOTH",
"855 158 OFFCURVE",
"895 250 OFFCURVE",
"895 349 CURVE SMOOTH",
"895 458 OFFCURVE",
"847 536 OFFCURVE",
"775 586 CURVE SMOOTH",
"703 636 OFFCURVE",
"607 657 OFFCURVE",
"511 657 CURVE SMOOTH",
"407 657 OFFCURVE",
"308 635 OFFCURVE",
"234 589 CURVE SMOOTH",
"160 543 OFFCURVE",
"112 473 OFFCURVE",
"112 380 CURVE SMOOTH",
"112 311 OFFCURVE",
"163 263 OFFCURVE",
"231 263 CURVE SMOOTH",
"337 263 OFFCURVE",
"466 363 OFFCURVE",
"500 508 CURVE",
"501 525 OFFCURVE",
"494 536 OFFCURVE",
"488 536 CURVE SMOOTH",
"484 536 OFFCURVE",
"480 533 OFFCURVE",
"479 524 CURVE SMOOTH",
"467 461 OFFCURVE",
"396 356 OFFCURVE",
"320 356 CURVE SMOOTH",
"289 356 OFFCURVE",
"258 373 OFFCURVE",
"258 429 CURVE SMOOTH",
"258 562 OFFCURVE",
"386 630 OFFCURVE",
"525 630 CURVE SMOOTH",
"681 630 OFFCURVE",
"800 542 OFFCURVE",
"800 403 CURVE SMOOTH",
"799 311 OFFCURVE",
"752 216 OFFCURVE",
"684 144 CURVE SMOOTH",
"616 72 OFFCURVE",
"525 23 OFFCURVE",
"437 23 CURVE SMOOTH",
"414 23 OFFCURVE",
"394 27 OFFCURVE",
"371 34 CURVE",
"463 105 OFFCURVE",
"529 221 OFFCURVE",
"580 352 CURVE SMOOTH",
"611 432 OFFCURVE",
"674 515 OFFCURVE",
"710 518 CURVE SMOOTH",
"721 518 OFFCURVE",
"726 523 OFFCURVE",
"726 528 CURVE SMOOTH",
"726 534 OFFCURVE",
"719 541 OFFCURVE",
"705 541 CURVE SMOOTH",
"702 541 LINE SMOOTH",
"669 540 OFFCURVE",
"625 519 OFFCURVE",
"574 472 CURVE SMOOTH",
"523 424 OFFCURVE",
"465 351 OFFCURVE",
"401 244 CURVE SMOOTH",
"361 176 OFFCURVE",
"320 118 OFFCURVE",
"280 75 CURVE",
"241 103 OFFCURVE",
"199 128 OFFCURVE",
"154 128 CURVE SMOOTH",
"91 128 OFFCURVE",
"60 91 OFFCURVE",
"60 52 CURVE SMOOTH",
"60 10 OFFCURVE",
"98 -35 OFFCURVE",
"175 -35 CURVE SMOOTH"
);
},
{
closed = 1;
nodes = (
"131 5 OFFCURVE",
"103 19 OFFCURVE",
"103 46 CURVE SMOOTH",
"103 77 OFFCURVE",
"136 102 OFFCURVE",
"174 102 CURVE SMOOTH",
"187 102 OFFCURVE",
"201 99 OFFCURVE",
"214 92 CURVE SMOOTH",
"246 72 LINE SMOOTH",
"252 68 OFFCURVE",
"259 64 OFFCURVE",
"266 60 CURVE",
"229 25 OFFCURVE",
"192 5 OFFCURVE",
"155 5 CURVE SMOOTH"
);
}
);
};
layerId = "C623C401-2266-4A98-B253-3D45160C29C7";
paths = (
{
closed = 1;
nodes = (
"354 37 OFFCURVE",
"322 54 CURVE SMOOTH",
"260 85 OFFCURVE",
"216 128 OFFCURVE",
"154 128 CURVE SMOOTH",
"98 128 OFFCURVE",
"60 97 OFFCURVE",
"60 52 CURVE SMOOTH",
"60 3 OFFCURVE",
"107 -35 OFFCURVE",
"175 -35 CURVE SMOOTH",
"242 -35 OFFCURVE",
"301 -15 OFFCURVE",
"353 21 CURVE SMOOTH",
"457 92 OFFCURVE",
"529 221 OFFCURVE",
"580 352 CURVE SMOOTH",
"611 432 OFFCURVE",
"674 515 OFFCURVE",
"710 518 CURVE SMOOTH",
"721 518 OFFCURVE",
"726 523 OFFCURVE",
"726 528 CURVE SMOOTH",
"726 534 OFFCURVE",
"719 541 OFFCURVE",
"705 541 CURVE SMOOTH",
"702 541 LINE SMOOTH",
"669 541 OFFCURVE",
"625 519 OFFCURVE",
"574 472 CURVE SMOOTH",
"523 424 OFFCURVE",
"465 351 OFFCURVE",
"401 244 CURVE SMOOTH",
"376 202 OFFCURVE",
"327 121 OFFCURVE",
"272 66 CURVE SMOOTH",
"234 28 OFFCURVE",
"200 5 OFFCURVE",
"155 5 CURVE SMOOTH",
"125 5 OFFCURVE",
"103 23 OFFCURVE",
"103 46 CURVE SMOOTH",
"103 77 OFFCURVE",
"132 102 OFFCURVE",
"168 102 CURVE SMOOTH",
"207 102 OFFCURVE",
"250 65 OFFCURVE",
"307 31 CURVE SMOOTH",
"355 2 OFFCURVE",
"419 -24 OFFCURVE",
"513 -24 CURVE SMOOTH",
"735 -24 OFFCURVE",
"895 151 OFFCURVE",
"895 349 CURVE SMOOTH",
"895 558 OFFCURVE",
"720 657 OFFCURVE",
"511 657 CURVE SMOOTH",
"308 657 OFFCURVE",
"112 568 OFFCURVE",
"112 383 CURVE SMOOTH",
"112 312 OFFCURVE",
"161 263 OFFCURVE",
"231 263 CURVE SMOOTH",
"295 263 OFFCURVE",
"390 304 OFFCURVE",
"458 407 CURVE SMOOTH",
"485 447 OFFCURVE",
"500 490 OFFCURVE",
"500 512 CURVE SMOOTH",
"500 526 OFFCURVE",
"494 536 OFFCURVE",
"488 536 CURVE SMOOTH",
"484 536 OFFCURVE",
"481 534 OFFCURVE",
"479 524 CURVE SMOOTH",
"465 455 OFFCURVE",
"393 356 OFFCURVE",
"320 356 CURVE SMOOTH",
"282 356 OFFCURVE",
"258 381 OFFCURVE",
"258 427 CURVE SMOOTH",
"258 551 OFFCURVE",
"366 630 OFFCURVE",
"526 630 CURVE SMOOTH",
"682 630 OFFCURVE",
"800 542 OFFCURVE",
"800 403 CURVE SMOOTH",
"798 223 OFFCURVE",
"617 23 OFFCURVE",
"437 23 CURVE SMOOTH",
"395 23 OFFCURVE"
);
}
);
width = 875;
}
);
note = D;
},
{
glyphname = Eth.ss01;
lastChange = "2022-06-18 00:31:21 +0000";
layers = (
{
anchors = (
{
name = _center;
position = "{452, 226}";
},
{
name = top;
position = "{452.827, 255}";
}
);
background = {
paths = (
{
closed = 1;
nodes = (
"189.667 -35 OFFCURVE",
"244 -17.333 OFFCURVE",
"292 12 CURVE",
"346.667 -12 OFFCURVE",
"404.333 -24 OFFCURVE",
"465 -24 CURVE SMOOTH",
"577 -24 OFFCURVE",
"672.167 19.667 OFFCURVE",
"739.5 89 CURVE SMOOTH",
"806.833 158.333 OFFCURVE",
"847 250.333 OFFCURVE",
"847 349 CURVE SMOOTH",
"847 458.333 OFFCURVE",
"799 535.5 OFFCURVE",
"727 585.5 CURVE SMOOTH",
"655 635.5 OFFCURVE",
"559 657 OFFCURVE",
"463 657 CURVE SMOOTH",
"359 657 OFFCURVE",
"259.5 634.5 OFFCURVE",
"185.5 588.5 CURVE SMOOTH",
"111.5 542.5 OFFCURVE",
"64 473.333 OFFCURVE",
"64 380 CURVE SMOOTH",
"64 310.916 OFFCURVE",
"114.91 263 OFFCURVE",
"183 263 CURVE SMOOTH",
"288.989 263 OFFCURVE",
"417.546 362.801 OFFCURVE",
"452 508 CURVE",
"453 525 OFFCURVE",
"446 536 OFFCURVE",
"440 536 CURVE SMOOTH",
"436 536 OFFCURVE",
"432 533 OFFCURVE",
"431 524 CURVE SMOOTH",
"418.96 460.79 OFFCURVE",
"348.343 356 OFFCURVE",
"272 356 CURVE SMOOTH",
"241.333 356 OFFCURVE",
"210 373 OFFCURVE",
"210 429 CURVE SMOOTH",
"210 562.093 OFFCURVE",
"338.19 630 OFFCURVE",
"477 630 CURVE SMOOTH",
"633.377 630 OFFCURVE",
"752 541.676 OFFCURVE",
"752 403 CURVE SMOOTH",
"750.667 311 OFFCURVE",
"704 216 OFFCURVE",
"636 144 CURVE SMOOTH",
"568 72 OFFCURVE",
"477 23 OFFCURVE",
"389 23 CURVE SMOOTH",
"366.333 23 OFFCURVE",
"345.667 27.333 OFFCURVE",
"323 34 CURVE",
"369.667 68.667 OFFCURVE",
"408.333 115.333 OFFCURVE",
"443 170 CURVE",
"496 170 LINE SMOOTH",
"508 170 OFFCURVE",
"525 203 OFFCURVE",
"525 220 CURVE SMOOTH",
"525 226 OFFCURVE",
"523 230 OFFCURVE",
"518 230 CURVE SMOOTH",
"477 230 LINE",
"497 268.667 OFFCURVE",
"516 309.333 OFFCURVE",
"532 352 CURVE SMOOTH",
"563.075 431.908 OFFCURVE",
"626.451 514.768 OFFCURVE",
"662 518 CURVE SMOOTH",
"673 518 OFFCURVE",
"678 523 OFFCURVE",
"678 528 CURVE SMOOTH",
"678 534 OFFCURVE",
"671 541 OFFCURVE",
"657 541 CURVE SMOOTH",
"654 541 LINE SMOOTH",
"620.667 539.667 OFFCURVE",
"576.667 518.833 OFFCURVE",
"526 471.5 CURVE SMOOTH",
"475.333 424.167 OFFCURVE",
"417 350.667 OFFCURVE",
"353 244 CURVE SMOOTH",
"350.333 238.667 OFFCURVE",
"347.667 234 OFFCURVE",
"345 230 CURVE",
"255 230 LINE SMOOTH",
"240.765 230 OFFCURVE",
"204.916 170 OFFCURVE",
"221 170 CURVE SMOOTH",
"306 170 LINE",
"282 133.333 OFFCURVE",
"257.333 101.667 OFFCURVE",
"232 75 CURVE",
"193.333 103 OFFCURVE",
"151.333 128 OFFCURVE",
"106 128 CURVE SMOOTH",
"43 128 OFFCURVE",
"12 91 OFFCURVE",
"12 52 CURVE SMOOTH",
"12 10 OFFCURVE",
"50 -35 OFFCURVE",
"127 -35 CURVE SMOOTH"
);
},
{
closed = 1;
nodes = (
"83 5 OFFCURVE",
"55 19.333 OFFCURVE",
"55 46 CURVE SMOOTH",
"55 77 OFFCURVE",
"88 102 OFFCURVE",
"126 102 CURVE SMOOTH",
"139 102 OFFCURVE",
"153 99 OFFCURVE",
"166 92 CURVE SMOOTH",
"198 72 LINE SMOOTH",
"204 68 OFFCURVE",
"210.667 64 OFFCURVE",
"218 60 CURVE",
"180.667 25.333 OFFCURVE",
"144.333 5 OFFCURVE",
"107 5 CURVE SMOOTH"
);
}
);
};
components = (
{
name = D.ss01;
}
);
layerId = "C623C401-2266-4A98-B253-3D45160C29C7";
paths = (
{
closed = 1;
nodes = (
"401 203 OFFCURVE",
"533 203 OFFCURVE",
"606 203 CURVE SMOOTH",
"610 203 OFFCURVE",
"612 204 OFFCURVE",
"615 206 CURVE SMOOTH",
"622 212 OFFCURVE",
"639 230 OFFCURVE",
"639 239 CURVE SMOOTH",
"639 243 OFFCURVE",
"637 245 OFFCURVE",
"631 245 CURVE SMOOTH",
"563 245 OFFCURVE",
"435 245 OFFCURVE",
"367 245 CURVE SMOOTH",
"357 245 OFFCURVE",
"354 244 OFFCURVE",
"346 237 CURVE SMOOTH",
"335 227 OFFCURVE",
"323 214 OFFCURVE",
"323 206 CURVE SMOOTH",
"323 204 OFFCURVE",
"326 203 OFFCURVE",
"328 203 CURVE SMOOTH"
);
}
);
width = 875;
}
);
note = Eth;
},
{
glyphname = Dzcaron.ss01;
lastChange = "2022-06-23 01:14:13 +0000";
layers = (
{
anchors = (
{
name = bottom;
position = "{1018, 0}";
},
{
name = center;
position = "{1072, 213}";
},
{
name = top;
position = "{1140, 409}";
}
);
background = {
components = (
{
name = D.ss01;
transform = "{1, 0, 0, 1, -25, 0}";
},
{
name = zcaron.ss01;
transform = "{1, 0, 0, 1, 772, 0}";
}
);
};
components = (
{
name = D.ss01;
transform = "{1, 0, 0, 1, 10, 0}";
},
{
name = caroncomb;
transform = "{1, 0, 0, 1, 1063, -16}";
}
);
layerId = "C623C401-2266-4A98-B253-3D45160C29C7";
paths = (
{
closed = 1;
nodes = (
"1101 266 OFFCURVE",
"1057 229 OFFCURVE",
"1009 189 CURVE SMOOTH",
"958 148 OFFCURVE",
"919 108 OFFCURVE",
"919 92 CURVE SMOOTH",
"919 87 OFFCURVE",
"926 83 OFFCURVE",
"933 83 CURVE SMOOTH",
"938 83 OFFCURVE",
"941 85 OFFCURVE",
"943 90 CURVE SMOOTH",
"949 105 OFFCURVE",
"962 115 OFFCURVE",
"975 115 CURVE SMOOTH",
"987 115 OFFCURVE",
"995 105 OFFCURVE",
"995 88 CURVE SMOOTH",
"995 62 OFFCURVE",
"979 22 OFFCURVE",
"961 -2 CURVE",
"920 -13 OFFCURVE",
"876 -22 OFFCURVE",
"837 -35 CURVE SMOOTH",
"780 -53 OFFCURVE",
"735 -77 OFFCURVE",
"735 -120 CURVE SMOOTH",
"735 -151 OFFCURVE",
"766 -171 OFFCURVE",
"816 -171 CURVE SMOOTH",
"925 -171 OFFCURVE",
"1055 -84 OFFCURVE",
"1102 22 CURVE",
"1178 52 OFFCURVE",
"1228 113 OFFCURVE",
"1271 197 CURVE SMOOTH",
"1273 201 OFFCURVE",
"1276 208 OFFCURVE",
"1276 211 CURVE SMOOTH",
"1276 217 OFFCURVE",
"1269 227 OFFCURVE",
"1262 227 CURVE SMOOTH",
"1258 227 OFFCURVE",
"1255 224 OFFCURVE",
"1253 220 CURVE SMOOTH",
"1218 151 OFFCURVE",
"1178 90 OFFCURVE",
"1114 55 CURVE",
"1116 64 OFFCURVE",
"1117 75 OFFCURVE",
"1117 83 CURVE SMOOTH",
"1117 119 OFFCURVE",
"1097 141 OFFCURVE",
"1065 141 CURVE SMOOTH",
"1052 141 OFFCURVE",
"1034 137 OFFCURVE",
"1020 130 CURVE",
"1019 131 LINE",
"1173 240 OFFCURVE",
"1272 328 OFFCURVE",
"1272 434 CURVE SMOOTH",
"1272 440 OFFCURVE",
"1268 444 OFFCURVE",
"1259 444 CURVE SMOOTH",
"1251 444 OFFCURVE",
"1247 441 OFFCURVE",
"1246 434 CURVE SMOOTH",
"1241 406 OFFCURVE",
"1217 396 OFFCURVE",
"1186 396 CURVE SMOOTH",
"1138 397 OFFCURVE",
"1105 422 OFFCURVE",
"1071 422 CURVE SMOOTH",
"1044 422 OFFCURVE",
"1020 409 OFFCURVE",
"992 366 CURVE SMOOTH",
"976 341 OFFCURVE",
"964 322 OFFCURVE",
"964 304 CURVE SMOOTH",
"964 296 OFFCURVE",
"967 291 OFFCURVE",
"971 291 CURVE SMOOTH",
"974 291 OFFCURVE",
"977 293 OFFCURVE",
"980 298 CURVE SMOOTH",
"988 312 OFFCURVE",
"998 319 OFFCURVE",
"1015 319 CURVE SMOOTH",
"1043 319 OFFCURVE",
"1083 302 OFFCURVE",
"1122 302 CURVE SMOOTH",
"1132 302 OFFCURVE",
"1142 303 OFFCURVE",
"1150 305 CURVE",
"1151 303 LINE"
);
},
{
closed = 1;
nodes = (
"783 -134 OFFCURVE",
"771 -128 OFFCURVE",
"771 -115 CURVE SMOOTH",
"771 -91 OFFCURVE",
"803 -74 OFFCURVE",
"844 -60 CURVE SMOOTH",
"876 -49 OFFCURVE",
"913 -41 OFFCURVE",
"946 -32 CURVE",
"913 -86 OFFCURVE",
"847 -134 OFFCURVE",
"804 -134 CURVE SMOOTH"
);
}
);
width = 1186;
}
);
leftMetricsKey = D;
},
{
glyphname = E.ss01;
lastChange = "2022-06-08 19:27:30 +0000";
layers = (
{
anchors = (
{
name = bottom;
position = "{257, -29}";
},
{
name = ogonek;
position = "{476, 40}";
},
{
name = top;
position = "{555, 619}";
},
{
name = topleft;
position = "{40, 600}";
}
);
background = {
paths = (
{
closed = 1;
nodes = (
"411 -37 OFFCURVE",
"579 73 OFFCURVE",
"579 206 CURVE SMOOTH",
"579 267 OFFCURVE",
"535 298 OFFCURVE",
"476 298 CURVE SMOOTH",
"449 298 OFFCURVE",
"424 293 OFFCURVE",
"400 284 CURVE SMOOTH",
"308 247 OFFCURVE",
"249 152 OFFCURVE",
"249 57 CURVE SMOOTH",
"249 49 OFFCURVE",
"254 45 OFFCURVE",
"258 45 CURVE SMOOTH",
"264 45 OFFCURVE",
"269 50 OFFCURVE",
"269 58 CURVE SMOOTH",
"263 131 OFFCURVE",
"339 258 OFFCURVE",
"437 258 CURVE SMOOTH",
"474 258 OFFCURVE",
"489 237 OFFCURVE",
"489 206 CURVE SMOOTH",
"489 183 OFFCURVE",
"480 155 OFFCURVE",
"465 126 CURVE SMOOTH",
"441 79 OFFCURVE",
"401 39 OFFCURVE",
"351 12 CURVE SMOOTH",
"326 -1 OFFCURVE",
"299 -8 OFFCURVE",
"271 -8 CURVE SMOOTH",
"212 -8 OFFCURVE",
"189 35 OFFCURVE",
"189 93 CURVE SMOOTH",
"189 116 OFFCURVE",
"193 141 OFFCURVE",
"201 169 CURVE SMOOTH",
"219 231 OFFCURVE",
"251 289 OFFCURVE",
"294 331 CURVE SMOOTH",
"315 352 OFFCURVE",
"338 365 OFFCURVE",
"362 370 CURVE",
"386 353 OFFCURVE",
"422 333 OFFCURVE",
"455 333 CURVE SMOOTH",
"493 333 OFFCURVE",
"512 348 OFFCURVE",
"512 364 CURVE SMOOTH",
"512 378 OFFCURVE",
"498 391 OFFCURVE",
"472 395 CURVE SMOOTH",
"465 396 OFFCURVE",
"457 396 OFFCURVE",
"448 396 CURVE SMOOTH",
"421 396 OFFCURVE",
"389 393 OFFCURVE",
"374 387 CURVE",
"373 396 OFFCURVE",
"372 405 OFFCURVE",
"372 413 CURVE SMOOTH",
"372 421 LINE",
"492 422 OFFCURVE",
"574 445 OFFCURVE",
"621 472 CURVE SMOOTH",
"670 500 OFFCURVE",
"680 534 OFFCURVE",
"680 554 CURVE SMOOTH",
"680 607 OFFCURVE",
"614 631 OFFCURVE",
"548 631 CURVE SMOOTH",
"477 631 OFFCURVE",
"390 619 OFFCURVE",
"332 571 CURVE SMOOTH",
"293 540 OFFCURVE",
"276 505 OFFCURVE",
"276 472 CURVE SMOOTH",
"276 465 OFFCURVE",
"277 458 OFFCURVE",
"278 452 CURVE",
"213 460 OFFCURVE",
"124 485 OFFCURVE",
"124 551 CURVE SMOOTH",
"124 590 OFFCURVE",
"172 616 OFFCURVE",
"228 616 CURVE SMOOTH",
"267 616 OFFCURVE",
"308 607 OFFCURVE",
"327 598 CURVE",
"328 598 OFFCURVE",
"334 607 OFFCURVE",
"334 612 CURVE SMOOTH",
"334 613 OFFCURVE",
"333 614 OFFCURVE",
"332 615 CURVE",
"306 628 OFFCURVE",
"232 648 OFFCURVE",
"187 648 CURVE SMOOTH",
"117 648 OFFCURVE",
"35 628 OFFCURVE",
"35 557 CURVE SMOOTH",
"35 500 OFFCURVE",
"92 466 OFFCURVE",
"142 452 CURVE SMOOTH",
"187 439 OFFCURVE",
"245 431 OFFCURVE",
"284 431 CURVE",
"295 408 OFFCURVE",
"314 392 OFFCURVE",
"342 381 CURVE",
"208 369 OFFCURVE",
"44 286 OFFCURVE",
"44 133 CURVE SMOOTH",
"44 16 OFFCURVE",
"118 -37 OFFCURVE",
"275 -37 CURVE SMOOTH"
);
},
{
closed = 1;
nodes = (
"393 526 OFFCURVE",
"505 601 OFFCURVE",
"585 601 CURVE SMOOTH",
"614 601 OFFCURVE",
"627 585 OFFCURVE",
"627 566 CURVE SMOOTH",
"627 553 OFFCURVE",
"621 539 OFFCURVE",
"611 528 CURVE SMOOTH",
"604 519 OFFCURVE",
"598 513 OFFCURVE",
"591 506 CURVE SMOOTH",
"535 458 OFFCURVE",
"454 442 OFFCURVE",
"375 438 CURVE"
);
}
);
};
layerId = "C623C401-2266-4A98-B253-3D45160C29C7";
paths = (
{
closed = 1;
nodes = (
"283 451 LINE",
"218 459 OFFCURVE",
"124 483 OFFCURVE",
"124 551 CURVE SMOOTH",
"124 587 OFFCURVE",
"167 616 OFFCURVE",
"228 616 CURVE SMOOTH",
"267 616 OFFCURVE",
"307 606 OFFCURVE",
"326 598 CURVE",
"331 602 OFFCURVE",
"334 608 OFFCURVE",
"334 612 CURVE SMOOTH",
"334 614 OFFCURVE",
"333 615 OFFCURVE",
"329 617 CURVE SMOOTH",
"308 627 OFFCURVE",
"237 648 OFFCURVE",
"185 648 CURVE SMOOTH",
"96 648 OFFCURVE",
"35 616 OFFCURVE",
"35 557 CURVE SMOOTH",
"35 500 OFFCURVE",
"92 466 OFFCURVE",
"142 452 CURVE SMOOTH",
"189 439 OFFCURVE",
"249 430 OFFCURVE",
"288 431 CURVE"
);
},
{
closed = 1;
nodes = (
"372 407 OFFCURVE",
"372 416 CURVE SMOOTH",
"375 513 OFFCURVE",
"497 601 OFFCURVE",
"585 601 CURVE SMOOTH",
"611 601 OFFCURVE",
"627 588 OFFCURVE",
"627 566 CURVE SMOOTH",
"627 531 OFFCURVE",
"582 490 OFFCURVE",
"526 467 CURVE SMOOTH",
"474 446 OFFCURVE",
"414 440 OFFCURVE",
"371 438 CURVE",
"366 421 LINE",
"489 421 OFFCURVE",
"573 445 OFFCURVE",
"621 472 CURVE SMOOTH",
"670 500 OFFCURVE",
"680 534 OFFCURVE",
"680 554 CURVE SMOOTH",
"680 607 OFFCURVE",
"614 631 OFFCURVE",
"548 631 CURVE SMOOTH",
"477 631 OFFCURVE",
"390 619 OFFCURVE",
"332 571 CURVE SMOOTH",
"293 540 OFFCURVE",
"276 505 OFFCURVE",
"276 472 CURVE SMOOTH",
"276 425 OFFCURVE",
"301 397 OFFCURVE",
"342 381 CURVE",
"131 357 OFFCURVE",
"44 235 OFFCURVE",
"44 133 CURVE SMOOTH",
"44 16 OFFCURVE",
"120 -37 OFFCURVE",
"270 -37 CURVE SMOOTH",
"423 -37 OFFCURVE",
"579 81 OFFCURVE",
"579 206 CURVE SMOOTH",
"579 263 OFFCURVE",
"539 298 OFFCURVE",
"476 298 CURVE SMOOTH",
"349 298 OFFCURVE",
"249 185 OFFCURVE",
"249 57 CURVE SMOOTH",
"249 49 OFFCURVE",
"253 45 OFFCURVE",
"259 45 CURVE SMOOTH",
"264 45 OFFCURVE",
"268 49 OFFCURVE",
"268 57 CURVE SMOOTH",
"272 142 OFFCURVE",
"339 258 OFFCURVE",
"437 258 CURVE SMOOTH",
"474 258 OFFCURVE",
"489 237 OFFCURVE",
"489 206 CURVE SMOOTH",
"489 117 OFFCURVE",
"381 -8 OFFCURVE",
"271 -8 CURVE SMOOTH",
"212 -8 OFFCURVE",
"189 35 OFFCURVE",
"189 93 CURVE SMOOTH",
"189 209 OFFCURVE",
"278 352 OFFCURVE",
"362 370 CURVE",
"386 353 OFFCURVE",
"422 333 OFFCURVE",
"455 333 CURVE SMOOTH",
"493 333 OFFCURVE",
"512 348 OFFCURVE",
"512 364 CURVE SMOOTH",
"512 385 OFFCURVE",
"487 398 OFFCURVE",
"448 398 CURVE SMOOTH",
"411 398 OFFCURVE",
"388 391 OFFCURVE",
"374 387 CURVE",
"373 397 OFFCURVE"
);
}
);
width = 590;
}
);
note = E;
},
